<?xml version="1.0" encoding="utf-8" standalone="no"?>
<!DOCTYPE svg PUBLIC "-//W3C//DTD SVG 1.1//EN"
  "http://www.w3.org/Graphics/SVG/1.1/DTD/svg11.dtd">
<svg xmlns:xlink="http://www.w3.org/1999/xlink" width="720pt" height="360pt" viewBox="0 0 720 360" xmlns="http://www.w3.org/2000/svg" version="1.1">
 <metadata>
  <rdf:RDF xmlns:dc="http://purl.org/dc/elements/1.1/" xmlns:cc="http://creativecommons.org/ns#" xmlns:rdf="http://www.w3.org/1999/02/22-rdf-syntax-ns#">
   <cc:Work>
    <dc:type rdf:resource="http://purl.org/dc/dcmitype/StillImage"/>
    <dc:date>2026-07-24T17:34:07.012323</dc:date>
    <dc:format>image/svg+xml</dc:format>
    <dc:creator>
     <cc:Agent>
      <dc:title>Matplotlib v3.10.9, https://matplotlib.org/</dc:title>
     </cc:Agent>
    </dc:creator>
   </cc:Work>
  </rdf:RDF>
 </metadata>
 <defs>
  <style type="text/css">*{stroke-linejoin: round; stroke-linecap: butt}</style>
 </defs>
 <g id="figure_1">
  <g id="patch_1">
   <path d="M 0 360 
L 720 360 
L 720 0 
L 0 0 
z
" style="fill: #ffffff"/>
  </g>
  <g id="axes_1">
   <g id="patch_2">
    <path d="M 51.05 318.04 
L 709.2 318.04 
L 709.2 25.44 
L 51.05 25.44 
z
" style="fill: #ffffff"/>
   </g>
   <g id="matplotlib.axis_1">
    <g id="xtick_1">
     <g id="line2d_1">
      <defs>
       <path id="m563bc88373" d="M 0 0 
L 0 3.5 
" style="stroke: #000000; stroke-width: 0.8"/>
      </defs>
      <g>
       <use xlink:href="#m563bc88373" x="80.366992" y="318.04" style="stroke: #000000; stroke-width: 0.8"/>
      </g>
     </g>
     <g id="text_1">
      <!-- 0 -->
      <g transform="translate(77.185742 332.638438) scale(0.1 -0.1)">
       <defs>
        <path id="DejaVuSans-30" d="M 2034 4250 
Q 1547 4250 1301 3770 
Q 1056 3291 1056 2328 
Q 1056 1369 1301 889 
Q 1547 409 2034 409 
Q 2525 409 2770 889 
Q 3016 1369 3016 2328 
Q 3016 3291 2770 3770 
Q 2525 4250 2034 4250 
z
M 2034 4750 
Q 2819 4750 3233 4129 
Q 3647 3509 3647 2328 
Q 3647 1150 3233 529 
Q 2819 -91 2034 -91 
Q 1250 -91 836 529 
Q 422 1150 422 2328 
Q 422 3509 836 4129 
Q 1250 4750 2034 4750 
z
" transform="scale(0.015625)"/>
       </defs>
       <use xlink:href="#DejaVuSans-30"/>
      </g>
     </g>
    </g>
    <g id="xtick_2">
     <g id="line2d_2">
      <g>
       <use xlink:href="#m563bc88373" x="200.150412" y="318.04" style="stroke: #000000; stroke-width: 0.8"/>
      </g>
     </g>
     <g id="text_2">
      <!-- 10000 -->
      <g transform="translate(184.244162 332.638438) scale(0.1 -0.1)">
       <defs>
        <path id="DejaVuSans-31" d="M 794 531 
L 1825 531 
L 1825 4091 
L 703 3866 
L 703 4441 
L 1819 4666 
L 2450 4666 
L 2450 531 
L 3481 531 
L 3481 0 
L 794 0 
L 794 531 
z
" transform="scale(0.015625)"/>
       </defs>
       <use xlink:href="#DejaVuSans-31"/>
       <use xlink:href="#DejaVuSans-30" transform="translate(63.623047 0)"/>
       <use xlink:href="#DejaVuSans-30" transform="translate(127.246094 0)"/>
       <use xlink:href="#DejaVuSans-30" transform="translate(190.869141 0)"/>
       <use xlink:href="#DejaVuSans-30" transform="translate(254.492188 0)"/>
      </g>
     </g>
    </g>
    <g id="xtick_3">
     <g id="line2d_3">
      <g>
       <use xlink:href="#m563bc88373" x="319.933832" y="318.04" style="stroke: #000000; stroke-width: 0.8"/>
      </g>
     </g>
     <g id="text_3">
      <!-- 20000 -->
      <g transform="translate(304.027582 332.638438) scale(0.1 -0.1)">
       <defs>
        <path id="DejaVuSans-32" d="M 1228 531 
L 3431 531 
L 3431 0 
L 469 0 
L 469 531 
Q 828 903 1448 1529 
Q 2069 2156 2228 2338 
Q 2531 2678 2651 2914 
Q 2772 3150 2772 3378 
Q 2772 3750 2511 3984 
Q 2250 4219 1831 4219 
Q 1534 4219 1204 4116 
Q 875 4013 500 3803 
L 500 4441 
Q 881 4594 1212 4672 
Q 1544 4750 1819 4750 
Q 2544 4750 2975 4387 
Q 3406 4025 3406 3419 
Q 3406 3131 3298 2873 
Q 3191 2616 2906 2266 
Q 2828 2175 2409 1742 
Q 1991 1309 1228 531 
z
" transform="scale(0.015625)"/>
       </defs>
       <use xlink:href="#DejaVuSans-32"/>
       <use xlink:href="#DejaVuSans-30" transform="translate(63.623047 0)"/>
       <use xlink:href="#DejaVuSans-30" transform="translate(127.246094 0)"/>
       <use xlink:href="#DejaVuSans-30" transform="translate(190.869141 0)"/>
       <use xlink:href="#DejaVuSans-30" transform="translate(254.492188 0)"/>
      </g>
     </g>
    </g>
    <g id="xtick_4">
     <g id="line2d_4">
      <g>
       <use xlink:href="#m563bc88373" x="439.717251" y="318.04" style="stroke: #000000; stroke-width: 0.8"/>
      </g>
     </g>
     <g id="text_4">
      <!-- 30000 -->
      <g transform="translate(423.811001 332.638438) scale(0.1 -0.1)">
       <defs>
        <path id="DejaVuSans-33" d="M 2597 2516 
Q 3050 2419 3304 2112 
Q 3559 1806 3559 1356 
Q 3559 666 3084 287 
Q 2609 -91 1734 -91 
Q 1441 -91 1130 -33 
Q 819 25 488 141 
L 488 750 
Q 750 597 1062 519 
Q 1375 441 1716 441 
Q 2309 441 2620 675 
Q 2931 909 2931 1356 
Q 2931 1769 2642 2001 
Q 2353 2234 1838 2234 
L 1294 2234 
L 1294 2753 
L 1863 2753 
Q 2328 2753 2575 2939 
Q 2822 3125 2822 3475 
Q 2822 3834 2567 4026 
Q 2313 4219 1838 4219 
Q 1578 4219 1281 4162 
Q 984 4106 628 3988 
L 628 4550 
Q 988 4650 1302 4700 
Q 1616 4750 1894 4750 
Q 2613 4750 3031 4423 
Q 3450 4097 3450 3541 
Q 3450 3153 3228 2886 
Q 3006 2619 2597 2516 
z
" transform="scale(0.015625)"/>
       </defs>
       <use xlink:href="#DejaVuSans-33"/>
       <use xlink:href="#DejaVuSans-30" transform="translate(63.623047 0)"/>
       <use xlink:href="#DejaVuSans-30" transform="translate(127.246094 0)"/>
       <use xlink:href="#DejaVuSans-30" transform="translate(190.869141 0)"/>
       <use xlink:href="#DejaVuSans-30" transform="translate(254.492188 0)"/>
      </g>
     </g>
    </g>
    <g id="xtick_5">
     <g id="line2d_5">
      <g>
       <use xlink:href="#m563bc88373" x="559.500671" y="318.04" style="stroke: #000000; stroke-width: 0.8"/>
      </g>
     </g>
     <g id="text_5">
      <!-- 40000 -->
      <g transform="translate(543.594421 332.638438) scale(0.1 -0.1)">
       <defs>
        <path id="DejaVuSans-34" d="M 2419 4116 
L 825 1625 
L 2419 1625 
L 2419 4116 
z
M 2253 4666 
L 3047 4666 
L 3047 1625 
L 3713 1625 
L 3713 1100 
L 3047 1100 
L 3047 0 
L 2419 0 
L 2419 1100 
L 313 1100 
L 313 1709 
L 2253 4666 
z
" transform="scale(0.015625)"/>
       </defs>
       <use xlink:href="#DejaVuSans-34"/>
       <use xlink:href="#DejaVuSans-30" transform="translate(63.623047 0)"/>
       <use xlink:href="#DejaVuSans-30" transform="translate(127.246094 0)"/>
       <use xlink:href="#DejaVuSans-30" transform="translate(190.869141 0)"/>
       <use xlink:href="#DejaVuSans-30" transform="translate(254.492188 0)"/>
      </g>
     </g>
    </g>
    <g id="xtick_6">
     <g id="line2d_6">
      <g>
       <use xlink:href="#m563bc88373" x="679.284091" y="318.04" style="stroke: #000000; stroke-width: 0.8"/>
      </g>
     </g>
     <g id="text_6">
      <!-- 50000 -->
      <g transform="translate(663.377841 332.638438) scale(0.1 -0.1)">
       <defs>
        <path id="DejaVuSans-35" d="M 691 4666 
L 3169 4666 
L 3169 4134 
L 1269 4134 
L 1269 2991 
Q 1406 3038 1543 3061 
Q 1681 3084 1819 3084 
Q 2600 3084 3056 2656 
Q 3513 2228 3513 1497 
Q 3513 744 3044 326 
Q 2575 -91 1722 -91 
Q 1428 -91 1123 -41 
Q 819 9 494 109 
L 494 744 
Q 775 591 1075 516 
Q 1375 441 1709 441 
Q 2250 441 2565 725 
Q 2881 1009 2881 1497 
Q 2881 1984 2565 2268 
Q 2250 2553 1709 2553 
Q 1456 2553 1204 2497 
Q 953 2441 691 2322 
L 691 4666 
z
" transform="scale(0.015625)"/>
       </defs>
       <use xlink:href="#DejaVuSans-35"/>
       <use xlink:href="#DejaVuSans-30" transform="translate(63.623047 0)"/>
       <use xlink:href="#DejaVuSans-30" transform="translate(127.246094 0)"/>
       <use xlink:href="#DejaVuSans-30" transform="translate(190.869141 0)"/>
       <use xlink:href="#DejaVuSans-30" transform="translate(254.492188 0)"/>
      </g>
     </g>
    </g>
    <g id="text_7">
     <!-- optimizer step -->
     <g transform="translate(344.121875 346.316563) scale(0.1 -0.1)">
      <defs>
       <path id="DejaVuSans-6f" d="M 1959 3097 
Q 1497 3097 1228 2736 
Q 959 2375 959 1747 
Q 959 1119 1226 758 
Q 1494 397 1959 397 
Q 2419 397 2687 759 
Q 2956 1122 2956 1747 
Q 2956 2369 2687 2733 
Q 2419 3097 1959 3097 
z
M 1959 3584 
Q 2709 3584 3137 3096 
Q 3566 2609 3566 1747 
Q 3566 888 3137 398 
Q 2709 -91 1959 -91 
Q 1206 -91 779 398 
Q 353 888 353 1747 
Q 353 2609 779 3096 
Q 1206 3584 1959 3584 
z
" transform="scale(0.015625)"/>
       <path id="DejaVuSans-70" d="M 1159 525 
L 1159 -1331 
L 581 -1331 
L 581 3500 
L 1159 3500 
L 1159 2969 
Q 1341 3281 1617 3432 
Q 1894 3584 2278 3584 
Q 2916 3584 3314 3078 
Q 3713 2572 3713 1747 
Q 3713 922 3314 415 
Q 2916 -91 2278 -91 
Q 1894 -91 1617 61 
Q 1341 213 1159 525 
z
M 3116 1747 
Q 3116 2381 2855 2742 
Q 2594 3103 2138 3103 
Q 1681 3103 1420 2742 
Q 1159 2381 1159 1747 
Q 1159 1113 1420 752 
Q 1681 391 2138 391 
Q 2594 391 2855 752 
Q 3116 1113 3116 1747 
z
" transform="scale(0.015625)"/>
       <path id="DejaVuSans-74" d="M 1172 4494 
L 1172 3500 
L 2356 3500 
L 2356 3053 
L 1172 3053 
L 1172 1153 
Q 1172 725 1289 603 
Q 1406 481 1766 481 
L 2356 481 
L 2356 0 
L 1766 0 
Q 1100 0 847 248 
Q 594 497 594 1153 
L 594 3053 
L 172 3053 
L 172 3500 
L 594 3500 
L 594 4494 
L 1172 4494 
z
" transform="scale(0.015625)"/>
       <path id="DejaVuSans-69" d="M 603 3500 
L 1178 3500 
L 1178 0 
L 603 0 
L 603 3500 
z
M 603 4863 
L 1178 4863 
L 1178 4134 
L 603 4134 
L 603 4863 
z
" transform="scale(0.015625)"/>
       <path id="DejaVuSans-6d" d="M 3328 2828 
Q 3544 3216 3844 3400 
Q 4144 3584 4550 3584 
Q 5097 3584 5394 3201 
Q 5691 2819 5691 2113 
L 5691 0 
L 5113 0 
L 5113 2094 
Q 5113 2597 4934 2840 
Q 4756 3084 4391 3084 
Q 3944 3084 3684 2787 
Q 3425 2491 3425 1978 
L 3425 0 
L 2847 0 
L 2847 2094 
Q 2847 2600 2669 2842 
Q 2491 3084 2119 3084 
Q 1678 3084 1418 2786 
Q 1159 2488 1159 1978 
L 1159 0 
L 581 0 
L 581 3500 
L 1159 3500 
L 1159 2956 
Q 1356 3278 1631 3431 
Q 1906 3584 2284 3584 
Q 2666 3584 2933 3390 
Q 3200 3197 3328 2828 
z
" transform="scale(0.015625)"/>
       <path id="DejaVuSans-7a" d="M 353 3500 
L 3084 3500 
L 3084 2975 
L 922 459 
L 3084 459 
L 3084 0 
L 275 0 
L 275 525 
L 2438 3041 
L 353 3041 
L 353 3500 
z
" transform="scale(0.015625)"/>
       <path id="DejaVuSans-65" d="M 3597 1894 
L 3597 1613 
L 953 1613 
Q 991 1019 1311 708 
Q 1631 397 2203 397 
Q 2534 397 2845 478 
Q 3156 559 3463 722 
L 3463 178 
Q 3153 47 2828 -22 
Q 2503 -91 2169 -91 
Q 1331 -91 842 396 
Q 353 884 353 1716 
Q 353 2575 817 3079 
Q 1281 3584 2069 3584 
Q 2775 3584 3186 3129 
Q 3597 2675 3597 1894 
z
M 3022 2063 
Q 3016 2534 2758 2815 
Q 2500 3097 2075 3097 
Q 1594 3097 1305 2825 
Q 1016 2553 972 2059 
L 3022 2063 
z
" transform="scale(0.015625)"/>
       <path id="DejaVuSans-72" d="M 2631 2963 
Q 2534 3019 2420 3045 
Q 2306 3072 2169 3072 
Q 1681 3072 1420 2755 
Q 1159 2438 1159 1844 
L 1159 0 
L 581 0 
L 581 3500 
L 1159 3500 
L 1159 2956 
Q 1341 3275 1631 3429 
Q 1922 3584 2338 3584 
Q 2397 3584 2469 3576 
Q 2541 3569 2628 3553 
L 2631 2963 
z
" transform="scale(0.015625)"/>
       <path id="DejaVuSans-20" transform="scale(0.015625)"/>
       <path id="DejaVuSans-73" d="M 2834 3397 
L 2834 2853 
Q 2591 2978 2328 3040 
Q 2066 3103 1784 3103 
Q 1356 3103 1142 2972 
Q 928 2841 928 2578 
Q 928 2378 1081 2264 
Q 1234 2150 1697 2047 
L 1894 2003 
Q 2506 1872 2764 1633 
Q 3022 1394 3022 966 
Q 3022 478 2636 193 
Q 2250 -91 1575 -91 
Q 1294 -91 989 -36 
Q 684 19 347 128 
L 347 722 
Q 666 556 975 473 
Q 1284 391 1588 391 
Q 1994 391 2212 530 
Q 2431 669 2431 922 
Q 2431 1156 2273 1281 
Q 2116 1406 1581 1522 
L 1381 1569 
Q 847 1681 609 1914 
Q 372 2147 372 2553 
Q 372 3047 722 3315 
Q 1072 3584 1716 3584 
Q 2034 3584 2315 3537 
Q 2597 3491 2834 3397 
z
" transform="scale(0.015625)"/>
      </defs>
      <use xlink:href="#DejaVuSans-6f"/>
      <use xlink:href="#DejaVuSans-70" transform="translate(61.181641 0)"/>
      <use xlink:href="#DejaVuSans-74" transform="translate(124.658203 0)"/>
      <use xlink:href="#DejaVuSans-69" transform="translate(163.867188 0)"/>
      <use xlink:href="#DejaVuSans-6d" transform="translate(191.650391 0)"/>
      <use xlink:href="#DejaVuSans-69" transform="translate(289.0625 0)"/>
      <use xlink:href="#DejaVuSans-7a" transform="translate(316.845703 0)"/>
      <use xlink:href="#DejaVuSans-65" transform="translate(369.335938 0)"/>
      <use xlink:href="#DejaVuSans-72" transform="translate(430.859375 0)"/>
      <use xlink:href="#DejaVuSans-20" transform="translate(471.972656 0)"/>
      <use xlink:href="#DejaVuSans-73" transform="translate(503.759766 0)"/>
      <use xlink:href="#DejaVuSans-74" transform="translate(555.859375 0)"/>
      <use xlink:href="#DejaVuSans-65" transform="translate(595.068359 0)"/>
      <use xlink:href="#DejaVuSans-70" transform="translate(656.591797 0)"/>
     </g>
    </g>
   </g>
   <g id="matplotlib.axis_2">
    <g id="ytick_1">
     <g id="line2d_7">
      <defs>
       <path id="m8013fd9714" d="M 0 0 
L -3.5 0 
" style="stroke: #000000; stroke-width: 0.8"/>
      </defs>
      <g>
       <use xlink:href="#m8013fd9714" x="51.05" y="288.628865" style="stroke: #000000; stroke-width: 0.8"/>
      </g>
     </g>
     <g id="text_8">
      <!-- 20 -->
      <g transform="translate(31.325 292.428084) scale(0.1 -0.1)">
       <use xlink:href="#DejaVuSans-32"/>
       <use xlink:href="#DejaVuSans-30" transform="translate(63.623047 0)"/>
      </g>
     </g>
    </g>
    <g id="ytick_2">
     <g id="line2d_8">
      <g>
       <use xlink:href="#m8013fd9714" x="51.05" y="237.446996" style="stroke: #000000; stroke-width: 0.8"/>
      </g>
     </g>
     <g id="text_9">
      <!-- 40 -->
      <g transform="translate(31.325 241.246215) scale(0.1 -0.1)">
       <use xlink:href="#DejaVuSans-34"/>
       <use xlink:href="#DejaVuSans-30" transform="translate(63.623047 0)"/>
      </g>
     </g>
    </g>
    <g id="ytick_3">
     <g id="line2d_9">
      <g>
       <use xlink:href="#m8013fd9714" x="51.05" y="186.265128" style="stroke: #000000; stroke-width: 0.8"/>
      </g>
     </g>
     <g id="text_10">
      <!-- 60 -->
      <g transform="translate(31.325 190.064347) scale(0.1 -0.1)">
       <defs>
        <path id="DejaVuSans-36" d="M 2113 2584 
Q 1688 2584 1439 2293 
Q 1191 2003 1191 1497 
Q 1191 994 1439 701 
Q 1688 409 2113 409 
Q 2538 409 2786 701 
Q 3034 994 3034 1497 
Q 3034 2003 2786 2293 
Q 2538 2584 2113 2584 
z
M 3366 4563 
L 3366 3988 
Q 3128 4100 2886 4159 
Q 2644 4219 2406 4219 
Q 1781 4219 1451 3797 
Q 1122 3375 1075 2522 
Q 1259 2794 1537 2939 
Q 1816 3084 2150 3084 
Q 2853 3084 3261 2657 
Q 3669 2231 3669 1497 
Q 3669 778 3244 343 
Q 2819 -91 2113 -91 
Q 1303 -91 875 529 
Q 447 1150 447 2328 
Q 447 3434 972 4092 
Q 1497 4750 2381 4750 
Q 2619 4750 2861 4703 
Q 3103 4656 3366 4563 
z
" transform="scale(0.015625)"/>
       </defs>
       <use xlink:href="#DejaVuSans-36"/>
       <use xlink:href="#DejaVuSans-30" transform="translate(63.623047 0)"/>
      </g>
     </g>
    </g>
    <g id="ytick_4">
     <g id="line2d_10">
      <g>
       <use xlink:href="#m8013fd9714" x="51.05" y="135.08326" style="stroke: #000000; stroke-width: 0.8"/>
      </g>
     </g>
     <g id="text_11">
      <!-- 80 -->
      <g transform="translate(31.325 138.882478) scale(0.1 -0.1)">
       <defs>
        <path id="DejaVuSans-38" d="M 2034 2216 
Q 1584 2216 1326 1975 
Q 1069 1734 1069 1313 
Q 1069 891 1326 650 
Q 1584 409 2034 409 
Q 2484 409 2743 651 
Q 3003 894 3003 1313 
Q 3003 1734 2745 1975 
Q 2488 2216 2034 2216 
z
M 1403 2484 
Q 997 2584 770 2862 
Q 544 3141 544 3541 
Q 544 4100 942 4425 
Q 1341 4750 2034 4750 
Q 2731 4750 3128 4425 
Q 3525 4100 3525 3541 
Q 3525 3141 3298 2862 
Q 3072 2584 2669 2484 
Q 3125 2378 3379 2068 
Q 3634 1759 3634 1313 
Q 3634 634 3220 271 
Q 2806 -91 2034 -91 
Q 1263 -91 848 271 
Q 434 634 434 1313 
Q 434 1759 690 2068 
Q 947 2378 1403 2484 
z
M 1172 3481 
Q 1172 3119 1398 2916 
Q 1625 2713 2034 2713 
Q 2441 2713 2670 2916 
Q 2900 3119 2900 3481 
Q 2900 3844 2670 4047 
Q 2441 4250 2034 4250 
Q 1625 4250 1398 4047 
Q 1172 3844 1172 3481 
z
" transform="scale(0.015625)"/>
       </defs>
       <use xlink:href="#DejaVuSans-38"/>
       <use xlink:href="#DejaVuSans-30" transform="translate(63.623047 0)"/>
      </g>
     </g>
    </g>
    <g id="ytick_5">
     <g id="line2d_11">
      <g>
       <use xlink:href="#m8013fd9714" x="51.05" y="83.901391" style="stroke: #000000; stroke-width: 0.8"/>
      </g>
     </g>
     <g id="text_12">
      <!-- 100 -->
      <g transform="translate(24.9625 87.70061) scale(0.1 -0.1)">
       <use xlink:href="#DejaVuSans-31"/>
       <use xlink:href="#DejaVuSans-30" transform="translate(63.623047 0)"/>
       <use xlink:href="#DejaVuSans-30" transform="translate(127.246094 0)"/>
      </g>
     </g>
    </g>
    <g id="ytick_6">
     <g id="line2d_12">
      <g>
       <use xlink:href="#m8013fd9714" x="51.05" y="32.719523" style="stroke: #000000; stroke-width: 0.8"/>
      </g>
     </g>
     <g id="text_13">
      <!-- 120 -->
      <g transform="translate(24.9625 36.518741) scale(0.1 -0.1)">
       <use xlink:href="#DejaVuSans-31"/>
       <use xlink:href="#DejaVuSans-32" transform="translate(63.623047 0)"/>
       <use xlink:href="#DejaVuSans-30" transform="translate(127.246094 0)"/>
      </g>
     </g>
    </g>
    <g id="text_14">
     <!-- L2 / Frobenius norm -->
     <g transform="translate(18.882812 221.322812) rotate(-90) scale(0.1 -0.1)">
      <defs>
       <path id="DejaVuSans-4c" d="M 628 4666 
L 1259 4666 
L 1259 531 
L 3531 531 
L 3531 0 
L 628 0 
L 628 4666 
z
" transform="scale(0.015625)"/>
       <path id="DejaVuSans-2f" d="M 1625 4666 
L 2156 4666 
L 531 -594 
L 0 -594 
L 1625 4666 
z
" transform="scale(0.015625)"/>
       <path id="DejaVuSans-46" d="M 628 4666 
L 3309 4666 
L 3309 4134 
L 1259 4134 
L 1259 2759 
L 3109 2759 
L 3109 2228 
L 1259 2228 
L 1259 0 
L 628 0 
L 628 4666 
z
" transform="scale(0.015625)"/>
       <path id="DejaVuSans-62" d="M 3116 1747 
Q 3116 2381 2855 2742 
Q 2594 3103 2138 3103 
Q 1681 3103 1420 2742 
Q 1159 2381 1159 1747 
Q 1159 1113 1420 752 
Q 1681 391 2138 391 
Q 2594 391 2855 752 
Q 3116 1113 3116 1747 
z
M 1159 2969 
Q 1341 3281 1617 3432 
Q 1894 3584 2278 3584 
Q 2916 3584 3314 3078 
Q 3713 2572 3713 1747 
Q 3713 922 3314 415 
Q 2916 -91 2278 -91 
Q 1894 -91 1617 61 
Q 1341 213 1159 525 
L 1159 0 
L 581 0 
L 581 4863 
L 1159 4863 
L 1159 2969 
z
" transform="scale(0.015625)"/>
       <path id="DejaVuSans-6e" d="M 3513 2113 
L 3513 0 
L 2938 0 
L 2938 2094 
Q 2938 2591 2744 2837 
Q 2550 3084 2163 3084 
Q 1697 3084 1428 2787 
Q 1159 2491 1159 1978 
L 1159 0 
L 581 0 
L 581 3500 
L 1159 3500 
L 1159 2956 
Q 1366 3272 1645 3428 
Q 1925 3584 2291 3584 
Q 2894 3584 3203 3211 
Q 3513 2838 3513 2113 
z
" transform="scale(0.015625)"/>
       <path id="DejaVuSans-75" d="M 544 1381 
L 544 3500 
L 1119 3500 
L 1119 1403 
Q 1119 906 1312 657 
Q 1506 409 1894 409 
Q 2359 409 2629 706 
Q 2900 1003 2900 1516 
L 2900 3500 
L 3475 3500 
L 3475 0 
L 2900 0 
L 2900 538 
Q 2691 219 2414 64 
Q 2138 -91 1772 -91 
Q 1169 -91 856 284 
Q 544 659 544 1381 
z
M 1991 3584 
L 1991 3584 
z
" transform="scale(0.015625)"/>
      </defs>
      <use xlink:href="#DejaVuSans-4c"/>
      <use xlink:href="#DejaVuSans-32" transform="translate(55.712891 0)"/>
      <use xlink:href="#DejaVuSans-20" transform="translate(119.335938 0)"/>
      <use xlink:href="#DejaVuSans-2f" transform="translate(151.123047 0)"/>
      <use xlink:href="#DejaVuSans-20" transform="translate(184.814453 0)"/>
      <use xlink:href="#DejaVuSans-46" transform="translate(216.601562 0)"/>
      <use xlink:href="#DejaVuSans-72" transform="translate(266.871094 0)"/>
      <use xlink:href="#DejaVuSans-6f" transform="translate(305.734375 0)"/>
      <use xlink:href="#DejaVuSans-62" transform="translate(366.916016 0)"/>
      <use xlink:href="#DejaVuSans-65" transform="translate(430.392578 0)"/>
      <use xlink:href="#DejaVuSans-6e" transform="translate(491.916016 0)"/>
      <use xlink:href="#DejaVuSans-69" transform="translate(555.294922 0)"/>
      <use xlink:href="#DejaVuSans-75" transform="translate(583.078125 0)"/>
      <use xlink:href="#DejaVuSans-73" transform="translate(646.457031 0)"/>
      <use xlink:href="#DejaVuSans-20" transform="translate(698.556641 0)"/>
      <use xlink:href="#DejaVuSans-6e" transform="translate(730.34375 0)"/>
      <use xlink:href="#DejaVuSans-6f" transform="translate(793.722656 0)"/>
      <use xlink:href="#DejaVuSans-72" transform="translate(854.904297 0)"/>
      <use xlink:href="#DejaVuSans-6d" transform="translate(894.267578 0)"/>
     </g>
    </g>
   </g>
   <g id="line2d_13">
    <path d="M 80.965909 38.74 
L 81.564826 39.009432 
L 82.163743 44.020338 
L 85.158329 74.925345 
L 87.553997 97.20729 
L 89.949666 117.313267 
L 92.345334 135.411584 
L 94.741002 151.659888 
L 96.537754 162.723901 
L 97.136671 160.49456 
L 97.735588 161.446922 
L 98.334505 160.508048 
L 98.933422 156.873425 
L 99.532339 154.328369 
L 100.131256 155.941459 
L 102.526925 167.444942 
L 104.922593 178.324192 
L 107.318261 188.02236 
L 109.71393 196.65888 
L 112.109598 204.382457 
L 114.505267 211.326541 
L 116.900935 217.610309 
L 119.296603 223.269053 
L 121.093355 227.118831 
L 121.692272 222.952716 
L 122.291189 222.735114 
L 122.890106 223.823443 
L 123.489023 224.241207 
L 124.686857 223.617734 
L 125.285774 222.743708 
L 125.884692 222.19627 
L 126.483609 220.838495 
L 127.082526 218.709589 
L 127.681443 217.401766 
L 128.28036 217.225614 
L 128.879277 217.724407 
L 130.077111 219.411483 
L 133.670614 224.954934 
L 136.066282 228.196029 
L 138.461951 231.067686 
L 141.456536 234.270528 
L 145.050039 237.73398 
L 149.242458 241.401236 
L 149.841375 241.895717 
L 150.440293 237.989571 
L 151.03921 238.138218 
L 151.638127 238.04865 
L 152.835961 235.361777 
L 153.434878 235.140724 
L 154.033795 235.612566 
L 155.830546 237.726181 
L 158.226215 240.555992 
L 160.022966 242.430563 
L 161.819717 244.038893 
L 163.616469 245.389452 
L 165.41322 246.505188 
L 167.808888 247.683429 
L 169.006723 243.14722 
L 169.60564 241.28812 
L 170.204557 240.59591 
L 171.402391 241.761594 
L 173.798059 244.175204 
L 175.594811 245.700579 
L 177.391562 246.964721 
L 179.188313 247.992083 
L 180.985065 248.817122 
L 181.583982 246.211679 
L 182.182899 244.511632 
L 182.781816 244.039337 
L 183.97965 244.875937 
L 186.375319 246.762253 
L 188.17207 247.950086 
L 189.968821 248.925919 
L 192.364489 249.948253 
L 194.760158 250.717505 
L 197.754743 251.409001 
L 200.150412 251.798342 
L 200.749329 250.495292 
L 201.348246 247.910322 
L 201.947163 246.489915 
L 202.54608 246.606438 
L 204.941749 248.262613 
L 206.7385 249.390145 
L 208.535251 250.306516 
L 210.93092 251.235388 
L 213.326588 251.911883 
L 216.321173 252.516515 
L 219.914676 253.011483 
L 224.706013 253.432058 
L 227.700598 253.613366 
L 228.299515 246.127156 
L 228.898433 243.924137 
L 229.49735 242.639308 
L 230.096267 242.768226 
L 231.294101 243.598316 
L 234.288686 245.828458 
L 236.684355 247.288564 
L 239.080023 248.414061 
L 241.475692 249.236212 
L 243.87136 249.8169 
L 246.865945 250.300561 
L 250.459448 250.642732 
L 251.058365 250.135055 
L 251.657282 245.130407 
L 252.256199 242.825687 
L 252.855116 242.105016 
L 253.454034 242.27241 
L 255.250785 243.511734 
L 257.646453 245.160927 
L 259.443205 246.179929 
L 261.239956 246.996636 
L 263.635624 247.805293 
L 264.833458 243.761503 
L 265.432376 242.870146 
L 266.63021 241.621361 
L 267.229127 241.864018 
L 273.218298 245.768878 
L 275.015049 246.564969 
L 277.410718 247.33638 
L 279.806386 247.843243 
L 282.800971 248.228903 
L 286.394474 248.46485 
L 289.38906 248.530018 
L 289.987977 243.305388 
L 290.586894 242.001815 
L 291.784728 240.709643 
L 292.383645 240.352036 
L 292.982562 240.623196 
L 298.372816 244.342722 
L 299.57065 244.973021 
L 300.169567 243.055579 
L 300.768484 242.230099 
L 301.367401 241.777446 
L 302.565236 241.424372 
L 303.164153 241.048346 
L 303.76307 240.923757 
L 304.361987 241.00089 
L 305.559821 241.467498 
L 309.153324 243.129379 
L 311.548992 243.932884 
L 313.944661 244.480527 
L 316.939246 244.879834 
L 320.532749 245.083329 
L 321.131666 245.108636 
L 321.730583 241.645697 
L 322.3295 241.124935 
L 322.928417 240.032359 
L 323.527334 240.373615 
L 324.126251 239.895793 
L 324.725168 239.586721 
L 325.324085 239.50597 
L 326.52192 239.81615 
L 328.917588 241.006154 
L 331.313256 242.094545 
L 333.708925 242.934492 
L 336.104593 243.517043 
L 338.500262 243.865147 
L 341.494847 244.052703 
L 342.093764 244.072349 
L 342.692681 241.157747 
L 343.291598 239.539049 
L 343.890516 239.143907 
L 344.489433 239.396518 
L 345.08835 239.404676 
L 352.275355 240.979583 
L 354.671023 241.22524 
L 358.264526 241.348096 
L 366.649365 241.37511 
L 367.248282 240.17622 
L 367.847199 236.955635 
L 368.446117 236.898695 
L 370.242868 235.665154 
L 370.841785 235.424302 
L 371.440702 235.442798 
L 372.638536 235.913319 
L 377.429873 238.30725 
L 379.825541 239.157659 
L 382.22121 239.786174 
L 382.820127 238.811143 
L 384.017961 237.980792 
L 384.616878 237.206377 
L 385.814712 236.879997 
L 386.41363 236.94651 
L 387.611464 237.502747 
L 392.402801 240.318393 
L 394.798469 241.390431 
L 397.194137 242.221377 
L 399.589806 242.84768 
L 402.584391 243.402776 
L 406.177894 243.83716 
L 406.776811 243.888183 
L 407.375728 241.730763 
L 407.974645 241.35111 
L 408.573562 241.138025 
L 409.771396 239.433626 
L 410.370313 239.198186 
L 410.969231 239.282418 
L 412.765982 240.015324 
L 415.16165 241.010541 
L 417.557319 241.75156 
L 419.952987 242.263089 
L 422.348655 242.62358 
L 422.947573 242.013468 
L 423.54649 240.141453 
L 424.145407 239.725424 
L 424.744324 240.255463 
L 425.942158 238.926151 
L 426.541075 238.72211 
L 427.738909 238.936446 
L 431.931329 240.28542 
L 434.326997 240.716259 
L 437.321583 240.975539 
L 440.915086 241.050481 
L 446.305339 240.895239 
L 455.888013 240.529305 
L 456.48693 235.542714 
L 457.684764 236.451864 
L 458.882599 236.841401 
L 459.481516 237.103749 
L 460.080433 236.957804 
L 460.67935 237.337955 
L 461.278267 236.994811 
L 461.877184 237.558589 
L 462.476101 237.322422 
L 463.075018 237.520356 
L 464.871769 237.536099 
L 466.668521 237.978554 
L 470.262023 238.900047 
L 472.657692 239.265879 
L 473.855526 237.029941 
L 474.454443 236.598544 
L 475.05336 236.542459 
L 475.652277 236.629929 
L 476.850111 237.077483 
L 477.449029 237.101222 
L 478.047946 236.968385 
L 478.646863 237.000491 
L 479.24578 236.771051 
L 479.844697 236.748962 
L 480.443614 237.01256 
L 481.042531 237.890023 
L 481.641448 237.97517 
L 482.839282 237.751925 
L 484.037117 237.422828 
L 485.234951 237.367541 
L 486.432785 237.611199 
L 488.828453 238.263354 
L 489.427371 237.582831 
L 490.625205 237.877722 
L 491.224122 237.776792 
L 491.823039 237.351281 
L 492.421956 237.551615 
L 493.020873 237.522082 
L 494.218707 236.594433 
L 497.213293 235.514326 
L 497.81221 235.408357 
L 499.010044 234.805599 
L 499.608961 235.568863 
L 500.207878 235.026276 
L 501.405713 234.412114 
L 502.00463 235.623382 
L 502.603547 235.065227 
L 503.202464 235.117928 
L 503.801381 234.694574 
L 504.400298 234.064523 
L 504.999215 234.936757 
L 506.197049 233.780366 
L 506.795966 235.366803 
L 507.394884 235.520128 
L 507.993801 234.820022 
L 508.592718 234.685794 
L 509.191635 234.090889 
L 509.790552 235.374559 
L 510.389469 234.962375 
L 510.988386 234.879321 
L 512.18622 233.56935 
L 512.785137 235.090505 
L 513.982972 233.751459 
L 514.581889 234.913416 
L 515.180806 234.409918 
L 515.779723 234.904802 
L 516.37864 234.464454 
L 516.977557 233.736989 
L 517.576474 233.518828 
L 518.175391 234.680561 
L 519.373225 233.222083 
L 519.972143 233.10855 
L 520.57106 236.02982 
L 521.169977 235.225315 
L 521.768894 234.761225 
L 522.367811 234.489146 
L 522.966728 233.747409 
L 523.565645 234.026273 
L 524.164562 233.723447 
L 524.763479 233.021991 
L 525.362396 235.764964 
L 527.159148 234.338616 
L 528.356982 232.879601 
L 528.955899 232.313614 
L 529.554816 238.234817 
L 532.549402 234.676523 
L 533.148319 234.482333 
L 533.747236 233.99021 
L 534.346153 234.021153 
L 534.94507 233.590096 
L 535.543987 234.424468 
L 536.142904 233.688076 
L 536.741821 233.802166 
L 537.939656 232.578004 
L 538.538573 234.779802 
L 539.13749 236.287882 
L 540.335324 234.792326 
L 540.934241 234.372038 
L 542.132075 233.016225 
L 542.730992 236.416949 
L 543.329909 235.758613 
L 543.928827 234.810399 
L 544.527744 234.883332 
L 546.324495 233.053696 
L 547.522329 232.281343 
L 548.720163 231.81896 
L 549.31908 237.736382 
L 549.917998 237.436776 
L 551.115832 236.023418 
L 551.714749 235.537107 
L 552.313666 234.872242 
L 552.912583 234.639223 
L 553.5115 234.731732 
L 554.110417 234.331311 
L 554.709334 235.163948 
L 555.308251 234.432166 
L 555.907169 235.245518 
L 556.506086 235.191262 
L 557.105003 234.906401 
L 558.302837 233.5098 
L 558.901754 235.203627 
L 559.500671 235.487803 
L 560.698505 233.88817 
L 561.297422 234.432577 
L 561.89634 234.029933 
L 563.094174 232.921578 
L 563.693091 236.523665 
L 564.292008 236.854438 
L 565.489842 234.969379 
L 566.687676 233.873807 
L 567.885511 233.251226 
L 568.484428 233.049517 
L 569.083345 234.305241 
L 569.682262 237.320244 
L 570.281179 237.257877 
L 570.880096 236.676207 
L 571.479013 235.893077 
L 572.07793 235.577543 
L 573.275764 234.058406 
L 573.874681 233.835497 
L 574.473599 233.040305 
L 575.072516 232.479403 
L 575.671433 232.777078 
L 576.27035 232.259221 
L 576.869267 232.43905 
L 577.468184 231.764996 
L 578.067101 231.618461 
L 578.666018 232.569462 
L 579.863852 231.154678 
L 580.46277 234.314061 
L 581.061687 233.731242 
L 581.660604 233.509401 
L 582.858438 232.164544 
L 584.056272 230.944532 
L 585.254106 230.052648 
L 585.853023 229.716626 
L 586.451941 234.042405 
L 587.050858 234.259222 
L 588.248692 232.596302 
L 589.446526 231.56607 
L 590.64436 230.894709 
L 591.842194 230.462842 
L 592.441112 230.310878 
L 593.040029 234.778874 
L 593.638946 234.292883 
L 594.237863 233.490946 
L 594.83678 233.085246 
L 596.034614 231.769243 
L 596.633531 233.374987 
L 597.232448 232.939428 
L 598.430283 231.830408 
L 599.628117 231.059987 
L 600.227034 230.766899 
L 600.825951 234.972514 
L 601.424868 234.458185 
L 602.622702 232.870634 
L 603.221619 232.202362 
L 603.820536 234.192794 
L 605.018371 232.779815 
L 605.617288 233.068591 
L 608.611873 231.148184 
L 609.809707 230.790558 
L 611.606459 230.513019 
L 612.205376 234.353899 
L 612.804293 234.018079 
L 614.002127 232.19506 
L 614.601044 232.270471 
L 615.798878 230.843374 
L 616.397796 230.391326 
L 616.996713 230.106618 
L 618.194547 229.950975 
L 619.991298 230.188623 
L 626.579386 231.421907 
L 627.178303 231.85335 
L 628.376138 231.234833 
L 628.975055 230.699512 
L 630.172889 230.067945 
L 631.370723 229.070464 
L 632.568557 228.535916 
L 633.167474 228.192831 
L 633.766391 228.163706 
L 634.365308 227.786587 
L 634.964226 227.850147 
L 635.563143 227.489466 
L 636.16206 228.051693 
L 636.760977 227.766216 
L 637.958811 226.918603 
L 638.557728 228.391503 
L 639.156645 227.979926 
L 639.755562 227.428097 
L 640.354479 227.048332 
L 640.953397 228.387922 
L 641.552314 228.462105 
L 642.750148 227.303034 
L 643.349065 227.086736 
L 643.947982 226.702667 
L 644.546899 226.909991 
L 645.145816 226.542266 
L 645.744733 226.307847 
L 646.34365 227.364973 
L 647.541485 226.3984 
L 648.140402 226.73578 
L 648.739319 226.187385 
L 649.338236 226.594975 
L 649.937153 225.981873 
L 650.53607 226.778772 
L 651.134987 226.209162 
L 651.733904 226.857362 
L 652.931739 225.550058 
L 653.530656 226.179095 
L 654.72849 224.972507 
L 655.327407 226.436417 
L 655.926324 225.712453 
L 656.525241 225.845577 
L 657.124158 225.730958 
L 657.723075 225.05406 
L 658.321992 225.622541 
L 658.92091 225.011945 
L 659.519827 225.00284 
L 660.118744 225.905346 
L 660.717661 225.131878 
L 661.316578 225.225398 
L 661.915495 224.66086 
L 662.514412 225.161882 
L 663.712246 223.963532 
L 664.311163 226.836284 
L 664.910081 226.416887 
L 665.508998 225.561753 
L 666.706832 224.376375 
L 667.305749 226.191057 
L 667.904666 226.174388 
L 668.503583 225.304144 
L 669.701417 224.012261 
L 670.300334 224.713732 
L 670.899252 224.056256 
L 671.498169 224.666347 
L 672.097086 224.008865 
L 672.696003 224.482902 
L 673.29492 224.585962 
L 673.893837 223.822954 
L 674.492754 224.329724 
L 675.091671 224.144582 
L 675.690588 223.428117 
L 676.289505 224.22865 
L 676.888423 223.481032 
L 677.48734 223.805758 
L 678.086257 223.154704 
L 678.685174 224.176249 
L 679.284091 224.109318 
L 679.284091 224.109318 
" clip-path="url(#pff9cd06d17)" style="fill: none; stroke: #1f77b4; stroke-width: 1.5; stroke-linecap: square"/>
   </g>
   <g id="line2d_14">
    <path d="M 80.965909 44.906067 
L 81.564826 45.788687 
L 82.163743 51.118391 
L 85.158329 83.155048 
L 87.553997 106.411093 
L 89.949666 127.570702 
L 92.345334 146.806513 
L 94.741002 164.279539 
L 96.537754 176.320938 
L 97.136671 173.483621 
L 97.735588 174.468522 
L 98.334505 173.489097 
L 98.933422 169.760158 
L 99.532339 167.333111 
L 100.131256 169.211616 
L 102.526925 181.941821 
L 104.922593 194.130928 
L 107.318261 205.199777 
L 109.71393 215.258792 
L 112.109598 224.451726 
L 115.104184 234.927513 
L 118.098769 244.45922 
L 120.494438 251.433741 
L 121.093355 253.089397 
L 121.692272 247.408663 
L 122.291189 247.051308 
L 122.890106 248.491476 
L 123.489023 249.114232 
L 124.08794 248.905437 
L 124.686857 248.533428 
L 125.285774 247.560802 
L 125.884692 246.987812 
L 126.483609 245.409936 
L 127.082526 242.976979 
L 127.681443 241.575224 
L 128.28036 241.518757 
L 128.879277 242.25744 
L 130.077111 244.556442 
L 134.269531 253.320468 
L 136.665199 257.801652 
L 139.659785 262.876001 
L 143.253287 268.460972 
L 147.445707 274.544514 
L 149.841375 277.889744 
L 150.440293 271.346945 
L 151.03921 271.574414 
L 151.638127 271.50189 
L 152.835961 267.77064 
L 153.434878 267.621318 
L 154.033795 268.396396 
L 155.830546 271.68271 
L 158.825132 277.227986 
L 160.621883 280.200897 
L 162.418635 282.823106 
L 164.215386 285.094776 
L 166.012137 287.036726 
L 167.808888 288.684318 
L 169.006723 280.731738 
L 169.60564 277.931398 
L 170.204557 276.984422 
L 171.402391 278.9235 
L 173.798059 283.017841 
L 175.594811 285.722917 
L 177.391562 288.058967 
L 179.188313 290.03957 
L 180.985065 291.699194 
L 181.583982 285.942701 
L 182.182899 283.040609 
L 182.781816 282.367665 
L 183.380733 283.026347 
L 187.573153 288.805251 
L 189.369904 290.826705 
L 191.166655 292.539749 
L 192.963407 293.982141 
L 194.760158 295.191591 
L 197.155826 296.497481 
L 199.551495 297.513051 
L 200.150412 297.72873 
L 200.749329 294.71887 
L 201.348246 289.908156 
L 201.947163 287.72871 
L 202.54608 288.044742 
L 204.342831 290.465238 
L 206.7385 293.590236 
L 208.535251 295.56187 
L 210.332002 297.211322 
L 212.128754 298.587018 
L 214.524422 300.088921 
L 216.920091 301.301218 
L 219.914676 302.521198 
L 222.909262 303.500023 
L 227.101681 304.600342 
L 227.700598 304.74 
L 228.299515 288.967214 
L 228.898433 285.367834 
L 229.49735 283.460434 
L 230.096267 283.78811 
L 231.294101 285.352422 
L 234.887604 290.395515 
L 236.684355 292.568042 
L 238.481106 294.442334 
L 240.277857 296.016901 
L 242.074609 297.315091 
L 243.87136 298.376551 
L 246.267028 299.497663 
L 248.662697 300.358726 
L 250.459448 300.871544 
L 251.058365 299.487061 
L 251.657282 288.959913 
L 252.256199 284.975913 
L 252.855116 283.847079 
L 253.454034 284.199148 
L 254.651868 285.685272 
L 257.646453 289.655413 
L 259.443205 291.693218 
L 261.239956 293.39572 
L 263.036707 294.77435 
L 263.635624 295.166659 
L 264.234541 290.353602 
L 264.833458 286.780075 
L 265.432376 285.341358 
L 266.63021 283.364888 
L 267.229127 283.870705 
L 269.025878 286.292182 
L 271.421547 289.460923 
L 273.218298 291.505149 
L 275.015049 293.207423 
L 276.8118 294.570661 
L 278.608552 295.631977 
L 280.405303 296.444709 
L 282.800971 297.246577 
L 285.19664 297.812298 
L 288.191225 298.253287 
L 289.38906 298.366635 
L 289.987977 287.084974 
L 290.586894 284.868652 
L 291.185811 283.824686 
L 291.784728 283.059805 
L 292.383645 282.626957 
L 292.982562 283.182432 
L 298.971733 291.054819 
L 299.57065 291.689222 
L 300.169567 287.401215 
L 300.768484 285.771005 
L 301.367401 285.131662 
L 302.565236 284.7168 
L 303.164153 284.277962 
L 303.76307 284.225954 
L 304.361987 284.486247 
L 305.559821 285.496689 
L 309.153324 288.947217 
L 310.950075 290.32568 
L 312.746826 291.427745 
L 314.543578 292.283062 
L 316.340329 292.922884 
L 318.735997 293.518109 
L 321.131666 293.918125 
L 321.730583 285.953589 
L 322.3295 285.091917 
L 322.928417 283.280456 
L 323.527334 283.839661 
L 324.126251 283.175431 
L 324.725168 282.77661 
L 325.324085 282.739556 
L 325.923003 282.99084 
L 327.120837 283.956595 
L 330.714339 287.381261 
L 332.511091 288.783122 
L 334.307842 289.936512 
L 336.104593 290.812864 
L 337.901345 291.433418 
L 339.698096 291.83119 
L 342.093764 292.122416 
L 342.692681 285.810618 
L 343.291598 282.964104 
L 343.890516 282.288144 
L 344.489433 282.740499 
L 345.08835 282.879599 
L 346.885101 283.835711 
L 349.280769 285.004535 
L 351.077521 285.860947 
L 352.874272 286.492245 
L 354.671023 286.904998 
L 357.066692 287.233675 
L 363.055863 287.662361 
L 366.649365 287.79657 
L 367.248282 285.070799 
L 367.847199 278.83458 
L 368.446117 278.861484 
L 370.242868 277.140094 
L 370.841785 276.857172 
L 371.440702 276.978599 
L 372.638536 277.894278 
L 377.429873 282.392327 
L 379.226624 283.702177 
L 381.023376 284.784262 
L 382.22121 285.402513 
L 382.820127 282.543599 
L 384.017961 281.134367 
L 384.616878 279.891708 
L 385.215795 279.598425 
L 385.814712 279.520896 
L 386.41363 279.73035 
L 387.611464 280.82561 
L 393.001718 286.861974 
L 394.798469 288.478517 
L 396.59522 289.864992 
L 398.391972 291.038362 
L 400.78764 292.30645 
L 403.183308 293.296444 
L 405.578977 294.07414 
L 406.776811 294.38991 
L 407.375728 288.65984 
L 407.974645 288.05377 
L 408.573562 287.784137 
L 409.771396 284.983672 
L 410.370313 284.635103 
L 410.969231 284.839224 
L 412.167065 285.763903 
L 415.16165 288.281676 
L 416.958402 289.478279 
L 418.755153 290.416963 
L 421.150821 291.355863 
L 422.348655 291.732766 
L 422.947573 290.467712 
L 423.54649 286.669025 
L 424.145407 286.073941 
L 424.744324 286.802919 
L 425.942158 284.800345 
L 426.541075 284.523098 
L 427.139992 284.682257 
L 428.337826 285.45039 
L 430.733495 287.137138 
L 432.530246 288.101051 
L 434.326997 288.765739 
L 436.123749 289.203124 
L 438.519417 289.545794 
L 441.514003 289.699542 
L 445.107505 289.620679 
L 455.888013 289.12047 
L 456.48693 279.274801 
L 457.684764 280.940839 
L 458.882599 281.771869 
L 459.481516 282.262689 
L 460.080433 282.155086 
L 460.67935 282.754049 
L 461.278267 282.334521 
L 461.877184 283.23107 
L 462.476101 282.978592 
L 463.075018 283.372624 
L 464.272852 283.525994 
L 465.470687 284.044692 
L 470.262023 286.742761 
L 472.058775 287.413441 
L 472.657692 287.578979 
L 473.855526 281.846347 
L 474.454443 281.13227 
L 475.05336 281.099611 
L 475.652277 281.312026 
L 476.850111 282.18646 
L 477.449029 282.31294 
L 478.047946 282.178056 
L 478.646863 282.316209 
L 479.24578 282.013814 
L 479.844697 282.051202 
L 480.443614 282.509051 
L 481.042531 283.617831 
L 481.641448 283.854923 
L 482.240365 283.830193 
L 484.636034 283.158642 
L 485.234951 283.258106 
L 486.432785 283.800521 
L 488.828453 285.174736 
L 489.427371 283.803206 
L 490.625205 284.455935 
L 491.224122 284.370226 
L 491.823039 283.731868 
L 492.421956 284.146129 
L 493.020873 284.17759 
L 494.218707 282.777495 
L 495.416542 282.195591 
L 496.015459 281.747232 
L 496.614376 281.753317 
L 497.213293 281.43948 
L 497.81221 281.361271 
L 499.010044 280.580222 
L 499.608961 281.923334 
L 500.207878 281.148937 
L 501.405713 280.369289 
L 502.00463 282.43318 
L 502.603547 281.640147 
L 503.202464 281.841193 
L 503.801381 281.269599 
L 504.400298 280.369195 
L 504.999215 281.88072 
L 506.197049 280.262124 
L 506.795966 282.930413 
L 507.394884 283.28333 
L 507.993801 282.253681 
L 508.592718 282.141102 
L 509.191635 281.298345 
L 509.790552 283.519911 
L 510.389469 282.960472 
L 510.988386 282.935591 
L 512.18622 281.053306 
L 512.785137 283.635111 
L 513.982972 281.694742 
L 514.581889 283.716511 
L 515.180806 283.016317 
L 515.779723 283.957243 
L 516.37864 283.354758 
L 516.977557 282.290688 
L 517.576474 282.050055 
L 518.175391 284.076646 
L 519.373225 281.939612 
L 519.972143 281.885725 
L 520.57106 286.773739 
L 521.169977 285.503098 
L 521.768894 284.835536 
L 522.367811 284.501715 
L 522.966728 283.399138 
L 523.565645 283.968947 
L 524.164562 283.5957 
L 524.763479 282.573991 
L 525.362396 287.319254 
L 527.159148 285.194685 
L 528.356982 283.025001 
L 528.955899 282.231739 
L 529.554816 292.115896 
L 531.950485 287.299326 
L 532.549402 286.180816 
L 533.148319 285.943561 
L 533.747236 285.222914 
L 534.346153 285.396058 
L 534.94507 284.782094 
L 535.543987 286.301801 
L 536.142904 285.163439 
L 536.741821 285.482005 
L 537.939656 283.685786 
L 538.538573 287.546114 
L 539.13749 290.066148 
L 540.335324 287.495871 
L 540.934241 286.881225 
L 542.132075 284.812338 
L 542.730992 290.734379 
L 543.329909 289.551196 
L 543.928827 287.972687 
L 544.527744 288.173425 
L 545.725578 286.177791 
L 546.324495 285.406711 
L 546.923412 284.818428 
L 547.522329 284.391516 
L 548.720163 283.921849 
L 549.31908 293.91707 
L 549.917998 293.17947 
L 551.115832 290.598664 
L 551.714749 289.769871 
L 552.313666 288.664764 
L 552.912583 288.332506 
L 553.5115 288.60506 
L 554.110417 288.00098 
L 554.709334 289.533675 
L 555.308251 288.32471 
L 555.907169 289.90104 
L 556.506086 289.882176 
L 557.105003 289.462168 
L 558.302837 287.212552 
L 558.901754 290.350675 
L 559.500671 290.919902 
L 560.099588 289.434338 
L 560.698505 288.258381 
L 561.297422 289.38463 
L 561.89634 288.788204 
L 562.495257 287.821451 
L 563.094174 287.084871 
L 563.693091 293.648109 
L 564.292008 294.255769 
L 564.890925 292.346971 
L 565.489842 290.915473 
L 566.088759 289.89915 
L 566.687676 289.189266 
L 567.286593 288.695753 
L 568.484428 288.151361 
L 569.083345 290.538068 
L 569.682262 295.697533 
L 570.281179 295.63512 
L 570.880096 294.513594 
L 571.479013 293.021461 
L 572.07793 292.457607 
L 573.275764 289.784344 
L 573.874681 289.453984 
L 574.473599 288.131638 
L 575.072516 287.254171 
L 575.671433 287.87308 
L 576.27035 287.082584 
L 576.869267 287.533278 
L 577.468184 286.482687 
L 578.067101 286.356036 
L 578.666018 288.120875 
L 579.863852 285.915053 
L 580.46277 291.623088 
L 581.061687 290.630644 
L 581.660604 290.330209 
L 582.259521 289.360936 
L 583.457355 287.132755 
L 584.655189 285.594698 
L 585.853023 284.621796 
L 586.451941 292.251949 
L 587.050858 292.655228 
L 587.649775 291.038351 
L 588.248692 289.826143 
L 588.847609 288.933964 
L 590.045443 287.740609 
L 591.243277 287.092329 
L 592.441112 286.799919 
L 593.040029 294.519102 
L 593.638946 293.65931 
L 594.237863 292.235926 
L 594.83678 291.517959 
L 596.034614 289.311192 
L 596.633531 292.310047 
L 597.232448 291.598679 
L 598.430283 289.806375 
L 599.628117 288.685891 
L 600.227034 288.300296 
L 600.825951 295.960576 
L 601.424868 294.993545 
L 602.622702 292.153574 
L 603.221619 291.021928 
L 603.820536 294.765972 
L 605.018371 292.239901 
L 605.617288 292.873012 
L 606.216205 292.22582 
L 606.815122 291.383536 
L 607.414039 290.746886 
L 608.611873 289.963669 
L 609.809707 289.614319 
L 611.007542 289.541675 
L 611.606459 289.576399 
L 612.205376 296.351177 
L 612.804293 295.639697 
L 614.002127 292.228637 
L 614.601044 292.407156 
L 615.199961 291.007209 
L 615.798878 289.89527 
L 616.397796 289.162452 
L 616.996713 288.754518 
L 617.59563 288.637431 
L 618.194547 288.733408 
L 619.392381 289.25767 
L 621.788049 290.734642 
L 624.782635 292.530241 
L 626.579386 293.486437 
L 627.178303 293.382058 
L 627.77722 292.365891 
L 628.376138 291.742705 
L 628.975055 290.788386 
L 629.573972 290.401656 
L 630.172889 289.837917 
L 631.370723 288.277979 
L 631.96964 288.042325 
L 633.167474 287.205659 
L 633.766391 287.332288 
L 634.365308 286.854182 
L 634.964226 287.156386 
L 635.563143 286.714473 
L 636.16206 287.898293 
L 636.760977 287.597497 
L 637.958811 286.522493 
L 638.557728 289.329079 
L 639.156645 288.789737 
L 639.755562 288.021678 
L 640.354479 287.556984 
L 640.953397 290.133781 
L 641.552314 290.455446 
L 642.750148 288.770543 
L 643.349065 288.577721 
L 643.947982 288.093011 
L 644.546899 288.665201 
L 645.145816 288.206021 
L 645.744733 287.997997 
L 646.34365 290.128602 
L 647.541485 288.761568 
L 648.140402 289.571541 
L 648.739319 288.770145 
L 649.338236 289.690294 
L 649.937153 288.762717 
L 650.53607 290.436829 
L 651.134987 289.581251 
L 651.733904 290.968075 
L 652.931739 288.916045 
L 653.530656 290.263194 
L 654.72849 288.426611 
L 655.327407 291.345723 
L 655.926324 290.153951 
L 656.525241 290.578916 
L 657.124158 290.54142 
L 657.723075 289.457574 
L 658.321992 290.710464 
L 658.92091 289.746894 
L 659.519827 289.920406 
L 660.118744 291.806671 
L 660.717661 290.504043 
L 661.316578 290.862287 
L 661.915495 289.972203 
L 662.514412 291.097878 
L 663.712246 289.206324 
L 664.311163 294.900281 
L 664.910081 294.156201 
L 665.508998 292.605451 
L 666.107915 291.731982 
L 666.706832 290.647394 
L 667.305749 294.405548 
L 667.904666 294.496262 
L 668.503583 292.907642 
L 669.701417 290.709918 
L 670.300334 292.209196 
L 670.899252 291.106516 
L 671.498169 292.48467 
L 672.097086 291.367727 
L 672.696003 292.475775 
L 673.29492 292.841344 
L 673.893837 291.510277 
L 674.492754 292.660094 
L 675.091671 292.443378 
L 675.690588 291.21258 
L 676.289505 292.94746 
L 676.888423 291.640347 
L 677.48734 292.423941 
L 678.086257 291.320305 
L 678.685174 293.544937 
L 679.284091 293.546258 
L 679.284091 293.546258 
" clip-path="url(#pff9cd06d17)" style="fill: none; stroke: #ff7f0e; stroke-width: 1.5; stroke-linecap: square"/>
   </g>
   <g id="line2d_15">
    <path d="M 80.965909 279.190403 
L 81.564826 276.309086 
L 82.163743 275.400413 
L 83.361577 274.883758 
L 86.356163 273.947148 
L 90.548583 272.89761 
L 95.339919 271.960001 
L 96.537754 271.760511 
L 97.136671 272.806393 
L 97.735588 272.910789 
L 98.334505 272.828898 
L 98.933422 272.365492 
L 99.532339 271.581874 
L 100.131256 271.226106 
L 101.928008 270.749034 
L 107.917179 269.561329 
L 113.307432 268.693391 
L 118.697686 268.06273 
L 121.093355 267.846335 
L 121.692272 268.272957 
L 122.291189 268.37972 
L 124.08794 268.027225 
L 125.884692 267.581465 
L 126.483609 267.402979 
L 128.28036 266.55912 
L 130.077111 266.172432 
L 135.467365 265.367882 
L 142.055453 264.583914 
L 148.643541 264.037506 
L 149.841375 263.961267 
L 150.440293 264.443241 
L 151.638127 264.382466 
L 152.835961 264.181312 
L 154.033795 263.934187 
L 157.627298 263.678528 
L 167.808888 263.171775 
L 168.407806 263.312999 
L 169.006723 263.302517 
L 170.204557 263.02248 
L 175.594811 262.796259 
L 180.985065 262.576562 
L 181.583982 263.26651 
L 182.781816 263.178793 
L 187.573153 262.965302 
L 200.150412 262.510759 
L 200.749329 262.713574 
L 201.348246 262.639376 
L 201.947163 262.375354 
L 203.743914 262.233675 
L 228.299515 261.124335 
L 229.49735 260.646792 
L 231.294101 260.494142 
L 250.459448 259.594327 
L 251.058365 259.712489 
L 251.657282 259.944857 
L 252.855116 259.720305 
L 256.448619 259.576593 
L 263.635624 259.362566 
L 264.234541 259.65438 
L 264.833458 259.728251 
L 266.63021 259.467599 
L 269.624795 259.280168 
L 289.38906 258.480815 
L 289.987977 258.98205 
L 291.185811 258.739215 
L 292.383645 258.434765 
L 295.378231 258.253925 
L 299.57065 258.088571 
L 300.169567 258.479298 
L 300.768484 258.559961 
L 304.361987 257.941408 
L 307.95549 257.662693 
L 320.532749 256.997158 
L 321.131666 256.971396 
L 321.730583 257.738922 
L 330.115422 257.077655 
L 341.494847 256.805511 
L 342.093764 256.794695 
L 342.692681 257.249246 
L 352.874272 256.692285 
L 366.649365 256.239812 
L 367.847199 256.979098 
L 372.039619 256.422586 
L 378.02879 256.078462 
L 382.22121 255.878272 
L 382.820127 256.615825 
L 383.419044 256.676717 
L 386.41363 256.315847 
L 390.606049 256.044994 
L 406.177894 255.346715 
L 406.776811 255.323548 
L 407.375728 256.125211 
L 412.167065 255.59813 
L 422.348655 255.348601 
L 424.744324 255.54079 
L 425.942158 255.243859 
L 428.337826 255.0799 
L 437.9205 254.781742 
L 455.888013 254.445054 
L 456.48693 254.915381 
L 459.481516 254.740485 
L 460.080433 254.637079 
L 460.67935 254.691963 
L 461.278267 254.56052 
L 461.877184 254.638891 
L 463.075018 254.49918 
L 466.069604 254.181429 
L 472.058775 253.916762 
L 472.657692 253.897338 
L 473.256609 254.587744 
L 473.855526 254.934228 
L 478.646863 254.57972 
L 480.443614 254.464487 
L 481.042531 254.780215 
L 487.630619 254.268853 
L 493.020873 253.974135 
L 499.010044 253.105342 
L 499.608961 253.119231 
L 501.405713 252.772905 
L 502.00463 252.846254 
L 504.400298 252.352375 
L 504.999215 252.388399 
L 506.197049 252.081594 
L 506.795966 252.214136 
L 507.394884 252.168375 
L 509.191635 251.759692 
L 509.790552 251.843366 
L 512.18622 251.296348 
L 512.785137 251.432989 
L 513.982972 251.091507 
L 514.581889 251.171659 
L 515.180806 251.020383 
L 515.779723 251.009596 
L 517.576474 250.582525 
L 518.175391 250.670032 
L 519.972143 250.200191 
L 520.57106 250.605603 
L 522.966728 249.993359 
L 524.164562 249.841948 
L 524.763479 249.656472 
L 525.362396 249.976627 
L 527.758065 249.388942 
L 528.955899 249.03469 
L 529.554816 250.128688 
L 531.351567 249.699757 
L 533.747236 249.156704 
L 536.741821 248.782136 
L 537.939656 248.4387 
L 539.13749 249.022755 
L 541.533158 248.439631 
L 542.132075 248.267063 
L 542.730992 248.806414 
L 545.126661 248.298826 
L 547.522329 247.662591 
L 548.720163 247.405887 
L 549.31908 248.635381 
L 549.917998 248.673735 
L 554.110417 247.932238 
L 554.709334 248.032919 
L 555.308251 247.866012 
L 556.506086 247.873946 
L 557.70392 247.601709 
L 558.302837 247.434764 
L 558.901754 247.635089 
L 559.500671 247.653474 
L 560.698505 247.279958 
L 561.297422 247.280933 
L 563.094174 246.830763 
L 563.693091 247.413598 
L 564.292008 247.481193 
L 566.088759 246.899708 
L 568.484428 246.380189 
L 569.083345 246.517575 
L 569.682262 247.299512 
L 570.880096 247.156 
L 575.072516 246.227496 
L 575.671433 246.222894 
L 577.468184 245.842649 
L 578.067101 245.746058 
L 578.666018 245.848779 
L 579.863852 245.463534 
L 580.46277 245.962459 
L 584.056272 245.010929 
L 585.853023 244.548497 
L 586.451941 245.33798 
L 587.050858 245.378325 
L 588.847609 244.789435 
L 591.842194 244.110487 
L 592.441112 243.998042 
L 593.040029 245.045974 
L 595.435697 244.461223 
L 596.034614 244.297593 
L 596.633531 244.562358 
L 600.227034 243.700211 
L 600.825951 244.583552 
L 602.023785 244.266888 
L 603.221619 243.8982 
L 603.820536 244.280012 
L 605.018371 243.932512 
L 605.617288 243.942411 
L 611.606459 242.74116 
L 612.205376 243.725298 
L 612.804293 243.680586 
L 614.002127 243.285725 
L 614.601044 243.281935 
L 616.397796 242.819196 
L 618.793464 242.480424 
L 625.381552 241.912415 
L 626.579386 241.819932 
L 627.178303 242.347024 
L 627.77722 242.551845 
L 630.771806 241.961383 
L 633.167474 241.366525 
L 634.964226 241.004394 
L 635.563143 240.831674 
L 636.16206 240.840123 
L 637.958811 240.286885 
L 638.557728 240.483761 
L 640.354479 239.886238 
L 640.953397 240.074866 
L 641.552314 239.998046 
L 643.349065 239.402177 
L 643.947982 239.218926 
L 644.546899 239.159295 
L 645.744733 238.823875 
L 646.34365 238.935885 
L 647.541485 238.537143 
L 648.140402 238.509359 
L 648.739319 238.296578 
L 649.338236 238.293496 
L 649.937153 238.070331 
L 650.53607 238.132604 
L 651.134987 237.917082 
L 651.733904 237.963501 
L 652.931739 237.511013 
L 653.530656 237.550327 
L 654.72849 237.109759 
L 655.327407 237.317424 
L 655.926324 237.08478 
L 657.124158 236.918897 
L 657.723075 236.691127 
L 658.321992 236.718023 
L 658.92091 236.503552 
L 659.519827 236.409536 
L 660.118744 236.514812 
L 660.717661 236.272865 
L 661.316578 236.206444 
L 661.915495 236.005078 
L 662.514412 236.025297 
L 663.712246 235.600523 
L 664.311163 236.14648 
L 665.508998 235.769919 
L 666.706832 235.369088 
L 667.305749 235.657961 
L 667.904666 235.600284 
L 669.701417 234.937495 
L 670.300334 235.018494 
L 670.899252 234.801218 
L 671.498169 234.841817 
L 672.097086 234.628282 
L 673.29492 234.593699 
L 673.893837 234.358228 
L 674.492754 234.394033 
L 675.091671 234.288261 
L 675.690588 234.0604 
L 676.289505 234.15539 
L 676.888423 233.922994 
L 677.48734 233.925672 
L 678.086257 233.710273 
L 678.685174 233.835217 
L 679.284091 233.761614 
L 679.284091 233.761614 
" clip-path="url(#pff9cd06d17)" style="fill: none; stroke: #2ca02c; stroke-width: 1.5; stroke-linecap: square"/>
   </g>
   <g id="line2d_16">
    <path d="M 81.564826 318.04 
L 81.564826 25.44 
" clip-path="url(#pff9cd06d17)" style="fill: none; stroke-dasharray: 2.96,1.28; stroke-dashoffset: 0; stroke: #1f77b4; stroke-width: 0.8"/>
   </g>
   <g id="line2d_17">
    <path d="M 152.835961 318.04 
L 152.835961 25.44 
" clip-path="url(#pff9cd06d17)" style="fill: none; stroke-dasharray: 2.96,1.28; stroke-dashoffset: 0; stroke: #1f77b4; stroke-width: 0.8"/>
   </g>
   <g id="line2d_18">
    <path d="M 164.215386 318.04 
L 164.215386 25.44 
" clip-path="url(#pff9cd06d17)" style="fill: none; stroke-dasharray: 2.96,1.28; stroke-dashoffset: 0; stroke: #1f77b4; stroke-width: 0.8"/>
   </g>
   <g id="line2d_19">
    <path d="M 97.136671 318.04 
L 97.136671 25.44 
" clip-path="url(#pff9cd06d17)" style="fill: none; stroke-dasharray: 0.55,0.9075; stroke-dashoffset: 0; stroke: #ff0000; stroke-opacity: 0.35; stroke-width: 0.55"/>
   </g>
   <g id="line2d_20">
    <path d="M 121.692272 318.04 
L 121.692272 25.44 
" clip-path="url(#pff9cd06d17)" style="fill: none; stroke-dasharray: 0.55,0.9075; stroke-dashoffset: 0; stroke: #ff0000; stroke-opacity: 0.35; stroke-width: 0.55"/>
   </g>
   <g id="line2d_21">
    <path d="M 150.440293 318.04 
L 150.440293 25.44 
" clip-path="url(#pff9cd06d17)" style="fill: none; stroke-dasharray: 0.55,0.9075; stroke-dashoffset: 0; stroke: #ff0000; stroke-opacity: 0.35; stroke-width: 0.55"/>
   </g>
   <g id="line2d_22">
    <path d="M 168.407806 318.04 
L 168.407806 25.44 
" clip-path="url(#pff9cd06d17)" style="fill: none; stroke-dasharray: 0.55,0.9075; stroke-dashoffset: 0; stroke: #ff0000; stroke-opacity: 0.35; stroke-width: 0.55"/>
   </g>
   <g id="line2d_23">
    <path d="M 181.583982 318.04 
L 181.583982 25.44 
" clip-path="url(#pff9cd06d17)" style="fill: none; stroke-dasharray: 0.55,0.9075; stroke-dashoffset: 0; stroke: #ff0000; stroke-opacity: 0.35; stroke-width: 0.55"/>
   </g>
   <g id="line2d_24">
    <path d="M 200.749329 318.04 
L 200.749329 25.44 
" clip-path="url(#pff9cd06d17)" style="fill: none; stroke-dasharray: 0.55,0.9075; stroke-dashoffset: 0; stroke: #ff0000; stroke-opacity: 0.35; stroke-width: 0.55"/>
   </g>
   <g id="line2d_25">
    <path d="M 228.299515 318.04 
L 228.299515 25.44 
" clip-path="url(#pff9cd06d17)" style="fill: none; stroke-dasharray: 0.55,0.9075; stroke-dashoffset: 0; stroke: #ff0000; stroke-opacity: 0.35; stroke-width: 0.55"/>
   </g>
   <g id="line2d_26">
    <path d="M 251.058365 318.04 
L 251.058365 25.44 
" clip-path="url(#pff9cd06d17)" style="fill: none; stroke-dasharray: 0.55,0.9075; stroke-dashoffset: 0; stroke: #ff0000; stroke-opacity: 0.35; stroke-width: 0.55"/>
   </g>
   <g id="line2d_27">
    <path d="M 264.234541 318.04 
L 264.234541 25.44 
" clip-path="url(#pff9cd06d17)" style="fill: none; stroke-dasharray: 0.55,0.9075; stroke-dashoffset: 0; stroke: #ff0000; stroke-opacity: 0.35; stroke-width: 0.55"/>
   </g>
   <g id="line2d_28">
    <path d="M 289.987977 318.04 
L 289.987977 25.44 
" clip-path="url(#pff9cd06d17)" style="fill: none; stroke-dasharray: 0.55,0.9075; stroke-dashoffset: 0; stroke: #ff0000; stroke-opacity: 0.35; stroke-width: 0.55"/>
   </g>
   <g id="line2d_29">
    <path d="M 300.169567 318.04 
L 300.169567 25.44 
" clip-path="url(#pff9cd06d17)" style="fill: none; stroke-dasharray: 0.55,0.9075; stroke-dashoffset: 0; stroke: #ff0000; stroke-opacity: 0.35; stroke-width: 0.55"/>
   </g>
   <g id="line2d_30">
    <path d="M 321.131666 318.04 
L 321.131666 25.44 
" clip-path="url(#pff9cd06d17)" style="fill: none; stroke-dasharray: 0.55,0.9075; stroke-dashoffset: 0; stroke: #ff0000; stroke-opacity: 0.35; stroke-width: 0.55"/>
   </g>
   <g id="line2d_31">
    <path d="M 342.692681 318.04 
L 342.692681 25.44 
" clip-path="url(#pff9cd06d17)" style="fill: none; stroke-dasharray: 0.55,0.9075; stroke-dashoffset: 0; stroke: #ff0000; stroke-opacity: 0.35; stroke-width: 0.55"/>
   </g>
   <g id="line2d_32">
    <path d="M 367.248282 318.04 
L 367.248282 25.44 
" clip-path="url(#pff9cd06d17)" style="fill: none; stroke-dasharray: 0.55,0.9075; stroke-dashoffset: 0; stroke: #ff0000; stroke-opacity: 0.35; stroke-width: 0.55"/>
   </g>
   <g id="line2d_33">
    <path d="M 382.820127 318.04 
L 382.820127 25.44 
" clip-path="url(#pff9cd06d17)" style="fill: none; stroke-dasharray: 0.55,0.9075; stroke-dashoffset: 0; stroke: #ff0000; stroke-opacity: 0.35; stroke-width: 0.55"/>
   </g>
   <g id="line2d_34">
    <path d="M 407.375728 318.04 
L 407.375728 25.44 
" clip-path="url(#pff9cd06d17)" style="fill: none; stroke-dasharray: 0.55,0.9075; stroke-dashoffset: 0; stroke: #ff0000; stroke-opacity: 0.35; stroke-width: 0.55"/>
   </g>
   <g id="line2d_35">
    <path d="M 422.947573 318.04 
L 422.947573 25.44 
" clip-path="url(#pff9cd06d17)" style="fill: none; stroke-dasharray: 0.55,0.9075; stroke-dashoffset: 0; stroke: #ff0000; stroke-opacity: 0.35; stroke-width: 0.55"/>
   </g>
   <g id="line2d_36">
    <path d="M 456.48693 318.04 
L 456.48693 25.44 
" clip-path="url(#pff9cd06d17)" style="fill: none; stroke-dasharray: 0.55,0.9075; stroke-dashoffset: 0; stroke: #ff0000; stroke-opacity: 0.35; stroke-width: 0.55"/>
   </g>
   <g id="line2d_37">
    <path d="M 473.256609 318.04 
L 473.256609 25.44 
" clip-path="url(#pff9cd06d17)" style="fill: none; stroke-dasharray: 0.55,0.9075; stroke-dashoffset: 0; stroke: #ff0000; stroke-opacity: 0.35; stroke-width: 0.55"/>
   </g>
   <g id="line2d_38">
    <path d="M 489.427371 318.04 
L 489.427371 25.44 
" clip-path="url(#pff9cd06d17)" style="fill: none; stroke-dasharray: 0.55,0.9075; stroke-dashoffset: 0; stroke: #ff0000; stroke-opacity: 0.35; stroke-width: 0.55"/>
   </g>
   <g id="line2d_39">
    <path d="M 549.31908 318.04 
L 549.31908 25.44 
" clip-path="url(#pff9cd06d17)" style="fill: none; stroke-dasharray: 0.55,0.9075; stroke-dashoffset: 0; stroke: #ff0000; stroke-opacity: 0.35; stroke-width: 0.55"/>
   </g>
   <g id="line2d_40">
    <path d="M 563.693091 318.04 
L 563.693091 25.44 
" clip-path="url(#pff9cd06d17)" style="fill: none; stroke-dasharray: 0.55,0.9075; stroke-dashoffset: 0; stroke: #ff0000; stroke-opacity: 0.35; stroke-width: 0.55"/>
   </g>
   <g id="line2d_41">
    <path d="M 627.178303 318.04 
L 627.178303 25.44 
" clip-path="url(#pff9cd06d17)" style="fill: none; stroke-dasharray: 0.55,0.9075; stroke-dashoffset: 0; stroke: #ff0000; stroke-opacity: 0.35; stroke-width: 0.55"/>
   </g>
   <g id="line2d_42">
    <path d="M 667.305749 318.04 
L 667.305749 25.44 
" clip-path="url(#pff9cd06d17)" style="fill: none; stroke-dasharray: 0.55,0.9075; stroke-dashoffset: 0; stroke: #ff0000; stroke-opacity: 0.35; stroke-width: 0.55"/>
   </g>
   <g id="line2d_43">
    <path d="M 672.696003 318.04 
L 672.696003 25.44 
" clip-path="url(#pff9cd06d17)" style="fill: none; stroke-dasharray: 0.55,0.9075; stroke-dashoffset: 0; stroke: #ff0000; stroke-opacity: 0.35; stroke-width: 0.55"/>
   </g>
   <g id="line2d_44">
    <path d="M 678.685174 318.04 
L 678.685174 25.44 
" clip-path="url(#pff9cd06d17)" style="fill: none; stroke-dasharray: 0.55,0.9075; stroke-dashoffset: 0; stroke: #ff0000; stroke-opacity: 0.35; stroke-width: 0.55"/>
   </g>
   <g id="line2d_45">
    <path d="M 97.735588 318.04 
L 97.735588 25.44 
" clip-path="url(#pff9cd06d17)" style="fill: none; stroke-dasharray: 0.55,0.9075; stroke-dashoffset: 0; stroke: #800080; stroke-opacity: 0.35; stroke-width: 0.55"/>
   </g>
   <g id="line2d_46">
    <path d="M 124.686857 318.04 
L 124.686857 25.44 
" clip-path="url(#pff9cd06d17)" style="fill: none; stroke-dasharray: 0.55,0.9075; stroke-dashoffset: 0; stroke: #800080; stroke-opacity: 0.35; stroke-width: 0.55"/>
   </g>
   <g id="line2d_47">
    <path d="M 150.440293 318.04 
L 150.440293 25.44 
" clip-path="url(#pff9cd06d17)" style="fill: none; stroke-dasharray: 0.55,0.9075; stroke-dashoffset: 0; stroke: #800080; stroke-opacity: 0.35; stroke-width: 0.55"/>
   </g>
   <g id="line2d_48">
    <path d="M 168.407806 318.04 
L 168.407806 25.44 
" clip-path="url(#pff9cd06d17)" style="fill: none; stroke-dasharray: 0.55,0.9075; stroke-dashoffset: 0; stroke: #800080; stroke-opacity: 0.35; stroke-width: 0.55"/>
   </g>
   <g id="line2d_49">
    <path d="M 181.583982 318.04 
L 181.583982 25.44 
" clip-path="url(#pff9cd06d17)" style="fill: none; stroke-dasharray: 0.55,0.9075; stroke-dashoffset: 0; stroke: #800080; stroke-opacity: 0.35; stroke-width: 0.55"/>
   </g>
   <g id="line2d_50">
    <path d="M 200.749329 318.04 
L 200.749329 25.44 
" clip-path="url(#pff9cd06d17)" style="fill: none; stroke-dasharray: 0.55,0.9075; stroke-dashoffset: 0; stroke: #800080; stroke-opacity: 0.35; stroke-width: 0.55"/>
   </g>
   <g id="line2d_51">
    <path d="M 228.299515 318.04 
L 228.299515 25.44 
" clip-path="url(#pff9cd06d17)" style="fill: none; stroke-dasharray: 0.55,0.9075; stroke-dashoffset: 0; stroke: #800080; stroke-opacity: 0.35; stroke-width: 0.55"/>
   </g>
   <g id="line2d_52">
    <path d="M 251.058365 318.04 
L 251.058365 25.44 
" clip-path="url(#pff9cd06d17)" style="fill: none; stroke-dasharray: 0.55,0.9075; stroke-dashoffset: 0; stroke: #800080; stroke-opacity: 0.35; stroke-width: 0.55"/>
   </g>
   <g id="line2d_53">
    <path d="M 264.234541 318.04 
L 264.234541 25.44 
" clip-path="url(#pff9cd06d17)" style="fill: none; stroke-dasharray: 0.55,0.9075; stroke-dashoffset: 0; stroke: #800080; stroke-opacity: 0.35; stroke-width: 0.55"/>
   </g>
   <g id="line2d_54">
    <path d="M 289.987977 318.04 
L 289.987977 25.44 
" clip-path="url(#pff9cd06d17)" style="fill: none; stroke-dasharray: 0.55,0.9075; stroke-dashoffset: 0; stroke: #800080; stroke-opacity: 0.35; stroke-width: 0.55"/>
   </g>
   <g id="line2d_55">
    <path d="M 300.169567 318.04 
L 300.169567 25.44 
" clip-path="url(#pff9cd06d17)" style="fill: none; stroke-dasharray: 0.55,0.9075; stroke-dashoffset: 0; stroke: #800080; stroke-opacity: 0.35; stroke-width: 0.55"/>
   </g>
   <g id="line2d_56">
    <path d="M 321.131666 318.04 
L 321.131666 25.44 
" clip-path="url(#pff9cd06d17)" style="fill: none; stroke-dasharray: 0.55,0.9075; stroke-dashoffset: 0; stroke: #800080; stroke-opacity: 0.35; stroke-width: 0.55"/>
   </g>
   <g id="line2d_57">
    <path d="M 342.692681 318.04 
L 342.692681 25.44 
" clip-path="url(#pff9cd06d17)" style="fill: none; stroke-dasharray: 0.55,0.9075; stroke-dashoffset: 0; stroke: #800080; stroke-opacity: 0.35; stroke-width: 0.55"/>
   </g>
   <g id="line2d_58">
    <path d="M 367.248282 318.04 
L 367.248282 25.44 
" clip-path="url(#pff9cd06d17)" style="fill: none; stroke-dasharray: 0.55,0.9075; stroke-dashoffset: 0; stroke: #800080; stroke-opacity: 0.35; stroke-width: 0.55"/>
   </g>
   <g id="line2d_59">
    <path d="M 382.820127 318.04 
L 382.820127 25.44 
" clip-path="url(#pff9cd06d17)" style="fill: none; stroke-dasharray: 0.55,0.9075; stroke-dashoffset: 0; stroke: #800080; stroke-opacity: 0.35; stroke-width: 0.55"/>
   </g>
   <g id="line2d_60">
    <path d="M 407.375728 318.04 
L 407.375728 25.44 
" clip-path="url(#pff9cd06d17)" style="fill: none; stroke-dasharray: 0.55,0.9075; stroke-dashoffset: 0; stroke: #800080; stroke-opacity: 0.35; stroke-width: 0.55"/>
   </g>
   <g id="line2d_61">
    <path d="M 422.947573 318.04 
L 422.947573 25.44 
" clip-path="url(#pff9cd06d17)" style="fill: none; stroke-dasharray: 0.55,0.9075; stroke-dashoffset: 0; stroke: #800080; stroke-opacity: 0.35; stroke-width: 0.55"/>
   </g>
   <g id="line2d_62">
    <path d="M 456.48693 318.04 
L 456.48693 25.44 
" clip-path="url(#pff9cd06d17)" style="fill: none; stroke-dasharray: 0.55,0.9075; stroke-dashoffset: 0; stroke: #800080; stroke-opacity: 0.35; stroke-width: 0.55"/>
   </g>
   <g id="line2d_63">
    <path d="M 473.256609 318.04 
L 473.256609 25.44 
" clip-path="url(#pff9cd06d17)" style="fill: none; stroke-dasharray: 0.55,0.9075; stroke-dashoffset: 0; stroke: #800080; stroke-opacity: 0.35; stroke-width: 0.55"/>
   </g>
   <g id="line2d_64">
    <path d="M 489.427371 318.04 
L 489.427371 25.44 
" clip-path="url(#pff9cd06d17)" style="fill: none; stroke-dasharray: 0.55,0.9075; stroke-dashoffset: 0; stroke: #800080; stroke-opacity: 0.35; stroke-width: 0.55"/>
   </g>
   <g id="line2d_65">
    <path d="M 549.31908 318.04 
L 549.31908 25.44 
" clip-path="url(#pff9cd06d17)" style="fill: none; stroke-dasharray: 0.55,0.9075; stroke-dashoffset: 0; stroke: #800080; stroke-opacity: 0.35; stroke-width: 0.55"/>
   </g>
   <g id="line2d_66">
    <path d="M 569.682262 318.04 
L 569.682262 25.44 
" clip-path="url(#pff9cd06d17)" style="fill: none; stroke-dasharray: 0.55,0.9075; stroke-dashoffset: 0; stroke: #800080; stroke-opacity: 0.35; stroke-width: 0.55"/>
   </g>
   <g id="line2d_67">
    <path d="M 627.178303 318.04 
L 627.178303 25.44 
" clip-path="url(#pff9cd06d17)" style="fill: none; stroke-dasharray: 0.55,0.9075; stroke-dashoffset: 0; stroke: #800080; stroke-opacity: 0.35; stroke-width: 0.55"/>
   </g>
   <g id="line2d_68">
    <path d="M 667.305749 318.04 
L 667.305749 25.44 
" clip-path="url(#pff9cd06d17)" style="fill: none; stroke-dasharray: 0.55,0.9075; stroke-dashoffset: 0; stroke: #800080; stroke-opacity: 0.35; stroke-width: 0.55"/>
   </g>
   <g id="line2d_69">
    <path d="M 672.696003 318.04 
L 672.696003 25.44 
" clip-path="url(#pff9cd06d17)" style="fill: none; stroke-dasharray: 0.55,0.9075; stroke-dashoffset: 0; stroke: #800080; stroke-opacity: 0.35; stroke-width: 0.55"/>
   </g>
   <g id="line2d_70">
    <path d="M 678.685174 318.04 
L 678.685174 25.44 
" clip-path="url(#pff9cd06d17)" style="fill: none; stroke-dasharray: 0.55,0.9075; stroke-dashoffset: 0; stroke: #800080; stroke-opacity: 0.35; stroke-width: 0.55"/>
   </g>
   <g id="line2d_71">
    <path d="M 99.532339 318.04 
L 99.532339 25.44 
" clip-path="url(#pff9cd06d17)" style="fill: none; stroke-dasharray: 0.55,0.9075; stroke-dashoffset: 0; stroke: #008000; stroke-opacity: 0.35; stroke-width: 0.55"/>
   </g>
   <g id="line2d_72">
    <path d="M 128.28036 318.04 
L 128.28036 25.44 
" clip-path="url(#pff9cd06d17)" style="fill: none; stroke-dasharray: 0.55,0.9075; stroke-dashoffset: 0; stroke: #008000; stroke-opacity: 0.35; stroke-width: 0.55"/>
   </g>
   <g id="line2d_73">
    <path d="M 153.434878 318.04 
L 153.434878 25.44 
" clip-path="url(#pff9cd06d17)" style="fill: none; stroke-dasharray: 0.55,0.9075; stroke-dashoffset: 0; stroke: #008000; stroke-opacity: 0.35; stroke-width: 0.55"/>
   </g>
   <g id="line2d_74">
    <path d="M 170.204557 318.04 
L 170.204557 25.44 
" clip-path="url(#pff9cd06d17)" style="fill: none; stroke-dasharray: 0.55,0.9075; stroke-dashoffset: 0; stroke: #008000; stroke-opacity: 0.35; stroke-width: 0.55"/>
   </g>
   <g id="line2d_75">
    <path d="M 172.600225 318.04 
L 172.600225 25.44 
" clip-path="url(#pff9cd06d17)" style="fill: none; stroke-dasharray: 0.55,0.9075; stroke-dashoffset: 0; stroke: #008000; stroke-opacity: 0.35; stroke-width: 0.55"/>
   </g>
   <g id="line2d_76">
    <path d="M 182.781816 318.04 
L 182.781816 25.44 
" clip-path="url(#pff9cd06d17)" style="fill: none; stroke-dasharray: 0.55,0.9075; stroke-dashoffset: 0; stroke: #008000; stroke-opacity: 0.35; stroke-width: 0.55"/>
   </g>
   <g id="line2d_77">
    <path d="M 183.380733 318.04 
L 183.380733 25.44 
" clip-path="url(#pff9cd06d17)" style="fill: none; stroke-dasharray: 0.55,0.9075; stroke-dashoffset: 0; stroke: #008000; stroke-opacity: 0.35; stroke-width: 0.55"/>
   </g>
   <g id="line2d_78">
    <path d="M 201.947163 318.04 
L 201.947163 25.44 
" clip-path="url(#pff9cd06d17)" style="fill: none; stroke-dasharray: 0.55,0.9075; stroke-dashoffset: 0; stroke: #008000; stroke-opacity: 0.35; stroke-width: 0.55"/>
   </g>
   <g id="line2d_79">
    <path d="M 229.49735 318.04 
L 229.49735 25.44 
" clip-path="url(#pff9cd06d17)" style="fill: none; stroke-dasharray: 0.55,0.9075; stroke-dashoffset: 0; stroke: #008000; stroke-opacity: 0.35; stroke-width: 0.55"/>
   </g>
   <g id="line2d_80">
    <path d="M 230.695184 318.04 
L 230.695184 25.44 
" clip-path="url(#pff9cd06d17)" style="fill: none; stroke-dasharray: 0.55,0.9075; stroke-dashoffset: 0; stroke: #008000; stroke-opacity: 0.35; stroke-width: 0.55"/>
   </g>
   <g id="line2d_81">
    <path d="M 252.855116 318.04 
L 252.855116 25.44 
" clip-path="url(#pff9cd06d17)" style="fill: none; stroke-dasharray: 0.55,0.9075; stroke-dashoffset: 0; stroke: #008000; stroke-opacity: 0.35; stroke-width: 0.55"/>
   </g>
   <g id="line2d_82">
    <path d="M 255.849702 318.04 
L 255.849702 25.44 
" clip-path="url(#pff9cd06d17)" style="fill: none; stroke-dasharray: 0.55,0.9075; stroke-dashoffset: 0; stroke: #008000; stroke-opacity: 0.35; stroke-width: 0.55"/>
   </g>
   <g id="line2d_83">
    <path d="M 266.63021 318.04 
L 266.63021 25.44 
" clip-path="url(#pff9cd06d17)" style="fill: none; stroke-dasharray: 0.55,0.9075; stroke-dashoffset: 0; stroke: #008000; stroke-opacity: 0.35; stroke-width: 0.55"/>
   </g>
   <g id="line2d_84">
    <path d="M 267.828044 318.04 
L 267.828044 25.44 
" clip-path="url(#pff9cd06d17)" style="fill: none; stroke-dasharray: 0.55,0.9075; stroke-dashoffset: 0; stroke: #008000; stroke-opacity: 0.35; stroke-width: 0.55"/>
   </g>
   <g id="line2d_85">
    <path d="M 292.383645 318.04 
L 292.383645 25.44 
" clip-path="url(#pff9cd06d17)" style="fill: none; stroke-dasharray: 0.55,0.9075; stroke-dashoffset: 0; stroke: #008000; stroke-opacity: 0.35; stroke-width: 0.55"/>
   </g>
   <g id="line2d_86">
    <path d="M 297.773899 318.04 
L 297.773899 25.44 
" clip-path="url(#pff9cd06d17)" style="fill: none; stroke-dasharray: 0.55,0.9075; stroke-dashoffset: 0; stroke: #008000; stroke-opacity: 0.35; stroke-width: 0.55"/>
   </g>
   <g id="line2d_87">
    <path d="M 304.361987 318.04 
L 304.361987 25.44 
" clip-path="url(#pff9cd06d17)" style="fill: none; stroke-dasharray: 0.55,0.9075; stroke-dashoffset: 0; stroke: #008000; stroke-opacity: 0.35; stroke-width: 0.55"/>
   </g>
   <g id="line2d_88">
    <path d="M 325.324085 318.04 
L 325.324085 25.44 
" clip-path="url(#pff9cd06d17)" style="fill: none; stroke-dasharray: 0.55,0.9075; stroke-dashoffset: 0; stroke: #008000; stroke-opacity: 0.35; stroke-width: 0.55"/>
   </g>
   <g id="line2d_89">
    <path d="M 335.505676 318.04 
L 335.505676 25.44 
" clip-path="url(#pff9cd06d17)" style="fill: none; stroke-dasharray: 0.55,0.9075; stroke-dashoffset: 0; stroke: #008000; stroke-opacity: 0.35; stroke-width: 0.55"/>
   </g>
   <g id="line2d_90">
    <path d="M 345.687267 318.04 
L 345.687267 25.44 
" clip-path="url(#pff9cd06d17)" style="fill: none; stroke-dasharray: 0.55,0.9075; stroke-dashoffset: 0; stroke: #008000; stroke-opacity: 0.35; stroke-width: 0.55"/>
   </g>
   <g id="line2d_91">
    <path d="M 370.841785 318.04 
L 370.841785 25.44 
" clip-path="url(#pff9cd06d17)" style="fill: none; stroke-dasharray: 0.55,0.9075; stroke-dashoffset: 0; stroke: #008000; stroke-opacity: 0.35; stroke-width: 0.55"/>
   </g>
   <g id="line2d_92">
    <path d="M 386.41363 318.04 
L 386.41363 25.44 
" clip-path="url(#pff9cd06d17)" style="fill: none; stroke-dasharray: 0.55,0.9075; stroke-dashoffset: 0; stroke: #008000; stroke-opacity: 0.35; stroke-width: 0.55"/>
   </g>
   <g id="line2d_93">
    <path d="M 404.381143 318.04 
L 404.381143 25.44 
" clip-path="url(#pff9cd06d17)" style="fill: none; stroke-dasharray: 0.55,0.9075; stroke-dashoffset: 0; stroke: #008000; stroke-opacity: 0.35; stroke-width: 0.55"/>
   </g>
   <g id="line2d_94">
    <path d="M 410.370313 318.04 
L 410.370313 25.44 
" clip-path="url(#pff9cd06d17)" style="fill: none; stroke-dasharray: 0.55,0.9075; stroke-dashoffset: 0; stroke: #008000; stroke-opacity: 0.35; stroke-width: 0.55"/>
   </g>
   <g id="line2d_95">
    <path d="M 426.541075 318.04 
L 426.541075 25.44 
" clip-path="url(#pff9cd06d17)" style="fill: none; stroke-dasharray: 0.55,0.9075; stroke-dashoffset: 0; stroke: #008000; stroke-opacity: 0.35; stroke-width: 0.55"/>
   </g>
   <g id="line2d_96">
    <path d="M 464.272852 318.04 
L 464.272852 25.44 
" clip-path="url(#pff9cd06d17)" style="fill: none; stroke-dasharray: 0.55,0.9075; stroke-dashoffset: 0; stroke: #008000; stroke-opacity: 0.35; stroke-width: 0.55"/>
   </g>
   <g id="line2d_97">
    <path d="M 484.037117 318.04 
L 484.037117 25.44 
" clip-path="url(#pff9cd06d17)" style="fill: none; stroke-dasharray: 0.55,0.9075; stroke-dashoffset: 0; stroke: #008000; stroke-opacity: 0.35; stroke-width: 0.55"/>
   </g>
   <g id="line2d_98">
    <path d="M 546.923412 318.04 
L 546.923412 25.44 
" clip-path="url(#pff9cd06d17)" style="fill: none; stroke-dasharray: 0.55,0.9075; stroke-dashoffset: 0; stroke: #008000; stroke-opacity: 0.35; stroke-width: 0.55"/>
   </g>
   <g id="line2d_99">
    <path d="M 561.89634 318.04 
L 561.89634 25.44 
" clip-path="url(#pff9cd06d17)" style="fill: none; stroke-dasharray: 0.55,0.9075; stroke-dashoffset: 0; stroke: #008000; stroke-opacity: 0.35; stroke-width: 0.55"/>
   </g>
   <g id="line2d_100">
    <path d="M 617.59563 318.04 
L 617.59563 25.44 
" clip-path="url(#pff9cd06d17)" style="fill: none; stroke-dasharray: 0.55,0.9075; stroke-dashoffset: 0; stroke: #008000; stroke-opacity: 0.35; stroke-width: 0.55"/>
   </g>
   <g id="line2d_101">
    <path d="M 665.508998 318.04 
L 665.508998 25.44 
" clip-path="url(#pff9cd06d17)" style="fill: none; stroke-dasharray: 0.55,0.9075; stroke-dashoffset: 0; stroke: #008000; stroke-opacity: 0.35; stroke-width: 0.55"/>
   </g>
   <g id="line2d_102">
    <path d="M 670.300334 318.04 
L 670.300334 25.44 
" clip-path="url(#pff9cd06d17)" style="fill: none; stroke-dasharray: 0.55,0.9075; stroke-dashoffset: 0; stroke: #008000; stroke-opacity: 0.35; stroke-width: 0.55"/>
   </g>
   <g id="line2d_103">
    <path d="M 675.091671 318.04 
L 675.091671 25.44 
" clip-path="url(#pff9cd06d17)" style="fill: none; stroke-dasharray: 0.55,0.9075; stroke-dashoffset: 0; stroke: #008000; stroke-opacity: 0.35; stroke-width: 0.55"/>
   </g>
   <g id="patch_3">
    <path d="M 51.05 318.04 
L 51.05 25.44 
" style="fill: none; stroke: #000000; stroke-width: 0.8; stroke-linejoin: miter; stroke-linecap: square"/>
   </g>
   <g id="patch_4">
    <path d="M 709.2 318.04 
L 709.2 25.44 
" style="fill: none; stroke: #000000; stroke-width: 0.8; stroke-linejoin: miter; stroke-linecap: square"/>
   </g>
   <g id="patch_5">
    <path d="M 51.05 318.04 
L 709.2 318.04 
" style="fill: none; stroke: #000000; stroke-width: 0.8; stroke-linejoin: miter; stroke-linecap: square"/>
   </g>
   <g id="patch_6">
    <path d="M 51.05 25.44 
L 709.2 25.44 
" style="fill: none; stroke: #000000; stroke-width: 0.8; stroke-linejoin: miter; stroke-linecap: square"/>
   </g>
   <g id="text_15">
    <!-- Parameter L2 norms — c6434d8a -->
    <g transform="translate(279.444063 19.44) scale(0.12 -0.12)">
     <defs>
      <path id="DejaVuSans-50" d="M 1259 4147 
L 1259 2394 
L 2053 2394 
Q 2494 2394 2734 2622 
Q 2975 2850 2975 3272 
Q 2975 3691 2734 3919 
Q 2494 4147 2053 4147 
L 1259 4147 
z
M 628 4666 
L 2053 4666 
Q 2838 4666 3239 4311 
Q 3641 3956 3641 3272 
Q 3641 2581 3239 2228 
Q 2838 1875 2053 1875 
L 1259 1875 
L 1259 0 
L 628 0 
L 628 4666 
z
" transform="scale(0.015625)"/>
      <path id="DejaVuSans-61" d="M 2194 1759 
Q 1497 1759 1228 1600 
Q 959 1441 959 1056 
Q 959 750 1161 570 
Q 1363 391 1709 391 
Q 2188 391 2477 730 
Q 2766 1069 2766 1631 
L 2766 1759 
L 2194 1759 
z
M 3341 1997 
L 3341 0 
L 2766 0 
L 2766 531 
Q 2569 213 2275 61 
Q 1981 -91 1556 -91 
Q 1019 -91 701 211 
Q 384 513 384 1019 
Q 384 1609 779 1909 
Q 1175 2209 1959 2209 
L 2766 2209 
L 2766 2266 
Q 2766 2663 2505 2880 
Q 2244 3097 1772 3097 
Q 1472 3097 1187 3025 
Q 903 2953 641 2809 
L 641 3341 
Q 956 3463 1253 3523 
Q 1550 3584 1831 3584 
Q 2591 3584 2966 3190 
Q 3341 2797 3341 1997 
z
" transform="scale(0.015625)"/>
      <path id="DejaVuSans-2014" d="M 313 1978 
L 6088 1978 
L 6088 1528 
L 313 1528 
L 313 1978 
z
" transform="scale(0.015625)"/>
      <path id="DejaVuSans-63" d="M 3122 3366 
L 3122 2828 
Q 2878 2963 2633 3030 
Q 2388 3097 2138 3097 
Q 1578 3097 1268 2742 
Q 959 2388 959 1747 
Q 959 1106 1268 751 
Q 1578 397 2138 397 
Q 2388 397 2633 464 
Q 2878 531 3122 666 
L 3122 134 
Q 2881 22 2623 -34 
Q 2366 -91 2075 -91 
Q 1284 -91 818 406 
Q 353 903 353 1747 
Q 353 2603 823 3093 
Q 1294 3584 2113 3584 
Q 2378 3584 2631 3529 
Q 2884 3475 3122 3366 
z
" transform="scale(0.015625)"/>
      <path id="DejaVuSans-64" d="M 2906 2969 
L 2906 4863 
L 3481 4863 
L 3481 0 
L 2906 0 
L 2906 525 
Q 2725 213 2448 61 
Q 2172 -91 1784 -91 
Q 1150 -91 751 415 
Q 353 922 353 1747 
Q 353 2572 751 3078 
Q 1150 3584 1784 3584 
Q 2172 3584 2448 3432 
Q 2725 3281 2906 2969 
z
M 947 1747 
Q 947 1113 1208 752 
Q 1469 391 1925 391 
Q 2381 391 2643 752 
Q 2906 1113 2906 1747 
Q 2906 2381 2643 2742 
Q 2381 3103 1925 3103 
Q 1469 3103 1208 2742 
Q 947 2381 947 1747 
z
" transform="scale(0.015625)"/>
     </defs>
     <use xlink:href="#DejaVuSans-50"/>
     <use xlink:href="#DejaVuSans-61" transform="translate(55.802734 0)"/>
     <use xlink:href="#DejaVuSans-72" transform="translate(117.082031 0)"/>
     <use xlink:href="#DejaVuSans-61" transform="translate(158.195312 0)"/>
     <use xlink:href="#DejaVuSans-6d" transform="translate(219.474609 0)"/>
     <use xlink:href="#DejaVuSans-65" transform="translate(316.886719 0)"/>
     <use xlink:href="#DejaVuSans-74" transform="translate(378.410156 0)"/>
     <use xlink:href="#DejaVuSans-65" transform="translate(417.619141 0)"/>
     <use xlink:href="#DejaVuSans-72" transform="translate(479.142578 0)"/>
     <use xlink:href="#DejaVuSans-20" transform="translate(520.255859 0)"/>
     <use xlink:href="#DejaVuSans-4c" transform="translate(552.042969 0)"/>
     <use xlink:href="#DejaVuSans-32" transform="translate(607.755859 0)"/>
     <use xlink:href="#DejaVuSans-20" transform="translate(671.378906 0)"/>
     <use xlink:href="#DejaVuSans-6e" transform="translate(703.166016 0)"/>
     <use xlink:href="#DejaVuSans-6f" transform="translate(766.544922 0)"/>
     <use xlink:href="#DejaVuSans-72" transform="translate(827.726562 0)"/>
     <use xlink:href="#DejaVuSans-6d" transform="translate(867.089844 0)"/>
     <use xlink:href="#DejaVuSans-73" transform="translate(964.501953 0)"/>
     <use xlink:href="#DejaVuSans-20" transform="translate(1016.601562 0)"/>
     <use xlink:href="#DejaVuSans-2014" transform="translate(1048.388672 0)"/>
     <use xlink:href="#DejaVuSans-20" transform="translate(1148.388672 0)"/>
     <use xlink:href="#DejaVuSans-63" transform="translate(1180.175781 0)"/>
     <use xlink:href="#DejaVuSans-36" transform="translate(1235.15625 0)"/>
     <use xlink:href="#DejaVuSans-34" transform="translate(1298.779297 0)"/>
     <use xlink:href="#DejaVuSans-33" transform="translate(1362.402344 0)"/>
     <use xlink:href="#DejaVuSans-34" transform="translate(1426.025391 0)"/>
     <use xlink:href="#DejaVuSans-64" transform="translate(1489.648438 0)"/>
     <use xlink:href="#DejaVuSans-38" transform="translate(1553.125 0)"/>
     <use xlink:href="#DejaVuSans-61" transform="translate(1616.748047 0)"/>
    </g>
   </g>
   <g id="legend_1">
    <g id="patch_7">
     <path d="M 458.252242 94.396781 
L 703.369 94.396781 
Q 705.035 94.396781 705.035 92.730781 
L 705.035 31.271 
Q 705.035 29.605 703.369 29.605 
L 458.252242 29.605 
Q 456.586242 29.605 456.586242 31.271 
L 456.586242 92.730781 
Q 456.586242 94.396781 458.252242 94.396781 
z
" style="fill: #ffffff; opacity: 0.8; stroke: #cccccc; stroke-linejoin: miter"/>
    </g>
    <g id="line2d_104">
     <path d="M 459.918242 36.350998 
L 468.248242 36.350998 
L 476.578242 36.350998 
" style="fill: none; stroke: #1f77b4; stroke-width: 1.5; stroke-linecap: square"/>
    </g>
    <g id="text_16">
     <!-- parameter_norm_total -->
     <g transform="translate(483.242242 39.266498) scale(0.0833 -0.0833)">
      <defs>
       <path id="DejaVuSans-5f" d="M 3263 -1063 
L 3263 -1509 
L -63 -1509 
L -63 -1063 
L 3263 -1063 
z
" transform="scale(0.015625)"/>
       <path id="DejaVuSans-6c" d="M 603 4863 
L 1178 4863 
L 1178 0 
L 603 0 
L 603 4863 
z
" transform="scale(0.015625)"/>
      </defs>
      <use xlink:href="#DejaVuSans-70"/>
      <use xlink:href="#DejaVuSans-61" transform="translate(63.476562 0)"/>
      <use xlink:href="#DejaVuSans-72" transform="translate(124.755859 0)"/>
      <use xlink:href="#DejaVuSans-61" transform="translate(165.869141 0)"/>
      <use xlink:href="#DejaVuSans-6d" transform="translate(227.148438 0)"/>
      <use xlink:href="#DejaVuSans-65" transform="translate(324.560547 0)"/>
      <use xlink:href="#DejaVuSans-74" transform="translate(386.083984 0)"/>
      <use xlink:href="#DejaVuSans-65" transform="translate(425.292969 0)"/>
      <use xlink:href="#DejaVuSans-72" transform="translate(486.816406 0)"/>
      <use xlink:href="#DejaVuSans-5f" transform="translate(527.929688 0)"/>
      <use xlink:href="#DejaVuSans-6e" transform="translate(577.929688 0)"/>
      <use xlink:href="#DejaVuSans-6f" transform="translate(641.308594 0)"/>
      <use xlink:href="#DejaVuSans-72" transform="translate(702.490234 0)"/>
      <use xlink:href="#DejaVuSans-6d" transform="translate(741.853516 0)"/>
      <use xlink:href="#DejaVuSans-5f" transform="translate(839.265625 0)"/>
      <use xlink:href="#DejaVuSans-74" transform="translate(889.265625 0)"/>
      <use xlink:href="#DejaVuSans-6f" transform="translate(928.474609 0)"/>
      <use xlink:href="#DejaVuSans-74" transform="translate(989.65625 0)"/>
      <use xlink:href="#DejaVuSans-61" transform="translate(1028.865234 0)"/>
      <use xlink:href="#DejaVuSans-6c" transform="translate(1090.144531 0)"/>
     </g>
    </g>
    <g id="line2d_105">
     <path d="M 459.918242 48.809555 
L 468.248242 48.809555 
L 476.578242 48.809555 
" style="fill: none; stroke: #ff7f0e; stroke-width: 1.5; stroke-linecap: square"/>
    </g>
    <g id="text_17">
     <!-- parameter_group_norm_decay -->
     <g transform="translate(483.242242 51.725055) scale(0.0833 -0.0833)">
      <defs>
       <path id="DejaVuSans-67" d="M 2906 1791 
Q 2906 2416 2648 2759 
Q 2391 3103 1925 3103 
Q 1463 3103 1205 2759 
Q 947 2416 947 1791 
Q 947 1169 1205 825 
Q 1463 481 1925 481 
Q 2391 481 2648 825 
Q 2906 1169 2906 1791 
z
M 3481 434 
Q 3481 -459 3084 -895 
Q 2688 -1331 1869 -1331 
Q 1566 -1331 1297 -1286 
Q 1028 -1241 775 -1147 
L 775 -588 
Q 1028 -725 1275 -790 
Q 1522 -856 1778 -856 
Q 2344 -856 2625 -561 
Q 2906 -266 2906 331 
L 2906 616 
Q 2728 306 2450 153 
Q 2172 0 1784 0 
Q 1141 0 747 490 
Q 353 981 353 1791 
Q 353 2603 747 3093 
Q 1141 3584 1784 3584 
Q 2172 3584 2450 3431 
Q 2728 3278 2906 2969 
L 2906 3500 
L 3481 3500 
L 3481 434 
z
" transform="scale(0.015625)"/>
       <path id="DejaVuSans-79" d="M 2059 -325 
Q 1816 -950 1584 -1140 
Q 1353 -1331 966 -1331 
L 506 -1331 
L 506 -850 
L 844 -850 
Q 1081 -850 1212 -737 
Q 1344 -625 1503 -206 
L 1606 56 
L 191 3500 
L 800 3500 
L 1894 763 
L 2988 3500 
L 3597 3500 
L 2059 -325 
z
" transform="scale(0.015625)"/>
      </defs>
      <use xlink:href="#DejaVuSans-70"/>
      <use xlink:href="#DejaVuSans-61" transform="translate(63.476562 0)"/>
      <use xlink:href="#DejaVuSans-72" transform="translate(124.755859 0)"/>
      <use xlink:href="#DejaVuSans-61" transform="translate(165.869141 0)"/>
      <use xlink:href="#DejaVuSans-6d" transform="translate(227.148438 0)"/>
      <use xlink:href="#DejaVuSans-65" transform="translate(324.560547 0)"/>
      <use xlink:href="#DejaVuSans-74" transform="translate(386.083984 0)"/>
      <use xlink:href="#DejaVuSans-65" transform="translate(425.292969 0)"/>
      <use xlink:href="#DejaVuSans-72" transform="translate(486.816406 0)"/>
      <use xlink:href="#DejaVuSans-5f" transform="translate(527.929688 0)"/>
      <use xlink:href="#DejaVuSans-67" transform="translate(577.929688 0)"/>
      <use xlink:href="#DejaVuSans-72" transform="translate(641.40625 0)"/>
      <use xlink:href="#DejaVuSans-6f" transform="translate(680.269531 0)"/>
      <use xlink:href="#DejaVuSans-75" transform="translate(741.451172 0)"/>
      <use xlink:href="#DejaVuSans-70" transform="translate(804.830078 0)"/>
      <use xlink:href="#DejaVuSans-5f" transform="translate(868.306641 0)"/>
      <use xlink:href="#DejaVuSans-6e" transform="translate(918.306641 0)"/>
      <use xlink:href="#DejaVuSans-6f" transform="translate(981.685547 0)"/>
      <use xlink:href="#DejaVuSans-72" transform="translate(1042.867188 0)"/>
      <use xlink:href="#DejaVuSans-6d" transform="translate(1082.230469 0)"/>
      <use xlink:href="#DejaVuSans-5f" transform="translate(1179.642578 0)"/>
      <use xlink:href="#DejaVuSans-64" transform="translate(1229.642578 0)"/>
      <use xlink:href="#DejaVuSans-65" transform="translate(1293.119141 0)"/>
      <use xlink:href="#DejaVuSans-63" transform="translate(1354.642578 0)"/>
      <use xlink:href="#DejaVuSans-61" transform="translate(1409.623047 0)"/>
      <use xlink:href="#DejaVuSans-79" transform="translate(1470.902344 0)"/>
     </g>
    </g>
    <g id="line2d_106">
     <path d="M 459.918242 61.268111 
L 468.248242 61.268111 
L 476.578242 61.268111 
" style="fill: none; stroke: #2ca02c; stroke-width: 1.5; stroke-linecap: square"/>
    </g>
    <g id="text_18">
     <!-- parameter_group_norm_no_decay -->
     <g transform="translate(483.242242 64.183611) scale(0.0833 -0.0833)">
      <use xlink:href="#DejaVuSans-70"/>
      <use xlink:href="#DejaVuSans-61" transform="translate(63.476562 0)"/>
      <use xlink:href="#DejaVuSans-72" transform="translate(124.755859 0)"/>
      <use xlink:href="#DejaVuSans-61" transform="translate(165.869141 0)"/>
      <use xlink:href="#DejaVuSans-6d" transform="translate(227.148438 0)"/>
      <use xlink:href="#DejaVuSans-65" transform="translate(324.560547 0)"/>
      <use xlink:href="#DejaVuSans-74" transform="translate(386.083984 0)"/>
      <use xlink:href="#DejaVuSans-65" transform="translate(425.292969 0)"/>
      <use xlink:href="#DejaVuSans-72" transform="translate(486.816406 0)"/>
      <use xlink:href="#DejaVuSans-5f" transform="translate(527.929688 0)"/>
      <use xlink:href="#DejaVuSans-67" transform="translate(577.929688 0)"/>
      <use xlink:href="#DejaVuSans-72" transform="translate(641.40625 0)"/>
      <use xlink:href="#DejaVuSans-6f" transform="translate(680.269531 0)"/>
      <use xlink:href="#DejaVuSans-75" transform="translate(741.451172 0)"/>
      <use xlink:href="#DejaVuSans-70" transform="translate(804.830078 0)"/>
      <use xlink:href="#DejaVuSans-5f" transform="translate(868.306641 0)"/>
      <use xlink:href="#DejaVuSans-6e" transform="translate(918.306641 0)"/>
      <use xlink:href="#DejaVuSans-6f" transform="translate(981.685547 0)"/>
      <use xlink:href="#DejaVuSans-72" transform="translate(1042.867188 0)"/>
      <use xlink:href="#DejaVuSans-6d" transform="translate(1082.230469 0)"/>
      <use xlink:href="#DejaVuSans-5f" transform="translate(1179.642578 0)"/>
      <use xlink:href="#DejaVuSans-6e" transform="translate(1229.642578 0)"/>
      <use xlink:href="#DejaVuSans-6f" transform="translate(1293.021484 0)"/>
      <use xlink:href="#DejaVuSans-5f" transform="translate(1354.203125 0)"/>
      <use xlink:href="#DejaVuSans-64" transform="translate(1404.203125 0)"/>
      <use xlink:href="#DejaVuSans-65" transform="translate(1467.679688 0)"/>
      <use xlink:href="#DejaVuSans-63" transform="translate(1529.203125 0)"/>
      <use xlink:href="#DejaVuSans-61" transform="translate(1584.183594 0)"/>
      <use xlink:href="#DejaVuSans-79" transform="translate(1645.462891 0)"/>
     </g>
    </g>
    <g id="line2d_107">
     <path d="M 459.918242 73.726667 
L 468.248242 73.726667 
L 476.578242 73.726667 
" style="fill: none; stroke-dasharray: 2.96,1.28; stroke-dashoffset: 0; stroke: #1f77b4; stroke-width: 0.8"/>
    </g>
    <g id="text_19">
     <!-- t_fit -->
     <g transform="translate(483.242242 76.642167) scale(0.0833 -0.0833)">
      <defs>
       <path id="DejaVuSans-66" d="M 2375 4863 
L 2375 4384 
L 1825 4384 
Q 1516 4384 1395 4259 
Q 1275 4134 1275 3809 
L 1275 3500 
L 2222 3500 
L 2222 3053 
L 1275 3053 
L 1275 0 
L 697 0 
L 697 3053 
L 147 3053 
L 147 3500 
L 697 3500 
L 697 3744 
Q 697 4328 969 4595 
Q 1241 4863 1831 4863 
L 2375 4863 
z
" transform="scale(0.015625)"/>
      </defs>
      <use xlink:href="#DejaVuSans-74"/>
      <use xlink:href="#DejaVuSans-5f" transform="translate(39.208984 0)"/>
      <use xlink:href="#DejaVuSans-66" transform="translate(89.208984 0)"/>
      <use xlink:href="#DejaVuSans-69" transform="translate(124.414062 0)"/>
      <use xlink:href="#DejaVuSans-74" transform="translate(152.197266 0)"/>
     </g>
    </g>
    <g id="line2d_108">
     <path d="M 459.918242 86.185223 
L 468.248242 86.185223 
L 476.578242 86.185223 
" style="fill: none; stroke-dasharray: 2.96,1.28; stroke-dashoffset: 0; stroke: #1f77b4; stroke-width: 0.8"/>
    </g>
    <g id="text_20">
     <!-- t_grok50 -->
     <g transform="translate(483.242242 89.100723) scale(0.0833 -0.0833)">
      <defs>
       <path id="DejaVuSans-6b" d="M 581 4863 
L 1159 4863 
L 1159 1991 
L 2875 3500 
L 3609 3500 
L 1753 1863 
L 3688 0 
L 2938 0 
L 1159 1709 
L 1159 0 
L 581 0 
L 581 4863 
z
" transform="scale(0.015625)"/>
      </defs>
      <use xlink:href="#DejaVuSans-74"/>
      <use xlink:href="#DejaVuSans-5f" transform="translate(39.208984 0)"/>
      <use xlink:href="#DejaVuSans-67" transform="translate(89.208984 0)"/>
      <use xlink:href="#DejaVuSans-72" transform="translate(152.685547 0)"/>
      <use xlink:href="#DejaVuSans-6f" transform="translate(191.548828 0)"/>
      <use xlink:href="#DejaVuSans-6b" transform="translate(252.730469 0)"/>
      <use xlink:href="#DejaVuSans-35" transform="translate(310.640625 0)"/>
      <use xlink:href="#DejaVuSans-30" transform="translate(374.263672 0)"/>
     </g>
    </g>
    <g id="line2d_109">
     <path d="M 641.902711 36.350998 
L 650.232711 36.350998 
L 658.562711 36.350998 
" style="fill: none; stroke-dasharray: 2.96,1.28; stroke-dashoffset: 0; stroke: #1f77b4; stroke-width: 0.8"/>
    </g>
    <g id="text_21">
     <!-- t_grok99 -->
     <g transform="translate(665.226711 39.266498) scale(0.0833 -0.0833)">
      <defs>
       <path id="DejaVuSans-39" d="M 703 97 
L 703 672 
Q 941 559 1184 500 
Q 1428 441 1663 441 
Q 2288 441 2617 861 
Q 2947 1281 2994 2138 
Q 2813 1869 2534 1725 
Q 2256 1581 1919 1581 
Q 1219 1581 811 2004 
Q 403 2428 403 3163 
Q 403 3881 828 4315 
Q 1253 4750 1959 4750 
Q 2769 4750 3195 4129 
Q 3622 3509 3622 2328 
Q 3622 1225 3098 567 
Q 2575 -91 1691 -91 
Q 1453 -91 1209 -44 
Q 966 3 703 97 
z
M 1959 2075 
Q 2384 2075 2632 2365 
Q 2881 2656 2881 3163 
Q 2881 3666 2632 3958 
Q 2384 4250 1959 4250 
Q 1534 4250 1286 3958 
Q 1038 3666 1038 3163 
Q 1038 2656 1286 2365 
Q 1534 2075 1959 2075 
z
" transform="scale(0.015625)"/>
      </defs>
      <use xlink:href="#DejaVuSans-74"/>
      <use xlink:href="#DejaVuSans-5f" transform="translate(39.208984 0)"/>
      <use xlink:href="#DejaVuSans-67" transform="translate(89.208984 0)"/>
      <use xlink:href="#DejaVuSans-72" transform="translate(152.685547 0)"/>
      <use xlink:href="#DejaVuSans-6f" transform="translate(191.548828 0)"/>
      <use xlink:href="#DejaVuSans-6b" transform="translate(252.730469 0)"/>
      <use xlink:href="#DejaVuSans-39" transform="translate(310.640625 0)"/>
      <use xlink:href="#DejaVuSans-39" transform="translate(374.263672 0)"/>
     </g>
    </g>
    <g id="line2d_110">
     <path d="M 641.902711 48.809555 
L 650.232711 48.809555 
L 658.562711 48.809555 
" style="fill: none; stroke-dasharray: 0.55,0.9075; stroke-dashoffset: 0; stroke: #ff0000; stroke-opacity: 0.35; stroke-width: 0.55"/>
    </g>
    <g id="text_22">
     <!-- onset -->
     <g transform="translate(665.226711 51.725055) scale(0.0833 -0.0833)">
      <use xlink:href="#DejaVuSans-6f"/>
      <use xlink:href="#DejaVuSans-6e" transform="translate(61.181641 0)"/>
      <use xlink:href="#DejaVuSans-73" transform="translate(124.560547 0)"/>
      <use xlink:href="#DejaVuSans-65" transform="translate(176.660156 0)"/>
      <use xlink:href="#DejaVuSans-74" transform="translate(238.183594 0)"/>
     </g>
    </g>
    <g id="line2d_111">
     <path d="M 641.902711 61.036433 
L 650.232711 61.036433 
L 658.562711 61.036433 
" style="fill: none; stroke-dasharray: 0.55,0.9075; stroke-dashoffset: 0; stroke: #800080; stroke-opacity: 0.35; stroke-width: 0.55"/>
    </g>
    <g id="text_23">
     <!-- trough -->
     <g transform="translate(665.226711 63.951933) scale(0.0833 -0.0833)">
      <defs>
       <path id="DejaVuSans-68" d="M 3513 2113 
L 3513 0 
L 2938 0 
L 2938 2094 
Q 2938 2591 2744 2837 
Q 2550 3084 2163 3084 
Q 1697 3084 1428 2787 
Q 1159 2491 1159 1978 
L 1159 0 
L 581 0 
L 581 4863 
L 1159 4863 
L 1159 2956 
Q 1366 3272 1645 3428 
Q 1925 3584 2291 3584 
Q 2894 3584 3203 3211 
Q 3513 2838 3513 2113 
z
" transform="scale(0.015625)"/>
      </defs>
      <use xlink:href="#DejaVuSans-74"/>
      <use xlink:href="#DejaVuSans-72" transform="translate(39.208984 0)"/>
      <use xlink:href="#DejaVuSans-6f" transform="translate(78.072266 0)"/>
      <use xlink:href="#DejaVuSans-75" transform="translate(139.253906 0)"/>
      <use xlink:href="#DejaVuSans-67" transform="translate(202.632812 0)"/>
      <use xlink:href="#DejaVuSans-68" transform="translate(266.109375 0)"/>
     </g>
    </g>
    <g id="line2d_112">
     <path d="M 641.902711 73.263311 
L 650.232711 73.263311 
L 658.562711 73.263311 
" style="fill: none; stroke-dasharray: 0.55,0.9075; stroke-dashoffset: 0; stroke: #008000; stroke-opacity: 0.35; stroke-width: 0.55"/>
    </g>
    <g id="text_24">
     <!-- recovery -->
     <g transform="translate(665.226711 76.178811) scale(0.0833 -0.0833)">
      <defs>
       <path id="DejaVuSans-76" d="M 191 3500 
L 800 3500 
L 1894 563 
L 2988 3500 
L 3597 3500 
L 2284 0 
L 1503 0 
L 191 3500 
z
" transform="scale(0.015625)"/>
      </defs>
      <use xlink:href="#DejaVuSans-72"/>
      <use xlink:href="#DejaVuSans-65" transform="translate(38.863281 0)"/>
      <use xlink:href="#DejaVuSans-63" transform="translate(100.386719 0)"/>
      <use xlink:href="#DejaVuSans-6f" transform="translate(155.367188 0)"/>
      <use xlink:href="#DejaVuSans-76" transform="translate(216.548828 0)"/>
      <use xlink:href="#DejaVuSans-65" transform="translate(275.728516 0)"/>
      <use xlink:href="#DejaVuSans-72" transform="translate(337.251953 0)"/>
      <use xlink:href="#DejaVuSans-79" transform="translate(378.365234 0)"/>
     </g>
    </g>
   </g>
  </g>
 </g>
 <defs>
  <clipPath id="pff9cd06d17">
   <rect x="51.05" y="25.44" width="658.15" height="292.6"/>
  </clipPath>
 </defs>
</svg>
