<?xml version="1.0" encoding="utf-8" standalone="no"?>
<!DOCTYPE svg PUBLIC "-//W3C//DTD SVG 1.1//EN"
  "http://www.w3.org/Graphics/SVG/1.1/DTD/svg11.dtd">
<svg xmlns:xlink="http://www.w3.org/1999/xlink" width="676.343125pt" height="388.526875pt" viewBox="0 0 676.343125 388.526875" xmlns="http://www.w3.org/2000/svg" version="1.1">
 <metadata>
  <rdf:RDF xmlns:dc="http://purl.org/dc/elements/1.1/" xmlns:cc="http://creativecommons.org/ns#" xmlns:rdf="http://www.w3.org/1999/02/22-rdf-syntax-ns#">
   <cc:Work>
    <dc:type rdf:resource="http://purl.org/dc/dcmitype/StillImage"/>
    <dc:date>2026-07-23T14:31:32.789174</dc:date>
    <dc:format>image/svg+xml</dc:format>
    <dc:creator>
     <cc:Agent>
      <dc:title>Matplotlib v3.10.9, https://matplotlib.org/</dc:title>
     </cc:Agent>
    </dc:creator>
   </cc:Work>
  </rdf:RDF>
 </metadata>
 <defs>
  <style type="text/css">*{stroke-linejoin: round; stroke-linecap: butt}</style>
 </defs>
 <g id="figure_1">
  <g id="patch_1">
   <path d="M 0 388.526875
L 676.343125 388.526875
L 676.343125 0
L 0 0
z
" style="fill: #ffffff"/>
  </g>
  <g id="axes_1">
   <g id="patch_2">
    <path d="M 40.603125 350.970625
L 669.143125 350.970625
L 669.143125 22.370625
L 40.603125 22.370625
z
" style="fill: #ffffff"/>
   </g>
   <g id="matplotlib.axis_1">
    <g id="xtick_1">
     <g id="line2d_1">
      <path d="M 67.741045 350.970625
L 67.741045 22.370625
" clip-path="url(#pc89be09b3f)" style="fill: none; stroke: #b0b0b0; stroke-opacity: 0.25; stroke-width: 0.8; stroke-linecap: square"/>
     </g>
     <g id="line2d_2">
      <defs>
       <path id="m06bcd2d5fa" d="M 0 0
L 0 3.5
" style="stroke: #000000; stroke-width: 0.8"/>
      </defs>
      <g>
       <use xlink:href="#m06bcd2d5fa" x="67.741045" y="350.970625" style="stroke: #000000; stroke-width: 0.8"/>
      </g>
     </g>
     <g id="text_1">
      <!-- 0 -->
      <g transform="translate(64.559795 365.569062) scale(0.1 -0.1)">
       <defs>
        <path id="DejaVuSans-30" d="M 2034 4250
Q 1547 4250 1301 3770
Q 1056 3291 1056 2328
Q 1056 1369 1301 889
Q 1547 409 2034 409
Q 2525 409 2770 889
Q 3016 1369 3016 2328
Q 3016 3291 2770 3770
Q 2525 4250 2034 4250
z
M 2034 4750
Q 2819 4750 3233 4129
Q 3647 3509 3647 2328
Q 3647 1150 3233 529
Q 2819 -91 2034 -91
Q 1250 -91 836 529
Q 422 1150 422 2328
Q 422 3509 836 4129
Q 1250 4750 2034 4750
z
" transform="scale(0.015625)"/>
       </defs>
       <use xlink:href="#DejaVuSans-30"/>
      </g>
     </g>
    </g>
    <g id="xtick_2">
     <g id="line2d_3">
      <path d="M 139.345055 350.970625
L 139.345055 22.370625
" clip-path="url(#pc89be09b3f)" style="fill: none; stroke: #b0b0b0; stroke-opacity: 0.25; stroke-width: 0.8; stroke-linecap: square"/>
     </g>
     <g id="line2d_4">
      <g>
       <use xlink:href="#m06bcd2d5fa" x="139.345055" y="350.970625" style="stroke: #000000; stroke-width: 0.8"/>
      </g>
     </g>
     <g id="text_2">
      <!-- 2500 -->
      <g transform="translate(126.620055 365.569062) scale(0.1 -0.1)">
       <defs>
        <path id="DejaVuSans-32" d="M 1228 531
L 3431 531
L 3431 0
L 469 0
L 469 531
Q 828 903 1448 1529
Q 2069 2156 2228 2338
Q 2531 2678 2651 2914
Q 2772 3150 2772 3378
Q 2772 3750 2511 3984
Q 2250 4219 1831 4219
Q 1534 4219 1204 4116
Q 875 4013 500 3803
L 500 4441
Q 881 4594 1212 4672
Q 1544 4750 1819 4750
Q 2544 4750 2975 4387
Q 3406 4025 3406 3419
Q 3406 3131 3298 2873
Q 3191 2616 2906 2266
Q 2828 2175 2409 1742
Q 1991 1309 1228 531
z
" transform="scale(0.015625)"/>
        <path id="DejaVuSans-35" d="M 691 4666
L 3169 4666
L 3169 4134
L 1269 4134
L 1269 2991
Q 1406 3038 1543 3061
Q 1681 3084 1819 3084
Q 2600 3084 3056 2656
Q 3513 2228 3513 1497
Q 3513 744 3044 326
Q 2575 -91 1722 -91
Q 1428 -91 1123 -41
Q 819 9 494 109
L 494 744
Q 775 591 1075 516
Q 1375 441 1709 441
Q 2250 441 2565 725
Q 2881 1009 2881 1497
Q 2881 1984 2565 2268
Q 2250 2553 1709 2553
Q 1456 2553 1204 2497
Q 953 2441 691 2322
L 691 4666
z
" transform="scale(0.015625)"/>
       </defs>
       <use xlink:href="#DejaVuSans-32"/>
       <use xlink:href="#DejaVuSans-35" transform="translate(63.623047 0)"/>
       <use xlink:href="#DejaVuSans-30" transform="translate(127.246094 0)"/>
       <use xlink:href="#DejaVuSans-30" transform="translate(190.869141 0)"/>
      </g>
     </g>
    </g>
    <g id="xtick_3">
     <g id="line2d_5">
      <path d="M 210.949065 350.970625
L 210.949065 22.370625
" clip-path="url(#pc89be09b3f)" style="fill: none; stroke: #b0b0b0; stroke-opacity: 0.25; stroke-width: 0.8; stroke-linecap: square"/>
     </g>
     <g id="line2d_6">
      <g>
       <use xlink:href="#m06bcd2d5fa" x="210.949065" y="350.970625" style="stroke: #000000; stroke-width: 0.8"/>
      </g>
     </g>
     <g id="text_3">
      <!-- 5000 -->
      <g transform="translate(198.224065 365.569062) scale(0.1 -0.1)">
       <use xlink:href="#DejaVuSans-35"/>
       <use xlink:href="#DejaVuSans-30" transform="translate(63.623047 0)"/>
       <use xlink:href="#DejaVuSans-30" transform="translate(127.246094 0)"/>
       <use xlink:href="#DejaVuSans-30" transform="translate(190.869141 0)"/>
      </g>
     </g>
    </g>
    <g id="xtick_4">
     <g id="line2d_7">
      <path d="M 282.553075 350.970625
L 282.553075 22.370625
" clip-path="url(#pc89be09b3f)" style="fill: none; stroke: #b0b0b0; stroke-opacity: 0.25; stroke-width: 0.8; stroke-linecap: square"/>
     </g>
     <g id="line2d_8">
      <g>
       <use xlink:href="#m06bcd2d5fa" x="282.553075" y="350.970625" style="stroke: #000000; stroke-width: 0.8"/>
      </g>
     </g>
     <g id="text_4">
      <!-- 7500 -->
      <g transform="translate(269.828075 365.569062) scale(0.1 -0.1)">
       <defs>
        <path id="DejaVuSans-37" d="M 525 4666
L 3525 4666
L 3525 4397
L 1831 0
L 1172 0
L 2766 4134
L 525 4134
L 525 4666
z
" transform="scale(0.015625)"/>
       </defs>
       <use xlink:href="#DejaVuSans-37"/>
       <use xlink:href="#DejaVuSans-35" transform="translate(63.623047 0)"/>
       <use xlink:href="#DejaVuSans-30" transform="translate(127.246094 0)"/>
       <use xlink:href="#DejaVuSans-30" transform="translate(190.869141 0)"/>
      </g>
     </g>
    </g>
    <g id="xtick_5">
     <g id="line2d_9">
      <path d="M 354.157085 350.970625
L 354.157085 22.370625
" clip-path="url(#pc89be09b3f)" style="fill: none; stroke: #b0b0b0; stroke-opacity: 0.25; stroke-width: 0.8; stroke-linecap: square"/>
     </g>
     <g id="line2d_10">
      <g>
       <use xlink:href="#m06bcd2d5fa" x="354.157085" y="350.970625" style="stroke: #000000; stroke-width: 0.8"/>
      </g>
     </g>
     <g id="text_5">
      <!-- 10000 -->
      <g transform="translate(338.250835 365.569062) scale(0.1 -0.1)">
       <defs>
        <path id="DejaVuSans-31" d="M 794 531
L 1825 531
L 1825 4091
L 703 3866
L 703 4441
L 1819 4666
L 2450 4666
L 2450 531
L 3481 531
L 3481 0
L 794 0
L 794 531
z
" transform="scale(0.015625)"/>
       </defs>
       <use xlink:href="#DejaVuSans-31"/>
       <use xlink:href="#DejaVuSans-30" transform="translate(63.623047 0)"/>
       <use xlink:href="#DejaVuSans-30" transform="translate(127.246094 0)"/>
       <use xlink:href="#DejaVuSans-30" transform="translate(190.869141 0)"/>
       <use xlink:href="#DejaVuSans-30" transform="translate(254.492188 0)"/>
      </g>
     </g>
    </g>
    <g id="xtick_6">
     <g id="line2d_11">
      <path d="M 425.761095 350.970625
L 425.761095 22.370625
" clip-path="url(#pc89be09b3f)" style="fill: none; stroke: #b0b0b0; stroke-opacity: 0.25; stroke-width: 0.8; stroke-linecap: square"/>
     </g>
     <g id="line2d_12">
      <g>
       <use xlink:href="#m06bcd2d5fa" x="425.761095" y="350.970625" style="stroke: #000000; stroke-width: 0.8"/>
      </g>
     </g>
     <g id="text_6">
      <!-- 12500 -->
      <g transform="translate(409.854845 365.569062) scale(0.1 -0.1)">
       <use xlink:href="#DejaVuSans-31"/>
       <use xlink:href="#DejaVuSans-32" transform="translate(63.623047 0)"/>
       <use xlink:href="#DejaVuSans-35" transform="translate(127.246094 0)"/>
       <use xlink:href="#DejaVuSans-30" transform="translate(190.869141 0)"/>
       <use xlink:href="#DejaVuSans-30" transform="translate(254.492188 0)"/>
      </g>
     </g>
    </g>
    <g id="xtick_7">
     <g id="line2d_13">
      <path d="M 497.365105 350.970625
L 497.365105 22.370625
" clip-path="url(#pc89be09b3f)" style="fill: none; stroke: #b0b0b0; stroke-opacity: 0.25; stroke-width: 0.8; stroke-linecap: square"/>
     </g>
     <g id="line2d_14">
      <g>
       <use xlink:href="#m06bcd2d5fa" x="497.365105" y="350.970625" style="stroke: #000000; stroke-width: 0.8"/>
      </g>
     </g>
     <g id="text_7">
      <!-- 15000 -->
      <g transform="translate(481.458855 365.569062) scale(0.1 -0.1)">
       <use xlink:href="#DejaVuSans-31"/>
       <use xlink:href="#DejaVuSans-35" transform="translate(63.623047 0)"/>
       <use xlink:href="#DejaVuSans-30" transform="translate(127.246094 0)"/>
       <use xlink:href="#DejaVuSans-30" transform="translate(190.869141 0)"/>
       <use xlink:href="#DejaVuSans-30" transform="translate(254.492188 0)"/>
      </g>
     </g>
    </g>
    <g id="xtick_8">
     <g id="line2d_15">
      <path d="M 568.969115 350.970625
L 568.969115 22.370625
" clip-path="url(#pc89be09b3f)" style="fill: none; stroke: #b0b0b0; stroke-opacity: 0.25; stroke-width: 0.8; stroke-linecap: square"/>
     </g>
     <g id="line2d_16">
      <g>
       <use xlink:href="#m06bcd2d5fa" x="568.969115" y="350.970625" style="stroke: #000000; stroke-width: 0.8"/>
      </g>
     </g>
     <g id="text_8">
      <!-- 17500 -->
      <g transform="translate(553.062865 365.569062) scale(0.1 -0.1)">
       <use xlink:href="#DejaVuSans-31"/>
       <use xlink:href="#DejaVuSans-37" transform="translate(63.623047 0)"/>
       <use xlink:href="#DejaVuSans-35" transform="translate(127.246094 0)"/>
       <use xlink:href="#DejaVuSans-30" transform="translate(190.869141 0)"/>
       <use xlink:href="#DejaVuSans-30" transform="translate(254.492188 0)"/>
      </g>
     </g>
    </g>
    <g id="xtick_9">
     <g id="line2d_17">
      <path d="M 640.573125 350.970625
L 640.573125 22.370625
" clip-path="url(#pc89be09b3f)" style="fill: none; stroke: #b0b0b0; stroke-opacity: 0.25; stroke-width: 0.8; stroke-linecap: square"/>
     </g>
     <g id="line2d_18">
      <g>
       <use xlink:href="#m06bcd2d5fa" x="640.573125" y="350.970625" style="stroke: #000000; stroke-width: 0.8"/>
      </g>
     </g>
     <g id="text_9">
      <!-- 20000 -->
      <g transform="translate(624.666875 365.569062) scale(0.1 -0.1)">
       <use xlink:href="#DejaVuSans-32"/>
       <use xlink:href="#DejaVuSans-30" transform="translate(63.623047 0)"/>
       <use xlink:href="#DejaVuSans-30" transform="translate(127.246094 0)"/>
       <use xlink:href="#DejaVuSans-30" transform="translate(190.869141 0)"/>
       <use xlink:href="#DejaVuSans-30" transform="translate(254.492188 0)"/>
      </g>
     </g>
    </g>
    <g id="text_10">
     <!-- optimizer update step -->
     <g transform="translate(299.662969 379.247187) scale(0.1 -0.1)">
      <defs>
       <path id="DejaVuSans-6f" d="M 1959 3097
Q 1497 3097 1228 2736
Q 959 2375 959 1747
Q 959 1119 1226 758
Q 1494 397 1959 397
Q 2419 397 2687 759
Q 2956 1122 2956 1747
Q 2956 2369 2687 2733
Q 2419 3097 1959 3097
z
M 1959 3584
Q 2709 3584 3137 3096
Q 3566 2609 3566 1747
Q 3566 888 3137 398
Q 2709 -91 1959 -91
Q 1206 -91 779 398
Q 353 888 353 1747
Q 353 2609 779 3096
Q 1206 3584 1959 3584
z
" transform="scale(0.015625)"/>
       <path id="DejaVuSans-70" d="M 1159 525
L 1159 -1331
L 581 -1331
L 581 3500
L 1159 3500
L 1159 2969
Q 1341 3281 1617 3432
Q 1894 3584 2278 3584
Q 2916 3584 3314 3078
Q 3713 2572 3713 1747
Q 3713 922 3314 415
Q 2916 -91 2278 -91
Q 1894 -91 1617 61
Q 1341 213 1159 525
z
M 3116 1747
Q 3116 2381 2855 2742
Q 2594 3103 2138 3103
Q 1681 3103 1420 2742
Q 1159 2381 1159 1747
Q 1159 1113 1420 752
Q 1681 391 2138 391
Q 2594 391 2855 752
Q 3116 1113 3116 1747
z
" transform="scale(0.015625)"/>
       <path id="DejaVuSans-74" d="M 1172 4494
L 1172 3500
L 2356 3500
L 2356 3053
L 1172 3053
L 1172 1153
Q 1172 725 1289 603
Q 1406 481 1766 481
L 2356 481
L 2356 0
L 1766 0
Q 1100 0 847 248
Q 594 497 594 1153
L 594 3053
L 172 3053
L 172 3500
L 594 3500
L 594 4494
L 1172 4494
z
" transform="scale(0.015625)"/>
       <path id="DejaVuSans-69" d="M 603 3500
L 1178 3500
L 1178 0
L 603 0
L 603 3500
z
M 603 4863
L 1178 4863
L 1178 4134
L 603 4134
L 603 4863
z
" transform="scale(0.015625)"/>
       <path id="DejaVuSans-6d" d="M 3328 2828
Q 3544 3216 3844 3400
Q 4144 3584 4550 3584
Q 5097 3584 5394 3201
Q 5691 2819 5691 2113
L 5691 0
L 5113 0
L 5113 2094
Q 5113 2597 4934 2840
Q 4756 3084 4391 3084
Q 3944 3084 3684 2787
Q 3425 2491 3425 1978
L 3425 0
L 2847 0
L 2847 2094
Q 2847 2600 2669 2842
Q 2491 3084 2119 3084
Q 1678 3084 1418 2786
Q 1159 2488 1159 1978
L 1159 0
L 581 0
L 581 3500
L 1159 3500
L 1159 2956
Q 1356 3278 1631 3431
Q 1906 3584 2284 3584
Q 2666 3584 2933 3390
Q 3200 3197 3328 2828
z
" transform="scale(0.015625)"/>
       <path id="DejaVuSans-7a" d="M 353 3500
L 3084 3500
L 3084 2975
L 922 459
L 3084 459
L 3084 0
L 275 0
L 275 525
L 2438 3041
L 353 3041
L 353 3500
z
" transform="scale(0.015625)"/>
       <path id="DejaVuSans-65" d="M 3597 1894
L 3597 1613
L 953 1613
Q 991 1019 1311 708
Q 1631 397 2203 397
Q 2534 397 2845 478
Q 3156 559 3463 722
L 3463 178
Q 3153 47 2828 -22
Q 2503 -91 2169 -91
Q 1331 -91 842 396
Q 353 884 353 1716
Q 353 2575 817 3079
Q 1281 3584 2069 3584
Q 2775 3584 3186 3129
Q 3597 2675 3597 1894
z
M 3022 2063
Q 3016 2534 2758 2815
Q 2500 3097 2075 3097
Q 1594 3097 1305 2825
Q 1016 2553 972 2059
L 3022 2063
z
" transform="scale(0.015625)"/>
       <path id="DejaVuSans-72" d="M 2631 2963
Q 2534 3019 2420 3045
Q 2306 3072 2169 3072
Q 1681 3072 1420 2755
Q 1159 2438 1159 1844
L 1159 0
L 581 0
L 581 3500
L 1159 3500
L 1159 2956
Q 1341 3275 1631 3429
Q 1922 3584 2338 3584
Q 2397 3584 2469 3576
Q 2541 3569 2628 3553
L 2631 2963
z
" transform="scale(0.015625)"/>
       <path id="DejaVuSans-20" transform="scale(0.015625)"/>
       <path id="DejaVuSans-75" d="M 544 1381
L 544 3500
L 1119 3500
L 1119 1403
Q 1119 906 1312 657
Q 1506 409 1894 409
Q 2359 409 2629 706
Q 2900 1003 2900 1516
L 2900 3500
L 3475 3500
L 3475 0
L 2900 0
L 2900 538
Q 2691 219 2414 64
Q 2138 -91 1772 -91
Q 1169 -91 856 284
Q 544 659 544 1381
z
M 1991 3584
L 1991 3584
z
" transform="scale(0.015625)"/>
       <path id="DejaVuSans-64" d="M 2906 2969
L 2906 4863
L 3481 4863
L 3481 0
L 2906 0
L 2906 525
Q 2725 213 2448 61
Q 2172 -91 1784 -91
Q 1150 -91 751 415
Q 353 922 353 1747
Q 353 2572 751 3078
Q 1150 3584 1784 3584
Q 2172 3584 2448 3432
Q 2725 3281 2906 2969
z
M 947 1747
Q 947 1113 1208 752
Q 1469 391 1925 391
Q 2381 391 2643 752
Q 2906 1113 2906 1747
Q 2906 2381 2643 2742
Q 2381 3103 1925 3103
Q 1469 3103 1208 2742
Q 947 2381 947 1747
z
" transform="scale(0.015625)"/>
       <path id="DejaVuSans-61" d="M 2194 1759
Q 1497 1759 1228 1600
Q 959 1441 959 1056
Q 959 750 1161 570
Q 1363 391 1709 391
Q 2188 391 2477 730
Q 2766 1069 2766 1631
L 2766 1759
L 2194 1759
z
M 3341 1997
L 3341 0
L 2766 0
L 2766 531
Q 2569 213 2275 61
Q 1981 -91 1556 -91
Q 1019 -91 701 211
Q 384 513 384 1019
Q 384 1609 779 1909
Q 1175 2209 1959 2209
L 2766 2209
L 2766 2266
Q 2766 2663 2505 2880
Q 2244 3097 1772 3097
Q 1472 3097 1187 3025
Q 903 2953 641 2809
L 641 3341
Q 956 3463 1253 3523
Q 1550 3584 1831 3584
Q 2591 3584 2966 3190
Q 3341 2797 3341 1997
z
" transform="scale(0.015625)"/>
       <path id="DejaVuSans-73" d="M 2834 3397
L 2834 2853
Q 2591 2978 2328 3040
Q 2066 3103 1784 3103
Q 1356 3103 1142 2972
Q 928 2841 928 2578
Q 928 2378 1081 2264
Q 1234 2150 1697 2047
L 1894 2003
Q 2506 1872 2764 1633
Q 3022 1394 3022 966
Q 3022 478 2636 193
Q 2250 -91 1575 -91
Q 1294 -91 989 -36
Q 684 19 347 128
L 347 722
Q 666 556 975 473
Q 1284 391 1588 391
Q 1994 391 2212 530
Q 2431 669 2431 922
Q 2431 1156 2273 1281
Q 2116 1406 1581 1522
L 1381 1569
Q 847 1681 609 1914
Q 372 2147 372 2553
Q 372 3047 722 3315
Q 1072 3584 1716 3584
Q 2034 3584 2315 3537
Q 2597 3491 2834 3397
z
" transform="scale(0.015625)"/>
      </defs>
      <use xlink:href="#DejaVuSans-6f"/>
      <use xlink:href="#DejaVuSans-70" transform="translate(61.181641 0)"/>
      <use xlink:href="#DejaVuSans-74" transform="translate(124.658203 0)"/>
      <use xlink:href="#DejaVuSans-69" transform="translate(163.867188 0)"/>
      <use xlink:href="#DejaVuSans-6d" transform="translate(191.650391 0)"/>
      <use xlink:href="#DejaVuSans-69" transform="translate(289.0625 0)"/>
      <use xlink:href="#DejaVuSans-7a" transform="translate(316.845703 0)"/>
      <use xlink:href="#DejaVuSans-65" transform="translate(369.335938 0)"/>
      <use xlink:href="#DejaVuSans-72" transform="translate(430.859375 0)"/>
      <use xlink:href="#DejaVuSans-20" transform="translate(471.972656 0)"/>
      <use xlink:href="#DejaVuSans-75" transform="translate(503.759766 0)"/>
      <use xlink:href="#DejaVuSans-70" transform="translate(567.138672 0)"/>
      <use xlink:href="#DejaVuSans-64" transform="translate(630.615234 0)"/>
      <use xlink:href="#DejaVuSans-61" transform="translate(694.091797 0)"/>
      <use xlink:href="#DejaVuSans-74" transform="translate(755.371094 0)"/>
      <use xlink:href="#DejaVuSans-65" transform="translate(794.580078 0)"/>
      <use xlink:href="#DejaVuSans-20" transform="translate(856.103516 0)"/>
      <use xlink:href="#DejaVuSans-73" transform="translate(887.890625 0)"/>
      <use xlink:href="#DejaVuSans-74" transform="translate(939.990234 0)"/>
      <use xlink:href="#DejaVuSans-65" transform="translate(979.199219 0)"/>
      <use xlink:href="#DejaVuSans-70" transform="translate(1040.722656 0)"/>
     </g>
    </g>
   </g>
   <g id="matplotlib.axis_2">
    <g id="ytick_1">
     <g id="line2d_19">
      <path d="M 40.603125 336.040215
L 669.143125 336.040215
" clip-path="url(#pc89be09b3f)" style="fill: none; stroke: #b0b0b0; stroke-opacity: 0.25; stroke-width: 0.8; stroke-linecap: square"/>
     </g>
     <g id="line2d_20">
      <defs>
       <path id="m51eb8f0303" d="M 0 0
L -3.5 0
" style="stroke: #000000; stroke-width: 0.8"/>
      </defs>
      <g>
       <use xlink:href="#m51eb8f0303" x="40.603125" y="336.040215" style="stroke: #000000; stroke-width: 0.8"/>
      </g>
     </g>
     <g id="text_11">
      <!-- 0 -->
      <g transform="translate(27.240625 339.839434) scale(0.1 -0.1)">
       <use xlink:href="#DejaVuSans-30"/>
      </g>
     </g>
    </g>
    <g id="ytick_2">
     <g id="line2d_21">
      <path d="M 40.603125 284.411132
L 669.143125 284.411132
" clip-path="url(#pc89be09b3f)" style="fill: none; stroke: #b0b0b0; stroke-opacity: 0.25; stroke-width: 0.8; stroke-linecap: square"/>
     </g>
     <g id="line2d_22">
      <g>
       <use xlink:href="#m51eb8f0303" x="40.603125" y="284.411132" style="stroke: #000000; stroke-width: 0.8"/>
      </g>
     </g>
     <g id="text_12">
      <!-- 5 -->
      <g transform="translate(27.240625 288.21035) scale(0.1 -0.1)">
       <use xlink:href="#DejaVuSans-35"/>
      </g>
     </g>
    </g>
    <g id="ytick_3">
     <g id="line2d_23">
      <path d="M 40.603125 232.782048
L 669.143125 232.782048
" clip-path="url(#pc89be09b3f)" style="fill: none; stroke: #b0b0b0; stroke-opacity: 0.25; stroke-width: 0.8; stroke-linecap: square"/>
     </g>
     <g id="line2d_24">
      <g>
       <use xlink:href="#m51eb8f0303" x="40.603125" y="232.782048" style="stroke: #000000; stroke-width: 0.8"/>
      </g>
     </g>
     <g id="text_13">
      <!-- 10 -->
      <g transform="translate(20.878125 236.581267) scale(0.1 -0.1)">
       <use xlink:href="#DejaVuSans-31"/>
       <use xlink:href="#DejaVuSans-30" transform="translate(63.623047 0)"/>
      </g>
     </g>
    </g>
    <g id="ytick_4">
     <g id="line2d_25">
      <path d="M 40.603125 181.152965
L 669.143125 181.152965
" clip-path="url(#pc89be09b3f)" style="fill: none; stroke: #b0b0b0; stroke-opacity: 0.25; stroke-width: 0.8; stroke-linecap: square"/>
     </g>
     <g id="line2d_26">
      <g>
       <use xlink:href="#m51eb8f0303" x="40.603125" y="181.152965" style="stroke: #000000; stroke-width: 0.8"/>
      </g>
     </g>
     <g id="text_14">
      <!-- 15 -->
      <g transform="translate(20.878125 184.952183) scale(0.1 -0.1)">
       <use xlink:href="#DejaVuSans-31"/>
       <use xlink:href="#DejaVuSans-35" transform="translate(63.623047 0)"/>
      </g>
     </g>
    </g>
    <g id="ytick_5">
     <g id="line2d_27">
      <path d="M 40.603125 129.523881
L 669.143125 129.523881
" clip-path="url(#pc89be09b3f)" style="fill: none; stroke: #b0b0b0; stroke-opacity: 0.25; stroke-width: 0.8; stroke-linecap: square"/>
     </g>
     <g id="line2d_28">
      <g>
       <use xlink:href="#m51eb8f0303" x="40.603125" y="129.523881" style="stroke: #000000; stroke-width: 0.8"/>
      </g>
     </g>
     <g id="text_15">
      <!-- 20 -->
      <g transform="translate(20.878125 133.3231) scale(0.1 -0.1)">
       <use xlink:href="#DejaVuSans-32"/>
       <use xlink:href="#DejaVuSans-30" transform="translate(63.623047 0)"/>
      </g>
     </g>
    </g>
    <g id="ytick_6">
     <g id="line2d_29">
      <path d="M 40.603125 77.894798
L 669.143125 77.894798
" clip-path="url(#pc89be09b3f)" style="fill: none; stroke: #b0b0b0; stroke-opacity: 0.25; stroke-width: 0.8; stroke-linecap: square"/>
     </g>
     <g id="line2d_30">
      <g>
       <use xlink:href="#m51eb8f0303" x="40.603125" y="77.894798" style="stroke: #000000; stroke-width: 0.8"/>
      </g>
     </g>
     <g id="text_16">
      <!-- 25 -->
      <g transform="translate(20.878125 81.694016) scale(0.1 -0.1)">
       <use xlink:href="#DejaVuSans-32"/>
       <use xlink:href="#DejaVuSans-35" transform="translate(63.623047 0)"/>
      </g>
     </g>
    </g>
    <g id="ytick_7">
     <g id="line2d_31">
      <path d="M 40.603125 26.265714
L 669.143125 26.265714
" clip-path="url(#pc89be09b3f)" style="fill: none; stroke: #b0b0b0; stroke-opacity: 0.25; stroke-width: 0.8; stroke-linecap: square"/>
     </g>
     <g id="line2d_32">
      <g>
       <use xlink:href="#m51eb8f0303" x="40.603125" y="26.265714" style="stroke: #000000; stroke-width: 0.8"/>
      </g>
     </g>
     <g id="text_17">
      <!-- 30 -->
      <g transform="translate(20.878125 30.064933) scale(0.1 -0.1)">
       <defs>
        <path id="DejaVuSans-33" d="M 2597 2516
Q 3050 2419 3304 2112
Q 3559 1806 3559 1356
Q 3559 666 3084 287
Q 2609 -91 1734 -91
Q 1441 -91 1130 -33
Q 819 25 488 141
L 488 750
Q 750 597 1062 519
Q 1375 441 1716 441
Q 2309 441 2620 675
Q 2931 909 2931 1356
Q 2931 1769 2642 2001
Q 2353 2234 1838 2234
L 1294 2234
L 1294 2753
L 1863 2753
Q 2328 2753 2575 2939
Q 2822 3125 2822 3475
Q 2822 3834 2567 4026
Q 2313 4219 1838 4219
Q 1578 4219 1281 4162
Q 984 4106 628 3988
L 628 4550
Q 988 4650 1302 4700
Q 1616 4750 1894 4750
Q 2613 4750 3031 4423
Q 3450 4097 3450 3541
Q 3450 3153 3228 2886
Q 3006 2619 2597 2516
z
" transform="scale(0.015625)"/>
       </defs>
       <use xlink:href="#DejaVuSans-33"/>
       <use xlink:href="#DejaVuSans-30" transform="translate(63.623047 0)"/>
      </g>
     </g>
    </g>
    <g id="text_18">
     <!-- cross-entropy -->
     <g transform="translate(14.798438 220.776875) rotate(-90) scale(0.1 -0.1)">
      <defs>
       <path id="DejaVuSans-63" d="M 3122 3366
L 3122 2828
Q 2878 2963 2633 3030
Q 2388 3097 2138 3097
Q 1578 3097 1268 2742
Q 959 2388 959 1747
Q 959 1106 1268 751
Q 1578 397 2138 397
Q 2388 397 2633 464
Q 2878 531 3122 666
L 3122 134
Q 2881 22 2623 -34
Q 2366 -91 2075 -91
Q 1284 -91 818 406
Q 353 903 353 1747
Q 353 2603 823 3093
Q 1294 3584 2113 3584
Q 2378 3584 2631 3529
Q 2884 3475 3122 3366
z
" transform="scale(0.015625)"/>
       <path id="DejaVuSans-2d" d="M 313 2009
L 1997 2009
L 1997 1497
L 313 1497
L 313 2009
z
" transform="scale(0.015625)"/>
       <path id="DejaVuSans-6e" d="M 3513 2113
L 3513 0
L 2938 0
L 2938 2094
Q 2938 2591 2744 2837
Q 2550 3084 2163 3084
Q 1697 3084 1428 2787
Q 1159 2491 1159 1978
L 1159 0
L 581 0
L 581 3500
L 1159 3500
L 1159 2956
Q 1366 3272 1645 3428
Q 1925 3584 2291 3584
Q 2894 3584 3203 3211
Q 3513 2838 3513 2113
z
" transform="scale(0.015625)"/>
       <path id="DejaVuSans-79" d="M 2059 -325
Q 1816 -950 1584 -1140
Q 1353 -1331 966 -1331
L 506 -1331
L 506 -850
L 844 -850
Q 1081 -850 1212 -737
Q 1344 -625 1503 -206
L 1606 56
L 191 3500
L 800 3500
L 1894 763
L 2988 3500
L 3597 3500
L 2059 -325
z
" transform="scale(0.015625)"/>
      </defs>
      <use xlink:href="#DejaVuSans-63"/>
      <use xlink:href="#DejaVuSans-72" transform="translate(54.980469 0)"/>
      <use xlink:href="#DejaVuSans-6f" transform="translate(93.84375 0)"/>
      <use xlink:href="#DejaVuSans-73" transform="translate(155.025391 0)"/>
      <use xlink:href="#DejaVuSans-73" transform="translate(207.125 0)"/>
      <use xlink:href="#DejaVuSans-2d" transform="translate(259.224609 0)"/>
      <use xlink:href="#DejaVuSans-65" transform="translate(295.308594 0)"/>
      <use xlink:href="#DejaVuSans-6e" transform="translate(356.832031 0)"/>
      <use xlink:href="#DejaVuSans-74" transform="translate(420.210938 0)"/>
      <use xlink:href="#DejaVuSans-72" transform="translate(459.419922 0)"/>
      <use xlink:href="#DejaVuSans-6f" transform="translate(498.283203 0)"/>
      <use xlink:href="#DejaVuSans-70" transform="translate(559.464844 0)"/>
      <use xlink:href="#DejaVuSans-79" transform="translate(622.941406 0)"/>
     </g>
    </g>
   </g>
   <g id="line2d_33">
    <path d="M 69.173125 306.928833
L 70.605205 334.277137
L 72.037285 335.87532
L 76.333526 335.984507
L 99.246809 336.031323
L 106.40721 336.034261
L 107.83929 290.896427
L 109.271371 295.064955
L 110.703451 304.01933
L 112.135531 322.701832
L 113.567611 334.735182
L 114.999691 335.65329
L 117.863852 335.840769
L 127.888413 335.933242
L 165.122498 336.026957
L 166.554579 288.146517
L 167.986659 290.254603
L 169.418739 291.327514
L 170.850819 293.651511
L 172.282899 296.352113
L 173.71498 302.802257
L 175.14706 298.490601
L 176.57914 312.756915
L 178.01122 324.206856
L 179.4433 331.228328
L 180.875381 334.4753
L 182.307461 335.339484
L 183.739541 335.604826
L 186.603701 335.772292
L 195.196183 335.886164
L 229.566107 336.015661
L 233.862348 336.021359
L 235.294428 289.336293
L 236.726508 291.583445
L 238.158589 303.72302
L 239.590669 325.464952
L 241.022749 334.596385
L 242.454829 335.671822
L 245.31899 335.901384
L 253.911471 335.983571
L 276.824754 336.01337
L 278.256834 289.778695
L 279.688914 308.840595
L 281.120995 333.36778
L 282.553075 335.896972
L 286.849315 335.981248
L 308.330518 336.004489
L 309.762599 305.071369
L 311.194679 331.826502
L 312.626759 335.651922
L 314.058839 335.82767
L 319.78716 335.920929
L 354.157085 336.000442
L 355.589165 298.254404
L 357.021245 326.290427
L 358.453326 335.489965
L 359.885406 335.852018
L 364.181646 335.947212
L 407.144052 336.005897
L 420.032774 336.016894
L 421.464854 310.865938
L 422.896935 332.193277
L 424.329015 335.656499
L 425.761095 335.875636
L 430.057336 335.965039
L 455.834779 335.998093
L 474.451822 336.013503
L 475.883902 284.405725
L 477.315982 318.931085
L 478.748062 334.400709
L 480.180143 335.808975
L 483.044303 335.968901
L 497.365105 336.004451
L 505.957586 336.009326
L 507.389666 290.4304
L 508.821747 308.243253
L 510.253827 310.177185
L 511.685907 333.351574
L 513.117987 335.720367
L 515.982148 335.921171
L 527.438789 335.983018
L 567.537035 336.021651
L 568.969115 296.338469
L 570.401195 313.036857
L 573.265356 333.851221
L 574.697436 335.691069
L 576.129516 335.87401
L 581.857837 335.960795
L 591.882398 335.986898
L 593.314478 285.81832
L 594.746559 307.734863
L 596.178639 319.979146
L 597.610719 320.632915
L 599.042799 331.696787
L 600.474879 334.23245
L 601.90696 335.147943
L 603.33904 335.5184
L 606.2032 335.756317
L 613.363601 335.88018
L 640.573125 335.984158
L 640.573125 335.984158
" clip-path="url(#pc89be09b3f)" style="fill: none; stroke: #1f77b4; stroke-width: 1.5; stroke-linecap: square"/>
   </g>
   <g id="line2d_34">
    <path d="M 69.173125 263.152092
L 70.605205 177.34942
L 72.037285 116.833176
L 73.469366 104.396043
L 74.901446 97.541674
L 76.333526 92.564214
L 77.765606 88.434383
L 80.629767 81.42732
L 83.493927 75.108654
L 87.790168 66.22559
L 90.654328 60.764145
L 93.518488 55.701031
L 96.382649 51.031934
L 99.246809 46.718507
L 103.54305 40.914844
L 106.40721 37.306989
L 107.83929 284.451989
L 109.271371 277.026605
L 110.703451 265.175367
L 112.135531 230.778237
L 113.567611 181.281395
L 114.999691 158.540661
L 116.431772 152.036627
L 117.863852 149.492928
L 119.295932 148.483799
L 120.728012 148.105321
L 122.160092 147.962572
L 123.592173 147.676247
L 125.024253 147.263186
L 126.456333 146.648684
L 127.888413 145.822895
L 129.320493 144.786075
L 130.752574 143.509391
L 133.616734 140.458015
L 136.480894 136.640546
L 139.345055 131.919612
L 142.209215 126.404677
L 143.641295 123.51541
L 147.937536 113.598303
L 152.233777 102.739187
L 157.962097 89.280399
L 160.826258 83.036711
L 163.690418 77.324393
L 165.122498 74.640624
L 166.554579 286.334037
L 167.986659 287.13981
L 169.418739 285.621523
L 170.850819 281.980979
L 173.71498 267.374124
L 175.14706 280.18327
L 176.57914 245.495472
L 178.01122 218.621825
L 179.4433 202.122139
L 180.875381 178.967103
L 182.307461 167.140414
L 183.739541 162.826279
L 185.171621 161.867687
L 186.603701 162.746416
L 188.035782 164.419028
L 190.899942 168.69139
L 196.628263 177.381897
L 200.924503 182.684472
L 203.788664 185.730815
L 208.084904 189.298178
L 212.381145 191.757603
L 215.245305 192.847835
L 218.109466 193.420377
L 219.541546 193.880204
L 220.973626 193.995223
L 223.837787 193.863848
L 225.269867 194.20907
L 226.701947 194.369377
L 228.134027 193.752187
L 229.566107 194.31238
L 232.430268 194.686465
L 233.862348 194.793911
L 235.294428 288.044143
L 236.726508 288.144257
L 238.158589 290.401311
L 239.590669 312.035005
L 241.022749 327.540798
L 242.454829 330.615138
L 243.886909 331.705047
L 245.31899 332.376729
L 248.18315 333.234947
L 252.479391 334.088721
L 256.775631 334.71277
L 262.503952 335.254149
L 268.232273 335.543488
L 276.824754 335.734589
L 278.256834 288.843791
L 279.688914 304.922074
L 281.120995 330.301215
L 282.553075 334.959993
L 283.985155 335.290745
L 286.849315 335.564726
L 292.577636 335.781889
L 305.466358 335.931712
L 308.330518 335.945496
L 309.762599 302.972495
L 311.194679 329.936365
L 312.626759 335.108861
L 314.058839 335.506579
L 316.923 335.708482
L 324.083401 335.831128
L 349.860844 335.948997
L 354.157085 335.957407
L 355.589165 297.781743
L 357.021245 324.825018
L 358.453326 335.079821
L 359.885406 335.64045
L 362.749566 335.816723
L 371.342047 335.903003
L 420.032774 336.005809
L 421.464854 309.258399
L 422.896935 331.107202
L 424.329015 335.142433
L 425.761095 335.490659
L 428.625255 335.717539
L 434.353576 335.917247
L 445.810218 335.977352
L 474.451822 336.009462
L 475.883902 284.461723
L 477.315982 316.76702
L 478.748062 332.637808
L 480.180143 334.641065
L 481.612223 335.05957
L 484.476383 335.47145
L 488.772624 335.75703
L 495.933025 335.929859
L 505.957586 335.980718
L 507.389666 289.70383
L 508.821747 306.065498
L 510.253827 308.26763
L 511.685907 332.305067
L 513.117987 335.106989
L 514.550067 335.401889
L 517.414228 335.610694
L 526.006709 335.822853
L 538.895431 335.956465
L 567.537035 336.014519
L 568.969115 295.459703
L 570.401195 310.394201
L 573.265356 332.352307
L 574.697436 334.686934
L 576.129516 334.972614
L 581.857837 335.273357
L 590.450318 335.567539
L 591.882398 335.603276
L 593.314478 284.945903
L 594.746559 306.223439
L 596.178639 318.300975
L 597.610719 318.601174
L 599.042799 330.050082
L 600.474879 332.624306
L 601.90696 333.565723
L 603.33904 333.954665
L 607.63528 334.486595
L 614.795681 335.073331
L 621.956082 335.369927
L 631.980644 335.584057
L 640.573125 335.67253
L 640.573125 335.67253
" clip-path="url(#pc89be09b3f)" style="fill: none; stroke: #ff7f0e; stroke-width: 1.5; stroke-linecap: square"/>
   </g>
   <g id="line2d_35">
    <path d="M 70.605205 350.970625
L 70.605205 22.370625
" clip-path="url(#pc89be09b3f)" style="fill: none; stroke-dasharray: 3.7,1.6; stroke-dashoffset: 0; stroke: #7b2cbf; stroke-opacity: 0.85"/>
   </g>
   <g id="line2d_36">
    <path d="M 241.022749 350.970625
L 241.022749 22.370625
" clip-path="url(#pc89be09b3f)" style="fill: none; stroke-dasharray: 3.7,1.6; stroke-dashoffset: 0; stroke: #f77f00; stroke-opacity: 0.85"/>
   </g>
   <g id="line2d_37">
    <path d="M 268.232273 350.970625
L 268.232273 22.370625
" clip-path="url(#pc89be09b3f)" style="fill: none; stroke-dasharray: 3.7,1.6; stroke-dashoffset: 0; stroke: #d62828; stroke-opacity: 0.85"/>
   </g>
   <g id="patch_3">
    <path d="M 40.603125 350.970625
L 40.603125 22.370625
" style="fill: none; stroke: #000000; stroke-width: 0.8; stroke-linejoin: miter; stroke-linecap: square"/>
   </g>
   <g id="patch_4">
    <path d="M 669.143125 350.970625
L 669.143125 22.370625
" style="fill: none; stroke: #000000; stroke-width: 0.8; stroke-linejoin: miter; stroke-linecap: square"/>
   </g>
   <g id="patch_5">
    <path d="M 40.603125 350.970625
L 669.143125 350.970625
" style="fill: none; stroke: #000000; stroke-width: 0.8; stroke-linejoin: miter; stroke-linecap: square"/>
   </g>
   <g id="patch_6">
    <path d="M 40.603125 22.370625
L 669.143125 22.370625
" style="fill: none; stroke: #000000; stroke-width: 0.8; stroke-linejoin: miter; stroke-linecap: square"/>
   </g>
   <g id="text_19">
    <!-- CE loss (linear scale) | 30c62ebc -->
    <g transform="translate(257.264375 16.370625) scale(0.12 -0.12)">
     <defs>
      <path id="DejaVuSans-43" d="M 4122 4306
L 4122 3641
Q 3803 3938 3442 4084
Q 3081 4231 2675 4231
Q 1875 4231 1450 3742
Q 1025 3253 1025 2328
Q 1025 1406 1450 917
Q 1875 428 2675 428
Q 3081 428 3442 575
Q 3803 722 4122 1019
L 4122 359
Q 3791 134 3420 21
Q 3050 -91 2638 -91
Q 1578 -91 968 557
Q 359 1206 359 2328
Q 359 3453 968 4101
Q 1578 4750 2638 4750
Q 3056 4750 3426 4639
Q 3797 4528 4122 4306
z
" transform="scale(0.015625)"/>
      <path id="DejaVuSans-45" d="M 628 4666
L 3578 4666
L 3578 4134
L 1259 4134
L 1259 2753
L 3481 2753
L 3481 2222
L 1259 2222
L 1259 531
L 3634 531
L 3634 0
L 628 0
L 628 4666
z
" transform="scale(0.015625)"/>
      <path id="DejaVuSans-6c" d="M 603 4863
L 1178 4863
L 1178 0
L 603 0
L 603 4863
z
" transform="scale(0.015625)"/>
      <path id="DejaVuSans-28" d="M 1984 4856
Q 1566 4138 1362 3434
Q 1159 2731 1159 2009
Q 1159 1288 1364 580
Q 1569 -128 1984 -844
L 1484 -844
Q 1016 -109 783 600
Q 550 1309 550 2009
Q 550 2706 781 3412
Q 1013 4119 1484 4856
L 1984 4856
z
" transform="scale(0.015625)"/>
      <path id="DejaVuSans-29" d="M 513 4856
L 1013 4856
Q 1481 4119 1714 3412
Q 1947 2706 1947 2009
Q 1947 1309 1714 600
Q 1481 -109 1013 -844
L 513 -844
Q 928 -128 1133 580
Q 1338 1288 1338 2009
Q 1338 2731 1133 3434
Q 928 4138 513 4856
z
" transform="scale(0.015625)"/>
      <path id="DejaVuSans-7c" d="M 1344 4891
L 1344 -1509
L 813 -1509
L 813 4891
L 1344 4891
z
" transform="scale(0.015625)"/>
      <path id="DejaVuSans-36" d="M 2113 2584
Q 1688 2584 1439 2293
Q 1191 2003 1191 1497
Q 1191 994 1439 701
Q 1688 409 2113 409
Q 2538 409 2786 701
Q 3034 994 3034 1497
Q 3034 2003 2786 2293
Q 2538 2584 2113 2584
z
M 3366 4563
L 3366 3988
Q 3128 4100 2886 4159
Q 2644 4219 2406 4219
Q 1781 4219 1451 3797
Q 1122 3375 1075 2522
Q 1259 2794 1537 2939
Q 1816 3084 2150 3084
Q 2853 3084 3261 2657
Q 3669 2231 3669 1497
Q 3669 778 3244 343
Q 2819 -91 2113 -91
Q 1303 -91 875 529
Q 447 1150 447 2328
Q 447 3434 972 4092
Q 1497 4750 2381 4750
Q 2619 4750 2861 4703
Q 3103 4656 3366 4563
z
" transform="scale(0.015625)"/>
      <path id="DejaVuSans-62" d="M 3116 1747
Q 3116 2381 2855 2742
Q 2594 3103 2138 3103
Q 1681 3103 1420 2742
Q 1159 2381 1159 1747
Q 1159 1113 1420 752
Q 1681 391 2138 391
Q 2594 391 2855 752
Q 3116 1113 3116 1747
z
M 1159 2969
Q 1341 3281 1617 3432
Q 1894 3584 2278 3584
Q 2916 3584 3314 3078
Q 3713 2572 3713 1747
Q 3713 922 3314 415
Q 2916 -91 2278 -91
Q 1894 -91 1617 61
Q 1341 213 1159 525
L 1159 0
L 581 0
L 581 4863
L 1159 4863
L 1159 2969
z
" transform="scale(0.015625)"/>
     </defs>
     <use xlink:href="#DejaVuSans-43"/>
     <use xlink:href="#DejaVuSans-45" transform="translate(69.824219 0)"/>
     <use xlink:href="#DejaVuSans-20" transform="translate(133.007812 0)"/>
     <use xlink:href="#DejaVuSans-6c" transform="translate(164.794922 0)"/>
     <use xlink:href="#DejaVuSans-6f" transform="translate(192.578125 0)"/>
     <use xlink:href="#DejaVuSans-73" transform="translate(253.759766 0)"/>
     <use xlink:href="#DejaVuSans-73" transform="translate(305.859375 0)"/>
     <use xlink:href="#DejaVuSans-20" transform="translate(357.958984 0)"/>
     <use xlink:href="#DejaVuSans-28" transform="translate(389.746094 0)"/>
     <use xlink:href="#DejaVuSans-6c" transform="translate(428.759766 0)"/>
     <use xlink:href="#DejaVuSans-69" transform="translate(456.542969 0)"/>
     <use xlink:href="#DejaVuSans-6e" transform="translate(484.326172 0)"/>
     <use xlink:href="#DejaVuSans-65" transform="translate(547.705078 0)"/>
     <use xlink:href="#DejaVuSans-61" transform="translate(609.228516 0)"/>
     <use xlink:href="#DejaVuSans-72" transform="translate(670.507812 0)"/>
     <use xlink:href="#DejaVuSans-20" transform="translate(711.621094 0)"/>
     <use xlink:href="#DejaVuSans-73" transform="translate(743.408203 0)"/>
     <use xlink:href="#DejaVuSans-63" transform="translate(795.507812 0)"/>
     <use xlink:href="#DejaVuSans-61" transform="translate(850.488281 0)"/>
     <use xlink:href="#DejaVuSans-6c" transform="translate(911.767578 0)"/>
     <use xlink:href="#DejaVuSans-65" transform="translate(939.550781 0)"/>
     <use xlink:href="#DejaVuSans-29" transform="translate(1001.074219 0)"/>
     <use xlink:href="#DejaVuSans-20" transform="translate(1040.087891 0)"/>
     <use xlink:href="#DejaVuSans-7c" transform="translate(1071.875 0)"/>
     <use xlink:href="#DejaVuSans-20" transform="translate(1105.566406 0)"/>
     <use xlink:href="#DejaVuSans-33" transform="translate(1137.353516 0)"/>
     <use xlink:href="#DejaVuSans-30" transform="translate(1200.976562 0)"/>
     <use xlink:href="#DejaVuSans-63" transform="translate(1264.599609 0)"/>
     <use xlink:href="#DejaVuSans-36" transform="translate(1319.580078 0)"/>
     <use xlink:href="#DejaVuSans-32" transform="translate(1383.203125 0)"/>
     <use xlink:href="#DejaVuSans-65" transform="translate(1446.826172 0)"/>
     <use xlink:href="#DejaVuSans-62" transform="translate(1508.349609 0)"/>
     <use xlink:href="#DejaVuSans-63" transform="translate(1571.826172 0)"/>
    </g>
   </g>
   <g id="legend_1">
    <g id="patch_7">
     <path d="M 459.144375 64.665625
L 663.543125 64.665625
Q 665.143125 64.665625 665.143125 63.065625
L 665.143125 27.970625
Q 665.143125 26.370625 663.543125 26.370625
L 459.144375 26.370625
Q 457.544375 26.370625 457.544375 27.970625
L 457.544375 63.065625
Q 457.544375 64.665625 459.144375 64.665625
z
" style="fill: #ffffff; opacity: 0.8; stroke: #cccccc; stroke-linejoin: miter"/>
    </g>
    <g id="line2d_38">
     <path d="M 460.744375 32.849375
L 468.744375 32.849375
L 476.744375 32.849375
" style="fill: none; stroke: #1f77b4; stroke-width: 1.5; stroke-linecap: square"/>
    </g>
    <g id="text_20">
     <!-- train_cross_entropy -->
     <g transform="translate(483.144375 35.649375) scale(0.08 -0.08)">
      <defs>
       <path id="DejaVuSans-5f" d="M 3263 -1063
L 3263 -1509
L -63 -1509
L -63 -1063
L 3263 -1063
z
" transform="scale(0.015625)"/>
      </defs>
      <use xlink:href="#DejaVuSans-74"/>
      <use xlink:href="#DejaVuSans-72" transform="translate(39.208984 0)"/>
      <use xlink:href="#DejaVuSans-61" transform="translate(80.322266 0)"/>
      <use xlink:href="#DejaVuSans-69" transform="translate(141.601562 0)"/>
      <use xlink:href="#DejaVuSans-6e" transform="translate(169.384766 0)"/>
      <use xlink:href="#DejaVuSans-5f" transform="translate(232.763672 0)"/>
      <use xlink:href="#DejaVuSans-63" transform="translate(282.763672 0)"/>
      <use xlink:href="#DejaVuSans-72" transform="translate(337.744141 0)"/>
      <use xlink:href="#DejaVuSans-6f" transform="translate(376.607422 0)"/>
      <use xlink:href="#DejaVuSans-73" transform="translate(437.789062 0)"/>
      <use xlink:href="#DejaVuSans-73" transform="translate(489.888672 0)"/>
      <use xlink:href="#DejaVuSans-5f" transform="translate(541.988281 0)"/>
      <use xlink:href="#DejaVuSans-65" transform="translate(591.988281 0)"/>
      <use xlink:href="#DejaVuSans-6e" transform="translate(653.511719 0)"/>
      <use xlink:href="#DejaVuSans-74" transform="translate(716.890625 0)"/>
      <use xlink:href="#DejaVuSans-72" transform="translate(756.099609 0)"/>
      <use xlink:href="#DejaVuSans-6f" transform="translate(794.962891 0)"/>
      <use xlink:href="#DejaVuSans-70" transform="translate(856.144531 0)"/>
      <use xlink:href="#DejaVuSans-79" transform="translate(919.621094 0)"/>
     </g>
    </g>
    <g id="line2d_39">
     <path d="M 460.744375 44.814375
L 468.744375 44.814375
L 476.744375 44.814375
" style="fill: none; stroke: #ff7f0e; stroke-width: 1.5; stroke-linecap: square"/>
    </g>
    <g id="text_21">
     <!-- test_cross_entropy -->
     <g transform="translate(483.144375 47.614375) scale(0.08 -0.08)">
      <use xlink:href="#DejaVuSans-74"/>
      <use xlink:href="#DejaVuSans-65" transform="translate(39.208984 0)"/>
      <use xlink:href="#DejaVuSans-73" transform="translate(100.732422 0)"/>
      <use xlink:href="#DejaVuSans-74" transform="translate(152.832031 0)"/>
      <use xlink:href="#DejaVuSans-5f" transform="translate(192.041016 0)"/>
      <use xlink:href="#DejaVuSans-63" transform="translate(242.041016 0)"/>
      <use xlink:href="#DejaVuSans-72" transform="translate(297.021484 0)"/>
      <use xlink:href="#DejaVuSans-6f" transform="translate(335.884766 0)"/>
      <use xlink:href="#DejaVuSans-73" transform="translate(397.066406 0)"/>
      <use xlink:href="#DejaVuSans-73" transform="translate(449.166016 0)"/>
      <use xlink:href="#DejaVuSans-5f" transform="translate(501.265625 0)"/>
      <use xlink:href="#DejaVuSans-65" transform="translate(551.265625 0)"/>
      <use xlink:href="#DejaVuSans-6e" transform="translate(612.789062 0)"/>
      <use xlink:href="#DejaVuSans-74" transform="translate(676.167969 0)"/>
      <use xlink:href="#DejaVuSans-72" transform="translate(715.376953 0)"/>
      <use xlink:href="#DejaVuSans-6f" transform="translate(754.240234 0)"/>
      <use xlink:href="#DejaVuSans-70" transform="translate(815.421875 0)"/>
      <use xlink:href="#DejaVuSans-79" transform="translate(878.898438 0)"/>
     </g>
    </g>
    <g id="line2d_40">
     <path d="M 460.744375 56.779375
L 468.744375 56.779375
L 476.744375 56.779375
" style="fill: none; stroke-dasharray: 3.7,1.6; stroke-dashoffset: 0; stroke: #7b2cbf; stroke-opacity: 0.85"/>
    </g>
    <g id="text_22">
     <!-- t_fit=100 -->
     <g transform="translate(483.144375 59.579375) scale(0.08 -0.08)">
      <defs>
       <path id="DejaVuSans-66" d="M 2375 4863
L 2375 4384
L 1825 4384
Q 1516 4384 1395 4259
Q 1275 4134 1275 3809
L 1275 3500
L 2222 3500
L 2222 3053
L 1275 3053
L 1275 0
L 697 0
L 697 3053
L 147 3053
L 147 3500
L 697 3500
L 697 3744
Q 697 4328 969 4595
Q 1241 4863 1831 4863
L 2375 4863
z
" transform="scale(0.015625)"/>
       <path id="DejaVuSans-3d" d="M 678 2906
L 4684 2906
L 4684 2381
L 678 2381
L 678 2906
z
M 678 1631
L 4684 1631
L 4684 1100
L 678 1100
L 678 1631
z
" transform="scale(0.015625)"/>
      </defs>
      <use xlink:href="#DejaVuSans-74"/>
      <use xlink:href="#DejaVuSans-5f" transform="translate(39.208984 0)"/>
      <use xlink:href="#DejaVuSans-66" transform="translate(89.208984 0)"/>
      <use xlink:href="#DejaVuSans-69" transform="translate(124.414062 0)"/>
      <use xlink:href="#DejaVuSans-74" transform="translate(152.197266 0)"/>
      <use xlink:href="#DejaVuSans-3d" transform="translate(191.40625 0)"/>
      <use xlink:href="#DejaVuSans-31" transform="translate(275.195312 0)"/>
      <use xlink:href="#DejaVuSans-30" transform="translate(338.818359 0)"/>
      <use xlink:href="#DejaVuSans-30" transform="translate(402.441406 0)"/>
     </g>
    </g>
    <g id="line2d_41">
     <path d="M 577.448125 32.849375
L 585.448125 32.849375
L 593.448125 32.849375
" style="fill: none; stroke-dasharray: 3.7,1.6; stroke-dashoffset: 0; stroke: #f77f00; stroke-opacity: 0.85"/>
    </g>
    <g id="text_23">
     <!-- t_grok50=6050 -->
     <g transform="translate(599.848125 35.649375) scale(0.08 -0.08)">
      <defs>
       <path id="DejaVuSans-67" d="M 2906 1791
Q 2906 2416 2648 2759
Q 2391 3103 1925 3103
Q 1463 3103 1205 2759
Q 947 2416 947 1791
Q 947 1169 1205 825
Q 1463 481 1925 481
Q 2391 481 2648 825
Q 2906 1169 2906 1791
z
M 3481 434
Q 3481 -459 3084 -895
Q 2688 -1331 1869 -1331
Q 1566 -1331 1297 -1286
Q 1028 -1241 775 -1147
L 775 -588
Q 1028 -725 1275 -790
Q 1522 -856 1778 -856
Q 2344 -856 2625 -561
Q 2906 -266 2906 331
L 2906 616
Q 2728 306 2450 153
Q 2172 0 1784 0
Q 1141 0 747 490
Q 353 981 353 1791
Q 353 2603 747 3093
Q 1141 3584 1784 3584
Q 2172 3584 2450 3431
Q 2728 3278 2906 2969
L 2906 3500
L 3481 3500
L 3481 434
z
" transform="scale(0.015625)"/>
       <path id="DejaVuSans-6b" d="M 581 4863
L 1159 4863
L 1159 1991
L 2875 3500
L 3609 3500
L 1753 1863
L 3688 0
L 2938 0
L 1159 1709
L 1159 0
L 581 0
L 581 4863
z
" transform="scale(0.015625)"/>
      </defs>
      <use xlink:href="#DejaVuSans-74"/>
      <use xlink:href="#DejaVuSans-5f" transform="translate(39.208984 0)"/>
      <use xlink:href="#DejaVuSans-67" transform="translate(89.208984 0)"/>
      <use xlink:href="#DejaVuSans-72" transform="translate(152.685547 0)"/>
      <use xlink:href="#DejaVuSans-6f" transform="translate(191.548828 0)"/>
      <use xlink:href="#DejaVuSans-6b" transform="translate(252.730469 0)"/>
      <use xlink:href="#DejaVuSans-35" transform="translate(310.640625 0)"/>
      <use xlink:href="#DejaVuSans-30" transform="translate(374.263672 0)"/>
      <use xlink:href="#DejaVuSans-3d" transform="translate(437.886719 0)"/>
      <use xlink:href="#DejaVuSans-36" transform="translate(521.675781 0)"/>
      <use xlink:href="#DejaVuSans-30" transform="translate(585.298828 0)"/>
      <use xlink:href="#DejaVuSans-35" transform="translate(648.921875 0)"/>
      <use xlink:href="#DejaVuSans-30" transform="translate(712.544922 0)"/>
     </g>
    </g>
    <g id="line2d_42">
     <path d="M 577.448125 44.814375
L 585.448125 44.814375
L 593.448125 44.814375
" style="fill: none; stroke-dasharray: 3.7,1.6; stroke-dashoffset: 0; stroke: #d62828; stroke-opacity: 0.85"/>
    </g>
    <g id="text_24">
     <!-- t_grok99=7000 -->
     <g transform="translate(599.848125 47.614375) scale(0.08 -0.08)">
      <defs>
       <path id="DejaVuSans-39" d="M 703 97
L 703 672
Q 941 559 1184 500
Q 1428 441 1663 441
Q 2288 441 2617 861
Q 2947 1281 2994 2138
Q 2813 1869 2534 1725
Q 2256 1581 1919 1581
Q 1219 1581 811 2004
Q 403 2428 403 3163
Q 403 3881 828 4315
Q 1253 4750 1959 4750
Q 2769 4750 3195 4129
Q 3622 3509 3622 2328
Q 3622 1225 3098 567
Q 2575 -91 1691 -91
Q 1453 -91 1209 -44
Q 966 3 703 97
z
M 1959 2075
Q 2384 2075 2632 2365
Q 2881 2656 2881 3163
Q 2881 3666 2632 3958
Q 2384 4250 1959 4250
Q 1534 4250 1286 3958
Q 1038 3666 1038 3163
Q 1038 2656 1286 2365
Q 1534 2075 1959 2075
z
" transform="scale(0.015625)"/>
      </defs>
      <use xlink:href="#DejaVuSans-74"/>
      <use xlink:href="#DejaVuSans-5f" transform="translate(39.208984 0)"/>
      <use xlink:href="#DejaVuSans-67" transform="translate(89.208984 0)"/>
      <use xlink:href="#DejaVuSans-72" transform="translate(152.685547 0)"/>
      <use xlink:href="#DejaVuSans-6f" transform="translate(191.548828 0)"/>
      <use xlink:href="#DejaVuSans-6b" transform="translate(252.730469 0)"/>
      <use xlink:href="#DejaVuSans-39" transform="translate(310.640625 0)"/>
      <use xlink:href="#DejaVuSans-39" transform="translate(374.263672 0)"/>
      <use xlink:href="#DejaVuSans-3d" transform="translate(437.886719 0)"/>
      <use xlink:href="#DejaVuSans-37" transform="translate(521.675781 0)"/>
      <use xlink:href="#DejaVuSans-30" transform="translate(585.298828 0)"/>
      <use xlink:href="#DejaVuSans-30" transform="translate(648.921875 0)"/>
      <use xlink:href="#DejaVuSans-30" transform="translate(712.544922 0)"/>
     </g>
    </g>
   </g>
  </g>
 </g>
 <defs>
  <clipPath id="pc89be09b3f">
   <rect x="40.603125" y="22.370625" width="628.54" height="328.6"/>
  </clipPath>
 </defs>
</svg>
