<?xml version="1.0" encoding="utf-8" standalone="no"?>
<!DOCTYPE svg PUBLIC "-//W3C//DTD SVG 1.1//EN"
  "http://www.w3.org/Graphics/SVG/1.1/DTD/svg11.dtd">
<svg xmlns:xlink="http://www.w3.org/1999/xlink" width="748.315625pt" height="424.526875pt" viewBox="0 0 748.315625 424.526875" xmlns="http://www.w3.org/2000/svg" version="1.1">
 <metadata>
  <rdf:RDF xmlns:dc="http://purl.org/dc/elements/1.1/" xmlns:cc="http://creativecommons.org/ns#" xmlns:rdf="http://www.w3.org/1999/02/22-rdf-syntax-ns#">
   <cc:Work>
    <dc:type rdf:resource="http://purl.org/dc/dcmitype/StillImage"/>
    <dc:date>2026-07-23T14:31:34.875356</dc:date>
    <dc:format>image/svg+xml</dc:format>
    <dc:creator>
     <cc:Agent>
      <dc:title>Matplotlib v3.10.9, https://matplotlib.org/</dc:title>
     </cc:Agent>
    </dc:creator>
   </cc:Work>
  </rdf:RDF>
 </metadata>
 <defs>
  <style type="text/css">*{stroke-linejoin: round; stroke-linecap: butt}</style>
 </defs>
 <g id="figure_1">
  <g id="patch_1">
   <path d="M 0 424.526875
L 748.315625 424.526875
L 748.315625 0
L 0 0
z
" style="fill: #ffffff"/>
  </g>
  <g id="axes_1">
   <g id="patch_2">
    <path d="M 46.965625 386.970625
L 741.115625 386.970625
L 741.115625 22.370625
L 46.965625 22.370625
z
" style="fill: #ffffff"/>
   </g>
   <g id="matplotlib.axis_1">
    <g id="xtick_1">
     <g id="line2d_1">
      <path d="M 76.93633 386.970625
L 76.93633 22.370625
" clip-path="url(#pe413a8c12b)" style="fill: none; stroke: #b0b0b0; stroke-opacity: 0.25; stroke-width: 0.8; stroke-linecap: square"/>
     </g>
     <g id="line2d_2">
      <defs>
       <path id="mf283fce6c8" d="M 0 0
L 0 3.5
" style="stroke: #000000; stroke-width: 0.8"/>
      </defs>
      <g>
       <use xlink:href="#mf283fce6c8" x="76.93633" y="386.970625" style="stroke: #000000; stroke-width: 0.8"/>
      </g>
     </g>
     <g id="text_1">
      <!-- 0 -->
      <g transform="translate(73.75508 401.569062) scale(0.1 -0.1)">
       <defs>
        <path id="DejaVuSans-30" d="M 2034 4250
Q 1547 4250 1301 3770
Q 1056 3291 1056 2328
Q 1056 1369 1301 889
Q 1547 409 2034 409
Q 2525 409 2770 889
Q 3016 1369 3016 2328
Q 3016 3291 2770 3770
Q 2525 4250 2034 4250
z
M 2034 4750
Q 2819 4750 3233 4129
Q 3647 3509 3647 2328
Q 3647 1150 3233 529
Q 2819 -91 2034 -91
Q 1250 -91 836 529
Q 422 1150 422 2328
Q 422 3509 836 4129
Q 1250 4750 2034 4750
z
" transform="scale(0.015625)"/>
       </defs>
       <use xlink:href="#DejaVuSans-30"/>
      </g>
     </g>
    </g>
    <g id="xtick_2">
     <g id="line2d_3">
      <path d="M 156.014708 386.970625
L 156.014708 22.370625
" clip-path="url(#pe413a8c12b)" style="fill: none; stroke: #b0b0b0; stroke-opacity: 0.25; stroke-width: 0.8; stroke-linecap: square"/>
     </g>
     <g id="line2d_4">
      <g>
       <use xlink:href="#mf283fce6c8" x="156.014708" y="386.970625" style="stroke: #000000; stroke-width: 0.8"/>
      </g>
     </g>
     <g id="text_2">
      <!-- 2500 -->
      <g transform="translate(143.289708 401.569062) scale(0.1 -0.1)">
       <defs>
        <path id="DejaVuSans-32" d="M 1228 531
L 3431 531
L 3431 0
L 469 0
L 469 531
Q 828 903 1448 1529
Q 2069 2156 2228 2338
Q 2531 2678 2651 2914
Q 2772 3150 2772 3378
Q 2772 3750 2511 3984
Q 2250 4219 1831 4219
Q 1534 4219 1204 4116
Q 875 4013 500 3803
L 500 4441
Q 881 4594 1212 4672
Q 1544 4750 1819 4750
Q 2544 4750 2975 4387
Q 3406 4025 3406 3419
Q 3406 3131 3298 2873
Q 3191 2616 2906 2266
Q 2828 2175 2409 1742
Q 1991 1309 1228 531
z
" transform="scale(0.015625)"/>
        <path id="DejaVuSans-35" d="M 691 4666
L 3169 4666
L 3169 4134
L 1269 4134
L 1269 2991
Q 1406 3038 1543 3061
Q 1681 3084 1819 3084
Q 2600 3084 3056 2656
Q 3513 2228 3513 1497
Q 3513 744 3044 326
Q 2575 -91 1722 -91
Q 1428 -91 1123 -41
Q 819 9 494 109
L 494 744
Q 775 591 1075 516
Q 1375 441 1709 441
Q 2250 441 2565 725
Q 2881 1009 2881 1497
Q 2881 1984 2565 2268
Q 2250 2553 1709 2553
Q 1456 2553 1204 2497
Q 953 2441 691 2322
L 691 4666
z
" transform="scale(0.015625)"/>
       </defs>
       <use xlink:href="#DejaVuSans-32"/>
       <use xlink:href="#DejaVuSans-35" transform="translate(63.623047 0)"/>
       <use xlink:href="#DejaVuSans-30" transform="translate(127.246094 0)"/>
       <use xlink:href="#DejaVuSans-30" transform="translate(190.869141 0)"/>
      </g>
     </g>
    </g>
    <g id="xtick_3">
     <g id="line2d_5">
      <path d="M 235.093086 386.970625
L 235.093086 22.370625
" clip-path="url(#pe413a8c12b)" style="fill: none; stroke: #b0b0b0; stroke-opacity: 0.25; stroke-width: 0.8; stroke-linecap: square"/>
     </g>
     <g id="line2d_6">
      <g>
       <use xlink:href="#mf283fce6c8" x="235.093086" y="386.970625" style="stroke: #000000; stroke-width: 0.8"/>
      </g>
     </g>
     <g id="text_3">
      <!-- 5000 -->
      <g transform="translate(222.368086 401.569062) scale(0.1 -0.1)">
       <use xlink:href="#DejaVuSans-35"/>
       <use xlink:href="#DejaVuSans-30" transform="translate(63.623047 0)"/>
       <use xlink:href="#DejaVuSans-30" transform="translate(127.246094 0)"/>
       <use xlink:href="#DejaVuSans-30" transform="translate(190.869141 0)"/>
      </g>
     </g>
    </g>
    <g id="xtick_4">
     <g id="line2d_7">
      <path d="M 314.171463 386.970625
L 314.171463 22.370625
" clip-path="url(#pe413a8c12b)" style="fill: none; stroke: #b0b0b0; stroke-opacity: 0.25; stroke-width: 0.8; stroke-linecap: square"/>
     </g>
     <g id="line2d_8">
      <g>
       <use xlink:href="#mf283fce6c8" x="314.171463" y="386.970625" style="stroke: #000000; stroke-width: 0.8"/>
      </g>
     </g>
     <g id="text_4">
      <!-- 7500 -->
      <g transform="translate(301.446463 401.569062) scale(0.1 -0.1)">
       <defs>
        <path id="DejaVuSans-37" d="M 525 4666
L 3525 4666
L 3525 4397
L 1831 0
L 1172 0
L 2766 4134
L 525 4134
L 525 4666
z
" transform="scale(0.015625)"/>
       </defs>
       <use xlink:href="#DejaVuSans-37"/>
       <use xlink:href="#DejaVuSans-35" transform="translate(63.623047 0)"/>
       <use xlink:href="#DejaVuSans-30" transform="translate(127.246094 0)"/>
       <use xlink:href="#DejaVuSans-30" transform="translate(190.869141 0)"/>
      </g>
     </g>
    </g>
    <g id="xtick_5">
     <g id="line2d_9">
      <path d="M 393.249841 386.970625
L 393.249841 22.370625
" clip-path="url(#pe413a8c12b)" style="fill: none; stroke: #b0b0b0; stroke-opacity: 0.25; stroke-width: 0.8; stroke-linecap: square"/>
     </g>
     <g id="line2d_10">
      <g>
       <use xlink:href="#mf283fce6c8" x="393.249841" y="386.970625" style="stroke: #000000; stroke-width: 0.8"/>
      </g>
     </g>
     <g id="text_5">
      <!-- 10000 -->
      <g transform="translate(377.343591 401.569062) scale(0.1 -0.1)">
       <defs>
        <path id="DejaVuSans-31" d="M 794 531
L 1825 531
L 1825 4091
L 703 3866
L 703 4441
L 1819 4666
L 2450 4666
L 2450 531
L 3481 531
L 3481 0
L 794 0
L 794 531
z
" transform="scale(0.015625)"/>
       </defs>
       <use xlink:href="#DejaVuSans-31"/>
       <use xlink:href="#DejaVuSans-30" transform="translate(63.623047 0)"/>
       <use xlink:href="#DejaVuSans-30" transform="translate(127.246094 0)"/>
       <use xlink:href="#DejaVuSans-30" transform="translate(190.869141 0)"/>
       <use xlink:href="#DejaVuSans-30" transform="translate(254.492188 0)"/>
      </g>
     </g>
    </g>
    <g id="xtick_6">
     <g id="line2d_11">
      <path d="M 472.328219 386.970625
L 472.328219 22.370625
" clip-path="url(#pe413a8c12b)" style="fill: none; stroke: #b0b0b0; stroke-opacity: 0.25; stroke-width: 0.8; stroke-linecap: square"/>
     </g>
     <g id="line2d_12">
      <g>
       <use xlink:href="#mf283fce6c8" x="472.328219" y="386.970625" style="stroke: #000000; stroke-width: 0.8"/>
      </g>
     </g>
     <g id="text_6">
      <!-- 12500 -->
      <g transform="translate(456.421969 401.569062) scale(0.1 -0.1)">
       <use xlink:href="#DejaVuSans-31"/>
       <use xlink:href="#DejaVuSans-32" transform="translate(63.623047 0)"/>
       <use xlink:href="#DejaVuSans-35" transform="translate(127.246094 0)"/>
       <use xlink:href="#DejaVuSans-30" transform="translate(190.869141 0)"/>
       <use xlink:href="#DejaVuSans-30" transform="translate(254.492188 0)"/>
      </g>
     </g>
    </g>
    <g id="xtick_7">
     <g id="line2d_13">
      <path d="M 551.406597 386.970625
L 551.406597 22.370625
" clip-path="url(#pe413a8c12b)" style="fill: none; stroke: #b0b0b0; stroke-opacity: 0.25; stroke-width: 0.8; stroke-linecap: square"/>
     </g>
     <g id="line2d_14">
      <g>
       <use xlink:href="#mf283fce6c8" x="551.406597" y="386.970625" style="stroke: #000000; stroke-width: 0.8"/>
      </g>
     </g>
     <g id="text_7">
      <!-- 15000 -->
      <g transform="translate(535.500347 401.569062) scale(0.1 -0.1)">
       <use xlink:href="#DejaVuSans-31"/>
       <use xlink:href="#DejaVuSans-35" transform="translate(63.623047 0)"/>
       <use xlink:href="#DejaVuSans-30" transform="translate(127.246094 0)"/>
       <use xlink:href="#DejaVuSans-30" transform="translate(190.869141 0)"/>
       <use xlink:href="#DejaVuSans-30" transform="translate(254.492188 0)"/>
      </g>
     </g>
    </g>
    <g id="xtick_8">
     <g id="line2d_15">
      <path d="M 630.484975 386.970625
L 630.484975 22.370625
" clip-path="url(#pe413a8c12b)" style="fill: none; stroke: #b0b0b0; stroke-opacity: 0.25; stroke-width: 0.8; stroke-linecap: square"/>
     </g>
     <g id="line2d_16">
      <g>
       <use xlink:href="#mf283fce6c8" x="630.484975" y="386.970625" style="stroke: #000000; stroke-width: 0.8"/>
      </g>
     </g>
     <g id="text_8">
      <!-- 17500 -->
      <g transform="translate(614.578725 401.569062) scale(0.1 -0.1)">
       <use xlink:href="#DejaVuSans-31"/>
       <use xlink:href="#DejaVuSans-37" transform="translate(63.623047 0)"/>
       <use xlink:href="#DejaVuSans-35" transform="translate(127.246094 0)"/>
       <use xlink:href="#DejaVuSans-30" transform="translate(190.869141 0)"/>
       <use xlink:href="#DejaVuSans-30" transform="translate(254.492188 0)"/>
      </g>
     </g>
    </g>
    <g id="xtick_9">
     <g id="line2d_17">
      <path d="M 709.563352 386.970625
L 709.563352 22.370625
" clip-path="url(#pe413a8c12b)" style="fill: none; stroke: #b0b0b0; stroke-opacity: 0.25; stroke-width: 0.8; stroke-linecap: square"/>
     </g>
     <g id="line2d_18">
      <g>
       <use xlink:href="#mf283fce6c8" x="709.563352" y="386.970625" style="stroke: #000000; stroke-width: 0.8"/>
      </g>
     </g>
     <g id="text_9">
      <!-- 20000 -->
      <g transform="translate(693.657102 401.569062) scale(0.1 -0.1)">
       <use xlink:href="#DejaVuSans-32"/>
       <use xlink:href="#DejaVuSans-30" transform="translate(63.623047 0)"/>
       <use xlink:href="#DejaVuSans-30" transform="translate(127.246094 0)"/>
       <use xlink:href="#DejaVuSans-30" transform="translate(190.869141 0)"/>
       <use xlink:href="#DejaVuSans-30" transform="translate(254.492188 0)"/>
      </g>
     </g>
    </g>
    <g id="text_10">
     <!-- optimizer update step -->
     <g transform="translate(338.830469 415.247187) scale(0.1 -0.1)">
      <defs>
       <path id="DejaVuSans-6f" d="M 1959 3097
Q 1497 3097 1228 2736
Q 959 2375 959 1747
Q 959 1119 1226 758
Q 1494 397 1959 397
Q 2419 397 2687 759
Q 2956 1122 2956 1747
Q 2956 2369 2687 2733
Q 2419 3097 1959 3097
z
M 1959 3584
Q 2709 3584 3137 3096
Q 3566 2609 3566 1747
Q 3566 888 3137 398
Q 2709 -91 1959 -91
Q 1206 -91 779 398
Q 353 888 353 1747
Q 353 2609 779 3096
Q 1206 3584 1959 3584
z
" transform="scale(0.015625)"/>
       <path id="DejaVuSans-70" d="M 1159 525
L 1159 -1331
L 581 -1331
L 581 3500
L 1159 3500
L 1159 2969
Q 1341 3281 1617 3432
Q 1894 3584 2278 3584
Q 2916 3584 3314 3078
Q 3713 2572 3713 1747
Q 3713 922 3314 415
Q 2916 -91 2278 -91
Q 1894 -91 1617 61
Q 1341 213 1159 525
z
M 3116 1747
Q 3116 2381 2855 2742
Q 2594 3103 2138 3103
Q 1681 3103 1420 2742
Q 1159 2381 1159 1747
Q 1159 1113 1420 752
Q 1681 391 2138 391
Q 2594 391 2855 752
Q 3116 1113 3116 1747
z
" transform="scale(0.015625)"/>
       <path id="DejaVuSans-74" d="M 1172 4494
L 1172 3500
L 2356 3500
L 2356 3053
L 1172 3053
L 1172 1153
Q 1172 725 1289 603
Q 1406 481 1766 481
L 2356 481
L 2356 0
L 1766 0
Q 1100 0 847 248
Q 594 497 594 1153
L 594 3053
L 172 3053
L 172 3500
L 594 3500
L 594 4494
L 1172 4494
z
" transform="scale(0.015625)"/>
       <path id="DejaVuSans-69" d="M 603 3500
L 1178 3500
L 1178 0
L 603 0
L 603 3500
z
M 603 4863
L 1178 4863
L 1178 4134
L 603 4134
L 603 4863
z
" transform="scale(0.015625)"/>
       <path id="DejaVuSans-6d" d="M 3328 2828
Q 3544 3216 3844 3400
Q 4144 3584 4550 3584
Q 5097 3584 5394 3201
Q 5691 2819 5691 2113
L 5691 0
L 5113 0
L 5113 2094
Q 5113 2597 4934 2840
Q 4756 3084 4391 3084
Q 3944 3084 3684 2787
Q 3425 2491 3425 1978
L 3425 0
L 2847 0
L 2847 2094
Q 2847 2600 2669 2842
Q 2491 3084 2119 3084
Q 1678 3084 1418 2786
Q 1159 2488 1159 1978
L 1159 0
L 581 0
L 581 3500
L 1159 3500
L 1159 2956
Q 1356 3278 1631 3431
Q 1906 3584 2284 3584
Q 2666 3584 2933 3390
Q 3200 3197 3328 2828
z
" transform="scale(0.015625)"/>
       <path id="DejaVuSans-7a" d="M 353 3500
L 3084 3500
L 3084 2975
L 922 459
L 3084 459
L 3084 0
L 275 0
L 275 525
L 2438 3041
L 353 3041
L 353 3500
z
" transform="scale(0.015625)"/>
       <path id="DejaVuSans-65" d="M 3597 1894
L 3597 1613
L 953 1613
Q 991 1019 1311 708
Q 1631 397 2203 397
Q 2534 397 2845 478
Q 3156 559 3463 722
L 3463 178
Q 3153 47 2828 -22
Q 2503 -91 2169 -91
Q 1331 -91 842 396
Q 353 884 353 1716
Q 353 2575 817 3079
Q 1281 3584 2069 3584
Q 2775 3584 3186 3129
Q 3597 2675 3597 1894
z
M 3022 2063
Q 3016 2534 2758 2815
Q 2500 3097 2075 3097
Q 1594 3097 1305 2825
Q 1016 2553 972 2059
L 3022 2063
z
" transform="scale(0.015625)"/>
       <path id="DejaVuSans-72" d="M 2631 2963
Q 2534 3019 2420 3045
Q 2306 3072 2169 3072
Q 1681 3072 1420 2755
Q 1159 2438 1159 1844
L 1159 0
L 581 0
L 581 3500
L 1159 3500
L 1159 2956
Q 1341 3275 1631 3429
Q 1922 3584 2338 3584
Q 2397 3584 2469 3576
Q 2541 3569 2628 3553
L 2631 2963
z
" transform="scale(0.015625)"/>
       <path id="DejaVuSans-20" transform="scale(0.015625)"/>
       <path id="DejaVuSans-75" d="M 544 1381
L 544 3500
L 1119 3500
L 1119 1403
Q 1119 906 1312 657
Q 1506 409 1894 409
Q 2359 409 2629 706
Q 2900 1003 2900 1516
L 2900 3500
L 3475 3500
L 3475 0
L 2900 0
L 2900 538
Q 2691 219 2414 64
Q 2138 -91 1772 -91
Q 1169 -91 856 284
Q 544 659 544 1381
z
M 1991 3584
L 1991 3584
z
" transform="scale(0.015625)"/>
       <path id="DejaVuSans-64" d="M 2906 2969
L 2906 4863
L 3481 4863
L 3481 0
L 2906 0
L 2906 525
Q 2725 213 2448 61
Q 2172 -91 1784 -91
Q 1150 -91 751 415
Q 353 922 353 1747
Q 353 2572 751 3078
Q 1150 3584 1784 3584
Q 2172 3584 2448 3432
Q 2725 3281 2906 2969
z
M 947 1747
Q 947 1113 1208 752
Q 1469 391 1925 391
Q 2381 391 2643 752
Q 2906 1113 2906 1747
Q 2906 2381 2643 2742
Q 2381 3103 1925 3103
Q 1469 3103 1208 2742
Q 947 2381 947 1747
z
" transform="scale(0.015625)"/>
       <path id="DejaVuSans-61" d="M 2194 1759
Q 1497 1759 1228 1600
Q 959 1441 959 1056
Q 959 750 1161 570
Q 1363 391 1709 391
Q 2188 391 2477 730
Q 2766 1069 2766 1631
L 2766 1759
L 2194 1759
z
M 3341 1997
L 3341 0
L 2766 0
L 2766 531
Q 2569 213 2275 61
Q 1981 -91 1556 -91
Q 1019 -91 701 211
Q 384 513 384 1019
Q 384 1609 779 1909
Q 1175 2209 1959 2209
L 2766 2209
L 2766 2266
Q 2766 2663 2505 2880
Q 2244 3097 1772 3097
Q 1472 3097 1187 3025
Q 903 2953 641 2809
L 641 3341
Q 956 3463 1253 3523
Q 1550 3584 1831 3584
Q 2591 3584 2966 3190
Q 3341 2797 3341 1997
z
" transform="scale(0.015625)"/>
       <path id="DejaVuSans-73" d="M 2834 3397
L 2834 2853
Q 2591 2978 2328 3040
Q 2066 3103 1784 3103
Q 1356 3103 1142 2972
Q 928 2841 928 2578
Q 928 2378 1081 2264
Q 1234 2150 1697 2047
L 1894 2003
Q 2506 1872 2764 1633
Q 3022 1394 3022 966
Q 3022 478 2636 193
Q 2250 -91 1575 -91
Q 1294 -91 989 -36
Q 684 19 347 128
L 347 722
Q 666 556 975 473
Q 1284 391 1588 391
Q 1994 391 2212 530
Q 2431 669 2431 922
Q 2431 1156 2273 1281
Q 2116 1406 1581 1522
L 1381 1569
Q 847 1681 609 1914
Q 372 2147 372 2553
Q 372 3047 722 3315
Q 1072 3584 1716 3584
Q 2034 3584 2315 3537
Q 2597 3491 2834 3397
z
" transform="scale(0.015625)"/>
      </defs>
      <use xlink:href="#DejaVuSans-6f"/>
      <use xlink:href="#DejaVuSans-70" transform="translate(61.181641 0)"/>
      <use xlink:href="#DejaVuSans-74" transform="translate(124.658203 0)"/>
      <use xlink:href="#DejaVuSans-69" transform="translate(163.867188 0)"/>
      <use xlink:href="#DejaVuSans-6d" transform="translate(191.650391 0)"/>
      <use xlink:href="#DejaVuSans-69" transform="translate(289.0625 0)"/>
      <use xlink:href="#DejaVuSans-7a" transform="translate(316.845703 0)"/>
      <use xlink:href="#DejaVuSans-65" transform="translate(369.335938 0)"/>
      <use xlink:href="#DejaVuSans-72" transform="translate(430.859375 0)"/>
      <use xlink:href="#DejaVuSans-20" transform="translate(471.972656 0)"/>
      <use xlink:href="#DejaVuSans-75" transform="translate(503.759766 0)"/>
      <use xlink:href="#DejaVuSans-70" transform="translate(567.138672 0)"/>
      <use xlink:href="#DejaVuSans-64" transform="translate(630.615234 0)"/>
      <use xlink:href="#DejaVuSans-61" transform="translate(694.091797 0)"/>
      <use xlink:href="#DejaVuSans-74" transform="translate(755.371094 0)"/>
      <use xlink:href="#DejaVuSans-65" transform="translate(794.580078 0)"/>
      <use xlink:href="#DejaVuSans-20" transform="translate(856.103516 0)"/>
      <use xlink:href="#DejaVuSans-73" transform="translate(887.890625 0)"/>
      <use xlink:href="#DejaVuSans-74" transform="translate(939.990234 0)"/>
      <use xlink:href="#DejaVuSans-65" transform="translate(979.199219 0)"/>
      <use xlink:href="#DejaVuSans-70" transform="translate(1040.722656 0)"/>
     </g>
    </g>
   </g>
   <g id="matplotlib.axis_2">
    <g id="ytick_1">
     <g id="line2d_19">
      <path d="M 46.965625 370.641881
L 741.115625 370.641881
" clip-path="url(#pe413a8c12b)" style="fill: none; stroke: #b0b0b0; stroke-opacity: 0.25; stroke-width: 0.8; stroke-linecap: square"/>
     </g>
     <g id="line2d_20">
      <defs>
       <path id="m17a05042c3" d="M 0 0
L -3.5 0
" style="stroke: #000000; stroke-width: 0.8"/>
      </defs>
      <g>
       <use xlink:href="#m17a05042c3" x="46.965625" y="370.641881" style="stroke: #000000; stroke-width: 0.8"/>
      </g>
     </g>
     <g id="text_11">
      <!-- 0 -->
      <g transform="translate(33.603125 374.4411) scale(0.1 -0.1)">
       <use xlink:href="#DejaVuSans-30"/>
      </g>
     </g>
    </g>
    <g id="ytick_2">
     <g id="line2d_21">
      <path d="M 46.965625 309.888886
L 741.115625 309.888886
" clip-path="url(#pe413a8c12b)" style="fill: none; stroke: #b0b0b0; stroke-opacity: 0.25; stroke-width: 0.8; stroke-linecap: square"/>
     </g>
     <g id="line2d_22">
      <g>
       <use xlink:href="#m17a05042c3" x="46.965625" y="309.888886" style="stroke: #000000; stroke-width: 0.8"/>
      </g>
     </g>
     <g id="text_12">
      <!-- 20 -->
      <g transform="translate(27.240625 313.688105) scale(0.1 -0.1)">
       <use xlink:href="#DejaVuSans-32"/>
       <use xlink:href="#DejaVuSans-30" transform="translate(63.623047 0)"/>
      </g>
     </g>
    </g>
    <g id="ytick_3">
     <g id="line2d_23">
      <path d="M 46.965625 249.135892
L 741.115625 249.135892
" clip-path="url(#pe413a8c12b)" style="fill: none; stroke: #b0b0b0; stroke-opacity: 0.25; stroke-width: 0.8; stroke-linecap: square"/>
     </g>
     <g id="line2d_24">
      <g>
       <use xlink:href="#m17a05042c3" x="46.965625" y="249.135892" style="stroke: #000000; stroke-width: 0.8"/>
      </g>
     </g>
     <g id="text_13">
      <!-- 40 -->
      <g transform="translate(27.240625 252.93511) scale(0.1 -0.1)">
       <defs>
        <path id="DejaVuSans-34" d="M 2419 4116
L 825 1625
L 2419 1625
L 2419 4116
z
M 2253 4666
L 3047 4666
L 3047 1625
L 3713 1625
L 3713 1100
L 3047 1100
L 3047 0
L 2419 0
L 2419 1100
L 313 1100
L 313 1709
L 2253 4666
z
" transform="scale(0.015625)"/>
       </defs>
       <use xlink:href="#DejaVuSans-34"/>
       <use xlink:href="#DejaVuSans-30" transform="translate(63.623047 0)"/>
      </g>
     </g>
    </g>
    <g id="ytick_4">
     <g id="line2d_25">
      <path d="M 46.965625 188.382897
L 741.115625 188.382897
" clip-path="url(#pe413a8c12b)" style="fill: none; stroke: #b0b0b0; stroke-opacity: 0.25; stroke-width: 0.8; stroke-linecap: square"/>
     </g>
     <g id="line2d_26">
      <g>
       <use xlink:href="#m17a05042c3" x="46.965625" y="188.382897" style="stroke: #000000; stroke-width: 0.8"/>
      </g>
     </g>
     <g id="text_14">
      <!-- 60 -->
      <g transform="translate(27.240625 192.182116) scale(0.1 -0.1)">
       <defs>
        <path id="DejaVuSans-36" d="M 2113 2584
Q 1688 2584 1439 2293
Q 1191 2003 1191 1497
Q 1191 994 1439 701
Q 1688 409 2113 409
Q 2538 409 2786 701
Q 3034 994 3034 1497
Q 3034 2003 2786 2293
Q 2538 2584 2113 2584
z
M 3366 4563
L 3366 3988
Q 3128 4100 2886 4159
Q 2644 4219 2406 4219
Q 1781 4219 1451 3797
Q 1122 3375 1075 2522
Q 1259 2794 1537 2939
Q 1816 3084 2150 3084
Q 2853 3084 3261 2657
Q 3669 2231 3669 1497
Q 3669 778 3244 343
Q 2819 -91 2113 -91
Q 1303 -91 875 529
Q 447 1150 447 2328
Q 447 3434 972 4092
Q 1497 4750 2381 4750
Q 2619 4750 2861 4703
Q 3103 4656 3366 4563
z
" transform="scale(0.015625)"/>
       </defs>
       <use xlink:href="#DejaVuSans-36"/>
       <use xlink:href="#DejaVuSans-30" transform="translate(63.623047 0)"/>
      </g>
     </g>
    </g>
    <g id="ytick_5">
     <g id="line2d_27">
      <path d="M 46.965625 127.629902
L 741.115625 127.629902
" clip-path="url(#pe413a8c12b)" style="fill: none; stroke: #b0b0b0; stroke-opacity: 0.25; stroke-width: 0.8; stroke-linecap: square"/>
     </g>
     <g id="line2d_28">
      <g>
       <use xlink:href="#m17a05042c3" x="46.965625" y="127.629902" style="stroke: #000000; stroke-width: 0.8"/>
      </g>
     </g>
     <g id="text_15">
      <!-- 80 -->
      <g transform="translate(27.240625 131.429121) scale(0.1 -0.1)">
       <defs>
        <path id="DejaVuSans-38" d="M 2034 2216
Q 1584 2216 1326 1975
Q 1069 1734 1069 1313
Q 1069 891 1326 650
Q 1584 409 2034 409
Q 2484 409 2743 651
Q 3003 894 3003 1313
Q 3003 1734 2745 1975
Q 2488 2216 2034 2216
z
M 1403 2484
Q 997 2584 770 2862
Q 544 3141 544 3541
Q 544 4100 942 4425
Q 1341 4750 2034 4750
Q 2731 4750 3128 4425
Q 3525 4100 3525 3541
Q 3525 3141 3298 2862
Q 3072 2584 2669 2484
Q 3125 2378 3379 2068
Q 3634 1759 3634 1313
Q 3634 634 3220 271
Q 2806 -91 2034 -91
Q 1263 -91 848 271
Q 434 634 434 1313
Q 434 1759 690 2068
Q 947 2378 1403 2484
z
M 1172 3481
Q 1172 3119 1398 2916
Q 1625 2713 2034 2713
Q 2441 2713 2670 2916
Q 2900 3119 2900 3481
Q 2900 3844 2670 4047
Q 2441 4250 2034 4250
Q 1625 4250 1398 4047
Q 1172 3844 1172 3481
z
" transform="scale(0.015625)"/>
       </defs>
       <use xlink:href="#DejaVuSans-38"/>
       <use xlink:href="#DejaVuSans-30" transform="translate(63.623047 0)"/>
      </g>
     </g>
    </g>
    <g id="ytick_6">
     <g id="line2d_29">
      <path d="M 46.965625 66.876907
L 741.115625 66.876907
" clip-path="url(#pe413a8c12b)" style="fill: none; stroke: #b0b0b0; stroke-opacity: 0.25; stroke-width: 0.8; stroke-linecap: square"/>
     </g>
     <g id="line2d_30">
      <g>
       <use xlink:href="#m17a05042c3" x="46.965625" y="66.876907" style="stroke: #000000; stroke-width: 0.8"/>
      </g>
     </g>
     <g id="text_16">
      <!-- 100 -->
      <g transform="translate(20.878125 70.676126) scale(0.1 -0.1)">
       <use xlink:href="#DejaVuSans-31"/>
       <use xlink:href="#DejaVuSans-30" transform="translate(63.623047 0)"/>
       <use xlink:href="#DejaVuSans-30" transform="translate(127.246094 0)"/>
      </g>
     </g>
    </g>
    <g id="text_17">
     <!-- L2 norm -->
     <g transform="translate(14.798437 225.293281) rotate(-90) scale(0.1 -0.1)">
      <defs>
       <path id="DejaVuSans-4c" d="M 628 4666
L 1259 4666
L 1259 531
L 3531 531
L 3531 0
L 628 0
L 628 4666
z
" transform="scale(0.015625)"/>
       <path id="DejaVuSans-6e" d="M 3513 2113
L 3513 0
L 2938 0
L 2938 2094
Q 2938 2591 2744 2837
Q 2550 3084 2163 3084
Q 1697 3084 1428 2787
Q 1159 2491 1159 1978
L 1159 0
L 581 0
L 581 3500
L 1159 3500
L 1159 2956
Q 1366 3272 1645 3428
Q 1925 3584 2291 3584
Q 2894 3584 3203 3211
Q 3513 2838 3513 2113
z
" transform="scale(0.015625)"/>
      </defs>
      <use xlink:href="#DejaVuSans-4c"/>
      <use xlink:href="#DejaVuSans-32" transform="translate(55.712891 0)"/>
      <use xlink:href="#DejaVuSans-20" transform="translate(119.335938 0)"/>
      <use xlink:href="#DejaVuSans-6e" transform="translate(151.123047 0)"/>
      <use xlink:href="#DejaVuSans-6f" transform="translate(214.501953 0)"/>
      <use xlink:href="#DejaVuSans-72" transform="translate(275.683594 0)"/>
      <use xlink:href="#DejaVuSans-6d" transform="translate(315.046875 0)"/>
     </g>
    </g>
   </g>
   <g id="line2d_31">
    <path d="M 78.517898 325.641706
L 80.099465 322.379527
L 81.681033 322.619819
L 91.170438 327.921201
L 97.496708 331.105829
L 103.822979 334.018162
L 110.149249 336.691013
L 116.475519 339.151673
L 119.638654 340.310283
L 121.220222 334.613476
L 122.801789 334.857897
L 124.383357 335.349132
L 127.546492 336.766619
L 133.872762 339.812354
L 140.199032 342.55093
L 146.525303 345.004649
L 152.851573 347.20744
L 159.177843 349.187105
L 167.085681 351.388193
L 174.993519 353.324933
L 182.901356 355.029238
L 184.482924 355.343725
L 186.064491 345.250716
L 187.646059 343.445356
L 189.227627 343.514003
L 190.809194 341.961288
L 192.390762 338.996832
L 193.972329 337.49499
L 195.553897 336.637731
L 197.135464 336.183507
L 198.717032 336.660321
L 200.298599 336.982784
L 208.206437 340.092912
L 212.95114 341.741604
L 217.695843 343.198528
L 224.022113 344.916857
L 230.348383 346.436496
L 239.837788 348.424104
L 254.071896 351.083325
L 260.398167 352.201438
L 261.979734 343.893538
L 263.561302 343.515859
L 265.142869 343.679557
L 266.724437 344.400059
L 269.887572 345.629178
L 274.632275 347.369772
L 280.958545 349.45073
L 287.284815 351.302502
L 293.611085 352.953238
L 301.518923 354.768314
L 307.845193 356.044554
L 309.426761 351.562196
L 311.008328 349.717451
L 312.589896 350.116025
L 314.171463 350.733983
L 318.916166 352.116363
L 325.242436 353.726154
L 333.150274 355.478529
L 341.058112 356.990867
L 342.639679 357.267537
L 344.221247 349.226634
L 345.802815 349.459424
L 347.384382 350.131346
L 352.129085 351.564796
L 358.455355 353.222731
L 366.363193 355.030659
L 374.271031 356.589848
L 382.178868 357.929279
L 391.668274 359.285417
L 393.249841 359.48746
L 394.831409 354.624619
L 396.412976 352.568063
L 401.157679 353.74102
L 409.065517 355.421024
L 416.973355 356.867868
L 424.881192 358.103938
L 434.370598 359.343332
L 443.860003 360.349563
L 454.930976 361.267646
L 466.001949 361.960165
L 467.583516 344.895328
L 469.165084 345.154027
L 475.491354 347.450363
L 481.817624 349.494568
L 488.143895 351.314294
L 494.470165 352.933241
L 502.378003 354.701792
L 510.28584 356.220812
L 518.193678 357.523726
L 526.101516 358.637106
L 527.683083 356.430178
L 529.264651 350.211721
L 530.846219 351.101417
L 532.427786 351.678525
L 537.172489 352.947127
L 543.498759 354.389116
L 551.406597 355.921962
L 559.314435 357.219138
L 560.896002 357.454315
L 562.47757 350.626005
L 564.059137 348.402778
L 565.640705 348.483809
L 567.222272 348.371293
L 571.966975 349.896171
L 578.293245 351.632832
L 584.619515 353.15731
L 592.527353 354.81303
L 600.435191 356.214347
L 608.343029 357.395572
L 617.832434 358.564828
L 627.321839 359.509091
L 628.903407 359.647835
L 630.484975 347.352208
L 632.066542 346.481149
L 633.64811 346.308469
L 639.97438 348.447353
L 646.30065 350.281237
L 652.62692 351.891383
L 655.790055 352.619134
L 657.371623 347.53976
L 658.953191 346.776847
L 660.534758 346.587555
L 662.116326 346.104829
L 663.697893 346.369841
L 666.861028 347.352534
L 674.768866 349.524701
L 681.095136 351.05968
L 687.421406 352.402173
L 695.329244 353.8242
L 703.237082 355.014193
L 709.563352 355.827193
L 709.563352 355.827193
" clip-path="url(#pe413a8c12b)" style="fill: none; stroke: #1f77b4; stroke-width: 1.1; stroke-linecap: square"/>
   </g>
   <g id="line2d_32">
    <path d="M 78.517898 320.197096
L 80.099465 318.496663
L 81.681033 318.008187
L 86.425736 317.601524
L 99.078276 316.806202
L 114.893951 316.060135
L 119.638654 315.879111
L 121.220222 316.795957
L 122.801789 316.899768
L 129.128059 316.6739
L 144.943735 316.125111
L 171.830383 315.309806
L 184.482924 315.037824
L 187.646059 315.227668
L 190.809194 314.939547
L 195.553897 314.229991
L 197.135464 314.063545
L 200.298599 314.074142
L 255.653464 312.808085
L 266.724437 312.688909
L 269.887572 312.770425
L 309.426761 312.499292
L 314.171463 312.416639
L 342.639679 312.362676
L 344.221247 312.544521
L 350.547517 312.479742
L 394.831409 312.322324
L 399.576111 311.95302
L 418.554922 311.820259
L 466.001949 311.652682
L 467.583516 310.99861
L 469.165084 310.697455
L 470.746651 310.512076
L 478.654489 310.40678
L 515.030543 310.278527
L 630.484975 309.977922
L 635.229677 309.85974
L 655.790055 309.80365
L 657.371623 310.096221
L 658.953191 310.209142
L 662.116326 310.000792
L 674.768866 309.880549
L 709.563352 309.792985
L 709.563352 309.792985
" clip-path="url(#pe413a8c12b)" style="fill: none; stroke: #ff7f0e; stroke-width: 1.1; stroke-linecap: square"/>
   </g>
   <g id="line2d_33">
    <path d="M 78.517898 320.160915
L 80.099465 316.557374
L 81.681033 316.600915
L 88.007303 320.548431
L 94.333573 324.306075
L 100.659844 327.738841
L 106.986114 330.867666
L 113.312384 333.724671
L 119.638654 336.335126
L 121.220222 327.167918
L 122.801789 327.419216
L 124.383357 328.283361
L 125.964924 328.489278
L 127.546492 328.073016
L 129.128059 328.453895
L 133.872762 330.567568
L 140.199032 333.273063
L 144.943735 335.077127
L 151.270005 337.219531
L 157.596275 339.122295
L 165.504113 341.255775
L 176.575086 343.96154
L 184.482924 345.761002
L 186.064491 339.090738
L 187.646059 337.937022
L 193.972329 340.872212
L 197.135464 342.083787
L 198.717032 342.221121
L 200.298599 342.115783
L 201.880167 342.158893
L 205.043302 342.68059
L 219.27741 345.872724
L 225.60368 346.961129
L 233.511518 348.061367
L 243.000923 349.110834
L 260.398167 350.880221
L 261.979734 340.824277
L 263.561302 340.386981
L 265.142869 340.346604
L 266.724437 339.384937
L 268.306004 338.701161
L 269.887572 339.064593
L 274.632275 340.738843
L 284.12168 344.090029
L 292.029518 346.665501
L 299.937355 348.970492
L 307.845193 351.006433
L 309.426761 344.060701
L 311.008328 338.803821
L 312.589896 336.689581
L 314.171463 336.496707
L 328.405571 342.163635
L 336.313409 344.905075
L 342.639679 346.936444
L 344.221247 340.839291
L 345.802815 336.552444
L 347.384382 336.005199
L 350.547517 337.206124
L 360.036923 341.076189
L 366.363193 343.436685
L 374.271031 346.122169
L 382.178868 348.531373
L 390.086706 350.672083
L 393.249841 351.456115
L 394.831409 343.87209
L 396.412976 338.152885
L 397.994544 336.224642
L 399.576111 336.528404
L 404.320814 338.424358
L 413.810219 342.244584
L 420.13649 344.567868
L 426.46276 346.67953
L 432.78903 348.587583
L 440.696868 350.706864
L 448.604706 352.549818
L 456.512543 354.149131
L 464.420381 355.529406
L 466.001949 355.781373
L 467.583516 337.542759
L 469.165084 334.548108
L 470.746651 333.585908
L 472.328219 334.03473
L 477.072922 336.0752
L 484.980759 339.50225
L 492.888597 342.652397
L 500.796435 345.512513
L 507.122705 347.588299
L 515.030543 349.919432
L 522.938381 351.977493
L 526.101516 352.729173
L 527.683083 349.27745
L 529.264651 338.740097
L 530.846219 338.468572
L 532.427786 338.925398
L 546.661894 344.632689
L 552.988164 346.842993
L 559.314435 348.836322
L 560.896002 349.302452
L 562.47757 345.966619
L 564.059137 344.295359
L 565.640705 344.292794
L 567.222272 343.992668
L 568.80384 344.172235
L 575.13011 346.193013
L 583.037948 348.603443
L 590.945786 350.742006
L 598.853623 352.634419
L 606.761461 354.300091
L 614.669299 355.7514
L 622.577137 357.008737
L 628.903407 357.883469
L 630.484975 343.434214
L 632.066542 342.253131
L 633.64811 342.384874
L 635.229677 342.666493
L 638.392812 343.620806
L 647.882218 346.793863
L 655.790055 349.127436
L 657.371623 345.048513
L 658.953191 344.196117
L 662.116326 344.608378
L 671.605731 346.794457
L 682.676704 349.568248
L 690.584542 351.311185
L 700.073947 353.162975
L 709.563352 354.76884
L 709.563352 354.76884
" clip-path="url(#pe413a8c12b)" style="fill: none; stroke: #2ca02c; stroke-width: 1.1; stroke-linecap: square"/>
   </g>
   <g id="line2d_34">
    <path d="M 78.517898 322.868285
L 80.099465 314.558979
L 81.681033 313.779808
L 84.844168 315.496193
L 92.752006 319.953154
L 99.078276 323.229449
L 105.404546 326.24959
L 111.730816 329.034879
L 118.057087 331.601836
L 119.638654 332.211673
L 121.220222 329.144482
L 122.801789 329.614004
L 124.383357 329.88249
L 125.964924 329.058249
L 127.546492 328.488866
L 129.128059 328.979026
L 140.199032 333.970798
L 146.525303 336.41332
L 152.851573 338.584121
L 160.759411 341.00574
L 168.667248 343.186938
L 178.156654 345.572532
L 184.482924 347.035128
L 186.064491 340.666521
L 187.646059 339.583308
L 193.972329 342.560326
L 197.135464 344.100585
L 200.298599 345.189924
L 206.62487 347.176969
L 212.95114 349.093843
L 219.27741 350.80735
L 225.60368 352.325621
L 233.511518 353.981195
L 241.419356 355.417675
L 250.908761 356.903484
L 260.398167 358.165015
L 261.979734 351.163503
L 263.561302 351.03893
L 266.724437 352.044294
L 269.887572 352.677199
L 279.376977 354.918361
L 287.284815 356.55653
L 295.192653 357.987344
L 304.682058 359.462464
L 307.845193 359.899247
L 309.426761 354.110114
L 311.008328 351.925731
L 312.589896 351.895917
L 314.171463 352.14841
L 322.079301 354.077052
L 329.987139 355.766955
L 337.894977 357.246309
L 342.639679 358.041995
L 344.221247 352.201816
L 345.802815 351.832941
L 352.129085 353.383593
L 360.036923 355.167982
L 367.94476 356.72086
L 375.852598 358.071868
L 385.342003 359.455944
L 393.249841 360.436756
L 394.831409 357.430331
L 396.412976 355.236551
L 397.994544 355.462166
L 401.157679 356.240949
L 407.483949 357.508466
L 415.391787 358.839197
L 424.881192 360.166418
L 434.370598 361.268351
L 445.441571 362.322714
L 456.512543 363.163023
L 466.001949 363.740765
L 467.583516 352.977463
L 469.165084 352.355302
L 470.746651 352.456054
L 488.143895 356.335551
L 496.051732 357.77075
L 503.95957 359.002154
L 513.448975 360.237595
L 522.938381 361.25005
L 526.101516 361.5446
L 527.683083 360.952339
L 529.264651 353.992921
L 530.846219 350.847275
L 532.427786 350.499943
L 534.009354 350.615604
L 538.754056 351.415843
L 560.896002 355.513517
L 562.47757 352.336164
L 564.059137 348.827965
L 565.640705 347.400156
L 567.222272 345.079569
L 568.80384 345.405055
L 579.874813 348.977553
L 586.201083 350.745956
L 592.527353 352.292159
L 598.853623 353.645743
L 605.179894 354.804881
L 614.669299 356.265495
L 624.158704 357.469387
L 628.903407 357.978403
L 630.484975 347.154668
L 632.066542 344.127268
L 633.64811 343.713801
L 635.229677 343.841465
L 636.811245 344.140421
L 654.208488 349.288136
L 655.790055 349.694857
L 657.371623 346.012077
L 658.953191 344.904957
L 660.534758 344.582267
L 663.697893 344.897107
L 666.861028 345.77664
L 677.932001 349.230032
L 684.258271 350.919192
L 690.584542 352.396729
L 698.492379 353.97777
L 706.400217 355.312195
L 709.563352 355.787987
L 709.563352 355.787987
" clip-path="url(#pe413a8c12b)" style="fill: none; stroke: #d62728; stroke-width: 1.1; stroke-linecap: square"/>
   </g>
   <g id="line2d_35">
    <path d="M 78.517898 319.883449
L 80.099465 316.773116
L 81.681033 315.756818
L 84.844168 315.18953
L 91.170438 314.365726
L 100.659844 313.359194
L 111.730816 312.421182
L 119.638654 311.869461
L 121.220222 312.70691
L 122.801789 312.78201
L 124.383357 312.675477
L 125.964924 311.881851
L 127.546492 310.74222
L 129.128059 310.271767
L 132.291195 309.841121
L 141.7806 308.935138
L 154.43314 307.92261
L 167.085681 307.135688
L 179.738221 306.573659
L 184.482924 306.406666
L 186.064491 307.082185
L 187.646059 307.213599
L 197.135464 306.963801
L 198.717032 306.636557
L 201.880167 305.722014
L 205.043302 305.219499
L 211.369572 304.692888
L 225.60368 303.817873
L 241.419356 303.068909
L 257.235031 302.549183
L 260.398167 302.468729
L 261.979734 303.301342
L 265.142869 303.308058
L 268.306004 302.850779
L 269.887572 302.603781
L 274.632275 302.330854
L 288.866383 301.919862
L 307.845193 301.451998
L 309.426761 301.796884
L 311.008328 301.845623
L 314.171463 301.443964
L 323.660869 301.222143
L 342.639679 300.826136
L 344.221247 301.765975
L 345.802815 301.804664
L 348.96595 301.627384
L 371.107895 301.182721
L 393.249841 300.784664
L 394.831409 301.199237
L 396.412976 301.224554
L 397.994544 300.979959
L 404.320814 300.796933
L 431.207463 300.149523
L 466.001949 299.293034
L 467.583516 299.997388
L 473.909787 299.534155
L 526.101516 298.274649
L 527.683083 298.530443
L 529.264651 298.926401
L 532.427786 298.581463
L 538.754056 298.422528
L 560.896002 298.073707
L 562.47757 298.564536
L 564.059137 298.677733
L 565.640705 298.560504
L 567.222272 298.635583
L 568.80384 298.428528
L 575.13011 298.202595
L 614.669299 297.321858
L 628.903407 297.05522
L 630.484975 297.959843
L 632.066542 297.888831
L 638.392812 297.173034
L 649.463785 296.895655
L 655.790055 296.767155
L 657.371623 297.241955
L 658.953191 297.291418
L 665.279461 296.86057
L 668.442596 296.590154
L 676.350434 296.258785
L 701.655514 295.528852
L 709.563352 295.33181
L 709.563352 295.33181
" clip-path="url(#pe413a8c12b)" style="fill: none; stroke: #9467bd; stroke-width: 1.1; stroke-linecap: square"/>
   </g>
   <g id="line2d_36">
    <path d="M 78.517898 316.502638
L 80.099465 298.714354
L 81.681033 293.670446
L 83.2626 293.50015
L 84.844168 293.784718
L 88.007303 294.735182
L 92.752006 296.499304
L 100.659844 299.759665
L 119.638654 307.96234
L 121.220222 306.617611
L 122.801789 305.506028
L 124.383357 301.045313
L 127.546492 274.554854
L 129.128059 271.240333
L 130.709627 270.881343
L 132.291195 271.159361
L 135.45433 272.287008
L 144.943735 276.350378
L 157.596275 281.912602
L 165.504113 285.658148
L 171.830383 288.904034
L 182.901356 294.910749
L 184.482924 295.777199
L 186.064491 294.920529
L 187.646059 295.725098
L 189.227627 297.087335
L 190.809194 297.936574
L 192.390762 298.296726
L 193.972329 298.187546
L 195.553897 296.538147
L 197.135464 295.797642
L 198.717032 292.556913
L 200.298599 288.135278
L 201.880167 284.844083
L 203.461735 283.519413
L 205.043302 283.358113
L 206.62487 283.710024
L 209.788005 284.998979
L 230.348383 294.69949
L 260.398167 307.966487
L 261.979734 307.660829
L 263.561302 308.515178
L 265.142869 308.575158
L 268.306004 304.325645
L 269.887572 303.474108
L 271.469139 303.824811
L 273.050707 304.518865
L 277.79541 307.109551
L 284.12168 310.554532
L 288.866383 312.831423
L 293.611085 314.756545
L 298.355788 316.333173
L 303.100491 317.586705
L 307.845193 318.566522
L 309.426761 318.849512
L 311.008328 318.057683
L 312.589896 315.345536
L 314.171463 313.736105
L 315.753031 314.278898
L 326.824004 319.402515
L 329.987139 320.572228
L 333.150274 321.566766
L 336.313409 322.389744
L 341.058112 323.338671
L 342.639679 323.59059
L 344.221247 324.717712
L 345.802815 323.266308
L 347.384382 322.12982
L 348.96595 322.316011
L 353.710652 323.709072
L 358.455355 325.031483
L 363.200058 326.048332
L 367.94476 326.762435
L 372.689463 327.226494
L 379.015733 327.551148
L 385.342003 327.636565
L 393.249841 327.527499
L 394.831409 330.098498
L 396.412976 328.981982
L 397.994544 326.909828
L 399.576111 326.849905
L 402.739247 327.754183
L 407.483949 329.249837
L 410.647084 330.096254
L 413.810219 330.784905
L 418.554922 331.540929
L 423.299625 332.030448
L 429.625895 332.4073
L 437.533733 332.625839
L 453.349408 332.772027
L 466.001949 332.882793
L 467.583516 332.412886
L 469.165084 329.177103
L 470.746651 326.324367
L 472.328219 325.978826
L 473.909787 326.153913
L 477.072922 326.869903
L 484.980759 328.827065
L 489.725462 329.735385
L 494.470165 330.37732
L 499.214867 330.757902
L 503.95957 330.91747
L 510.28584 330.8883
L 519.775246 330.564484
L 526.101516 330.268885
L 527.683083 331.10237
L 529.264651 327.837825
L 530.846219 322.770645
L 532.427786 320.601399
L 534.009354 320.438235
L 535.590921 320.748556
L 540.335624 322.223034
L 545.080327 323.674286
L 549.825029 324.836105
L 552.988164 325.422776
L 557.732867 326.03021
L 560.896002 326.275619
L 562.47757 325.150932
L 564.059137 323.486238
L 565.640705 322.215115
L 567.222272 322.180508
L 568.80384 320.264034
L 570.385407 320.22415
L 573.548543 321.006781
L 581.45638 323.345382
L 586.201083 324.459274
L 589.364218 325.023993
L 594.108921 325.596957
L 598.853623 325.884199
L 603.598326 325.953593
L 609.924596 325.836475
L 619.414002 325.418457
L 630.484975 324.767241
L 632.066542 324.23093
L 633.64811 323.053542
L 635.229677 321.494552
L 636.811245 320.127823
L 638.392812 320.154532
L 641.555947 321.020869
L 647.882218 323.004058
L 652.62692 324.265671
L 657.371623 325.392187
L 658.953191 324.568202
L 660.534758 323.876082
L 662.116326 323.723919
L 663.697893 323.097115
L 665.279461 321.711966
L 666.861028 320.927154
L 668.442596 320.602324
L 670.024163 320.558632
L 673.187299 320.848132
L 681.095136 321.842935
L 685.839839 322.197601
L 690.584542 322.334546
L 695.329244 322.284011
L 701.655514 321.985033
L 709.563352 321.404099
L 709.563352 321.404099
" clip-path="url(#pe413a8c12b)" style="fill: none; stroke: #8c564b; stroke-width: 1.1; stroke-linecap: square"/>
   </g>
   <g id="line2d_37">
    <path d="M 78.517898 321.863961
L 80.099465 323.478215
L 83.2626 325.878391
L 88.007303 329.170011
L 92.752006 332.21948
L 97.496708 335.046512
L 102.241411 337.666677
L 108.567681 340.863835
L 114.893951 343.75208
L 119.638654 345.733192
L 125.964924 349.33741
L 129.128059 350.550655
L 135.45433 352.531118
L 143.362167 354.738956
L 151.270005 356.68823
L 159.177843 358.403891
L 167.085681 359.910069
L 176.575086 361.471809
L 192.390762 363.933234
L 197.135464 364.913013
L 201.880167 365.55045
L 211.369572 366.312999
L 225.60368 367.229424
L 241.419356 368.020162
L 260.398167 368.725455
L 261.979734 368.136372
L 265.142869 368.296215
L 269.887572 368.584601
L 293.611085 369.214151
L 307.845193 369.490718
L 309.426761 369.388532
L 361.61849 370.09712
L 393.249841 370.300019
L 394.831409 369.94728
L 397.994544 369.914201
L 442.278435 370.287406
L 466.001949 370.397898
L 467.583516 369.277556
L 472.328219 369.416583
L 502.378003 369.875564
L 526.101516 370.114631
L 529.264651 370.030353
L 534.009354 370.113454
L 560.896002 370.287882
L 562.47757 369.347359
L 564.059137 369.182262
L 568.80384 369.40847
L 598.853623 369.864607
L 628.903407 370.155222
L 630.484975 369.491428
L 633.64811 369.580239
L 651.045353 369.813211
L 655.790055 369.869808
L 657.371623 369.178055
L 658.953191 369.114271
L 663.697893 369.44759
L 685.839839 369.796406
L 709.563352 370.060539
L 709.563352 370.060539
" clip-path="url(#pe413a8c12b)" style="fill: none; stroke: #e377c2; stroke-width: 1.1; stroke-linecap: square"/>
   </g>
   <g id="line2d_38">
    <path d="M 78.517898 38.943352
L 80.099465 46.155558
L 84.844168 69.864716
L 89.588871 91.941392
L 94.333573 112.481917
L 99.078276 131.590074
L 103.822979 149.363968
L 108.567681 165.893939
L 113.312384 181.264176
L 118.057087 195.55631
L 119.638654 200.093511
L 121.220222 200.669364
L 122.801789 202.075838
L 124.383357 201.994262
L 125.964924 202.875432
L 127.546492 206.770492
L 130.709627 215.38295
L 135.45433 227.334998
L 140.199032 238.499035
L 144.943735 248.958308
L 149.688438 258.752836
L 154.43314 267.918952
L 159.177843 276.483824
L 163.922546 284.479789
L 168.667248 291.926949
L 173.411951 298.84801
L 178.156654 305.272435
L 182.901356 311.228001
L 184.482924 313.114818
L 186.064491 311.874077
L 187.646059 312.078197
L 189.227627 312.695188
L 190.809194 313.013593
L 192.390762 312.920884
L 193.972329 312.367124
L 195.553897 312.273733
L 197.135464 311.811511
L 198.717032 312.297457
L 200.298599 312.964502
L 203.461735 315.672878
L 208.206437 319.762857
L 212.95114 323.610965
L 217.695843 327.220289
L 222.440545 330.606455
L 227.185248 333.775179
L 231.929951 336.735304
L 236.674653 339.494511
L 243.000923 342.88218
L 249.327194 345.94941
L 255.653464 348.721693
L 260.398167 350.62075
L 261.979734 348.76015
L 263.561302 348.539982
L 265.142869 347.790315
L 266.724437 346.390437
L 268.306004 345.763084
L 280.958545 350.358485
L 287.284815 352.371397
L 295.192653 354.630882
L 303.100491 356.63565
L 307.845193 357.729757
L 309.426761 355.90498
L 311.008328 354.889703
L 312.589896 354.404041
L 314.171463 354.673985
L 322.079301 356.55823
L 329.987139 358.228891
L 339.476544 359.984563
L 342.639679 360.516042
L 344.221247 356.579297
L 345.802815 355.967483
L 347.384382 356.200872
L 356.873787 358.220248
L 366.363193 359.9634
L 375.852598 361.467802
L 386.923571 362.967677
L 393.249841 363.717431
L 394.831409 361.282254
L 396.412976 359.356915
L 397.994544 359.423866
L 415.391787 362.074767
L 426.46276 363.439874
L 437.533733 364.592363
L 450.186273 365.69206
L 464.420381 366.705544
L 466.001949 366.805563
L 467.583516 359.081951
L 469.165084 358.404239
L 472.328219 358.936387
L 481.817624 360.575629
L 491.30703 361.990934
L 502.378003 363.39542
L 513.448975 364.572886
L 526.101516 365.68944
L 527.683083 364.736474
L 529.264651 361.071984
L 530.846219 360.464379
L 534.009354 360.853014
L 545.080327 362.41578
L 556.151299 363.745289
L 560.896002 364.250926
L 562.47757 360.810368
L 564.059137 359.203384
L 565.640705 358.437624
L 567.222272 357.858613
L 571.966975 358.72098
L 581.45638 360.390577
L 590.945786 361.832492
L 602.016759 363.262676
L 613.087731 364.466726
L 625.740272 365.614402
L 628.903407 365.867411
L 630.484975 360.617384
L 633.64811 359.330905
L 635.229677 359.277626
L 644.719083 360.906343
L 654.208488 362.289377
L 655.790055 362.499702
L 657.371623 358.610993
L 658.953191 357.734878
L 662.116326 356.85646
L 663.697893 356.825306
L 685.839839 360.892058
L 695.329244 362.263352
L 706.400217 363.619699
L 709.563352 363.964945
L 709.563352 363.964945
" clip-path="url(#pe413a8c12b)" style="fill: none; stroke: #7f7f7f; stroke-width: 1.1; stroke-linecap: square"/>
   </g>
   <g id="line2d_39">
    <path d="M 78.517898 350.555004
L 80.099465 342.784958
L 81.681033 340.884918
L 83.2626 340.875602
L 86.425736 341.264791
L 92.752006 342.383022
L 105.404546 344.926652
L 119.638654 347.790903
L 121.220222 346.692796
L 122.801789 346.904238
L 124.383357 346.863396
L 125.964924 345.479719
L 127.546492 343.518003
L 129.128059 343.19321
L 132.291195 343.664737
L 159.177843 349.086311
L 182.901356 353.452311
L 184.482924 353.728352
L 186.064491 352.330477
L 187.646059 352.045127
L 189.227627 351.99936
L 192.390762 351.579547
L 193.972329 351.310571
L 197.135464 349.864769
L 198.717032 348.656323
L 200.298599 347.165659
L 201.880167 346.075003
L 203.461735 345.645419
L 205.043302 345.579771
L 208.206437 345.835276
L 216.114275 346.944139
L 255.653464 352.880498
L 261.979734 353.847988
L 263.561302 353.765404
L 265.142869 353.337051
L 266.724437 351.996335
L 268.306004 350.881269
L 269.887572 350.476512
L 271.469139 350.54776
L 274.632275 350.996182
L 296.77422 354.72863
L 306.263626 355.938067
L 309.426761 356.359589
L 311.008328 355.525321
L 312.589896 354.053172
L 314.171463 353.550819
L 317.334599 353.995337
L 328.405571 355.705846
L 336.313409 356.657012
L 342.639679 357.266445
L 344.221247 355.46738
L 345.802815 354.739829
L 347.384382 354.413299
L 350.547517 354.733139
L 363.200058 356.357346
L 374.271031 357.481131
L 386.923571 358.526778
L 393.249841 358.979473
L 394.831409 358.949302
L 396.412976 357.166189
L 397.994544 356.056979
L 399.576111 356.015338
L 404.320814 356.525863
L 412.228652 357.383802
L 420.13649 358.014943
L 431.207463 358.642422
L 448.604706 359.369574
L 466.001949 359.968602
L 469.165084 356.694397
L 470.746651 355.908269
L 472.328219 355.920769
L 477.072922 356.443157
L 488.143895 357.734534
L 496.051732 358.43498
L 505.541138 359.026908
L 518.193678 359.564367
L 526.101516 359.827099
L 527.683083 359.543137
L 529.264651 356.631965
L 530.846219 355.722928
L 532.427786 355.540401
L 535.590921 355.907839
L 548.243462 357.678601
L 556.151299 358.54489
L 560.896002 358.97719
L 562.47757 358.702446
L 564.059137 358.152685
L 567.222272 356.725323
L 568.80384 356.451399
L 571.966975 356.752434
L 587.782651 358.649453
L 597.272056 359.520572
L 608.343029 360.315255
L 622.577137 361.120942
L 628.903407 361.423352
L 630.484975 359.743755
L 635.229677 357.468379
L 636.811245 357.204055
L 639.97438 357.440856
L 655.790055 359.112328
L 658.953191 357.961019
L 666.861028 356.758054
L 670.024163 356.881828
L 679.513569 357.762394
L 692.166109 358.849416
L 706.400217 359.835934
L 709.563352 360.027114
L 709.563352 360.027114
" clip-path="url(#pe413a8c12b)" style="fill: none; stroke: #bcbd22; stroke-width: 1.1; stroke-linecap: square"/>
   </g>
   <g id="line2d_40">
    <path d="M 80.099465 386.970625
L 80.099465 22.370625
" clip-path="url(#pe413a8c12b)" style="fill: none; stroke-dasharray: 3.7,1.6; stroke-dashoffset: 0; stroke: #7b2cbf; stroke-opacity: 0.85"/>
   </g>
   <g id="line2d_41">
    <path d="M 268.306004 386.970625
L 268.306004 22.370625
" clip-path="url(#pe413a8c12b)" style="fill: none; stroke-dasharray: 3.7,1.6; stroke-dashoffset: 0; stroke: #f77f00; stroke-opacity: 0.85"/>
   </g>
   <g id="line2d_42">
    <path d="M 298.355788 386.970625
L 298.355788 22.370625
" clip-path="url(#pe413a8c12b)" style="fill: none; stroke-dasharray: 3.7,1.6; stroke-dashoffset: 0; stroke: #d62828; stroke-opacity: 0.85"/>
   </g>
   <g id="patch_3">
    <path d="M 46.965625 386.970625
L 46.965625 22.370625
" style="fill: none; stroke: #000000; stroke-width: 0.8; stroke-linejoin: miter; stroke-linecap: square"/>
   </g>
   <g id="patch_4">
    <path d="M 741.115625 386.970625
L 741.115625 22.370625
" style="fill: none; stroke: #000000; stroke-width: 0.8; stroke-linejoin: miter; stroke-linecap: square"/>
   </g>
   <g id="patch_5">
    <path d="M 46.965625 386.970625
L 741.115625 386.970625
" style="fill: none; stroke: #000000; stroke-width: 0.8; stroke-linejoin: miter; stroke-linecap: square"/>
   </g>
   <g id="patch_6">
    <path d="M 46.965625 22.370625
L 741.115625 22.370625
" style="fill: none; stroke: #000000; stroke-width: 0.8; stroke-linejoin: miter; stroke-linecap: square"/>
   </g>
   <g id="text_18">
    <!-- Parameter norms by module | 30c62ebc -->
    <g transform="translate(273.249375 16.370625) scale(0.12 -0.12)">
     <defs>
      <path id="DejaVuSans-50" d="M 1259 4147
L 1259 2394
L 2053 2394
Q 2494 2394 2734 2622
Q 2975 2850 2975 3272
Q 2975 3691 2734 3919
Q 2494 4147 2053 4147
L 1259 4147
z
M 628 4666
L 2053 4666
Q 2838 4666 3239 4311
Q 3641 3956 3641 3272
Q 3641 2581 3239 2228
Q 2838 1875 2053 1875
L 1259 1875
L 1259 0
L 628 0
L 628 4666
z
" transform="scale(0.015625)"/>
      <path id="DejaVuSans-62" d="M 3116 1747
Q 3116 2381 2855 2742
Q 2594 3103 2138 3103
Q 1681 3103 1420 2742
Q 1159 2381 1159 1747
Q 1159 1113 1420 752
Q 1681 391 2138 391
Q 2594 391 2855 752
Q 3116 1113 3116 1747
z
M 1159 2969
Q 1341 3281 1617 3432
Q 1894 3584 2278 3584
Q 2916 3584 3314 3078
Q 3713 2572 3713 1747
Q 3713 922 3314 415
Q 2916 -91 2278 -91
Q 1894 -91 1617 61
Q 1341 213 1159 525
L 1159 0
L 581 0
L 581 4863
L 1159 4863
L 1159 2969
z
" transform="scale(0.015625)"/>
      <path id="DejaVuSans-79" d="M 2059 -325
Q 1816 -950 1584 -1140
Q 1353 -1331 966 -1331
L 506 -1331
L 506 -850
L 844 -850
Q 1081 -850 1212 -737
Q 1344 -625 1503 -206
L 1606 56
L 191 3500
L 800 3500
L 1894 763
L 2988 3500
L 3597 3500
L 2059 -325
z
" transform="scale(0.015625)"/>
      <path id="DejaVuSans-6c" d="M 603 4863
L 1178 4863
L 1178 0
L 603 0
L 603 4863
z
" transform="scale(0.015625)"/>
      <path id="DejaVuSans-7c" d="M 1344 4891
L 1344 -1509
L 813 -1509
L 813 4891
L 1344 4891
z
" transform="scale(0.015625)"/>
      <path id="DejaVuSans-33" d="M 2597 2516
Q 3050 2419 3304 2112
Q 3559 1806 3559 1356
Q 3559 666 3084 287
Q 2609 -91 1734 -91
Q 1441 -91 1130 -33
Q 819 25 488 141
L 488 750
Q 750 597 1062 519
Q 1375 441 1716 441
Q 2309 441 2620 675
Q 2931 909 2931 1356
Q 2931 1769 2642 2001
Q 2353 2234 1838 2234
L 1294 2234
L 1294 2753
L 1863 2753
Q 2328 2753 2575 2939
Q 2822 3125 2822 3475
Q 2822 3834 2567 4026
Q 2313 4219 1838 4219
Q 1578 4219 1281 4162
Q 984 4106 628 3988
L 628 4550
Q 988 4650 1302 4700
Q 1616 4750 1894 4750
Q 2613 4750 3031 4423
Q 3450 4097 3450 3541
Q 3450 3153 3228 2886
Q 3006 2619 2597 2516
z
" transform="scale(0.015625)"/>
      <path id="DejaVuSans-63" d="M 3122 3366
L 3122 2828
Q 2878 2963 2633 3030
Q 2388 3097 2138 3097
Q 1578 3097 1268 2742
Q 959 2388 959 1747
Q 959 1106 1268 751
Q 1578 397 2138 397
Q 2388 397 2633 464
Q 2878 531 3122 666
L 3122 134
Q 2881 22 2623 -34
Q 2366 -91 2075 -91
Q 1284 -91 818 406
Q 353 903 353 1747
Q 353 2603 823 3093
Q 1294 3584 2113 3584
Q 2378 3584 2631 3529
Q 2884 3475 3122 3366
z
" transform="scale(0.015625)"/>
     </defs>
     <use xlink:href="#DejaVuSans-50"/>
     <use xlink:href="#DejaVuSans-61" transform="translate(55.802734 0)"/>
     <use xlink:href="#DejaVuSans-72" transform="translate(117.082031 0)"/>
     <use xlink:href="#DejaVuSans-61" transform="translate(158.195312 0)"/>
     <use xlink:href="#DejaVuSans-6d" transform="translate(219.474609 0)"/>
     <use xlink:href="#DejaVuSans-65" transform="translate(316.886719 0)"/>
     <use xlink:href="#DejaVuSans-74" transform="translate(378.410156 0)"/>
     <use xlink:href="#DejaVuSans-65" transform="translate(417.619141 0)"/>
     <use xlink:href="#DejaVuSans-72" transform="translate(479.142578 0)"/>
     <use xlink:href="#DejaVuSans-20" transform="translate(520.255859 0)"/>
     <use xlink:href="#DejaVuSans-6e" transform="translate(552.042969 0)"/>
     <use xlink:href="#DejaVuSans-6f" transform="translate(615.421875 0)"/>
     <use xlink:href="#DejaVuSans-72" transform="translate(676.603516 0)"/>
     <use xlink:href="#DejaVuSans-6d" transform="translate(715.966797 0)"/>
     <use xlink:href="#DejaVuSans-73" transform="translate(813.378906 0)"/>
     <use xlink:href="#DejaVuSans-20" transform="translate(865.478516 0)"/>
     <use xlink:href="#DejaVuSans-62" transform="translate(897.265625 0)"/>
     <use xlink:href="#DejaVuSans-79" transform="translate(960.742188 0)"/>
     <use xlink:href="#DejaVuSans-20" transform="translate(1019.921875 0)"/>
     <use xlink:href="#DejaVuSans-6d" transform="translate(1051.708984 0)"/>
     <use xlink:href="#DejaVuSans-6f" transform="translate(1149.121094 0)"/>
     <use xlink:href="#DejaVuSans-64" transform="translate(1210.302734 0)"/>
     <use xlink:href="#DejaVuSans-75" transform="translate(1273.779297 0)"/>
     <use xlink:href="#DejaVuSans-6c" transform="translate(1337.158203 0)"/>
     <use xlink:href="#DejaVuSans-65" transform="translate(1364.941406 0)"/>
     <use xlink:href="#DejaVuSans-20" transform="translate(1426.464844 0)"/>
     <use xlink:href="#DejaVuSans-7c" transform="translate(1458.251953 0)"/>
     <use xlink:href="#DejaVuSans-20" transform="translate(1491.943359 0)"/>
     <use xlink:href="#DejaVuSans-33" transform="translate(1523.730469 0)"/>
     <use xlink:href="#DejaVuSans-30" transform="translate(1587.353516 0)"/>
     <use xlink:href="#DejaVuSans-63" transform="translate(1650.976562 0)"/>
     <use xlink:href="#DejaVuSans-36" transform="translate(1705.957031 0)"/>
     <use xlink:href="#DejaVuSans-32" transform="translate(1769.580078 0)"/>
     <use xlink:href="#DejaVuSans-65" transform="translate(1833.203125 0)"/>
     <use xlink:href="#DejaVuSans-62" transform="translate(1894.726562 0)"/>
     <use xlink:href="#DejaVuSans-63" transform="translate(1958.203125 0)"/>
    </g>
   </g>
   <g id="legend_1">
    <g id="patch_7">
     <path d="M 414.423437 90.786875
L 736.215625 90.786875
Q 737.615625 90.786875 737.615625 89.386875
L 737.615625 27.270625
Q 737.615625 25.870625 736.215625 25.870625
L 414.423437 25.870625
Q 413.023437 25.870625 413.023437 27.270625
L 413.023437 89.386875
Q 413.023437 90.786875 414.423437 90.786875
z
" style="fill: #ffffff; opacity: 0.8; stroke: #cccccc; stroke-linejoin: miter"/>
    </g>
    <g id="line2d_43">
     <path d="M 415.823437 31.539531
L 422.823437 31.539531
L 429.823437 31.539531
" style="fill: none; stroke: #1f77b4; stroke-width: 1.1; stroke-linecap: square"/>
    </g>
    <g id="text_19">
     <!-- parameter_norm_blocks.0.attention -->
     <g transform="translate(435.423437 33.989531) scale(0.07 -0.07)">
      <defs>
       <path id="DejaVuSans-5f" d="M 3263 -1063
L 3263 -1509
L -63 -1509
L -63 -1063
L 3263 -1063
z
" transform="scale(0.015625)"/>
       <path id="DejaVuSans-6b" d="M 581 4863
L 1159 4863
L 1159 1991
L 2875 3500
L 3609 3500
L 1753 1863
L 3688 0
L 2938 0
L 1159 1709
L 1159 0
L 581 0
L 581 4863
z
" transform="scale(0.015625)"/>
       <path id="DejaVuSans-2e" d="M 684 794
L 1344 794
L 1344 0
L 684 0
L 684 794
z
" transform="scale(0.015625)"/>
      </defs>
      <use xlink:href="#DejaVuSans-70"/>
      <use xlink:href="#DejaVuSans-61" transform="translate(63.476562 0)"/>
      <use xlink:href="#DejaVuSans-72" transform="translate(124.755859 0)"/>
      <use xlink:href="#DejaVuSans-61" transform="translate(165.869141 0)"/>
      <use xlink:href="#DejaVuSans-6d" transform="translate(227.148438 0)"/>
      <use xlink:href="#DejaVuSans-65" transform="translate(324.560547 0)"/>
      <use xlink:href="#DejaVuSans-74" transform="translate(386.083984 0)"/>
      <use xlink:href="#DejaVuSans-65" transform="translate(425.292969 0)"/>
      <use xlink:href="#DejaVuSans-72" transform="translate(486.816406 0)"/>
      <use xlink:href="#DejaVuSans-5f" transform="translate(527.929688 0)"/>
      <use xlink:href="#DejaVuSans-6e" transform="translate(577.929688 0)"/>
      <use xlink:href="#DejaVuSans-6f" transform="translate(641.308594 0)"/>
      <use xlink:href="#DejaVuSans-72" transform="translate(702.490234 0)"/>
      <use xlink:href="#DejaVuSans-6d" transform="translate(741.853516 0)"/>
      <use xlink:href="#DejaVuSans-5f" transform="translate(839.265625 0)"/>
      <use xlink:href="#DejaVuSans-62" transform="translate(889.265625 0)"/>
      <use xlink:href="#DejaVuSans-6c" transform="translate(952.742188 0)"/>
      <use xlink:href="#DejaVuSans-6f" transform="translate(980.525391 0)"/>
      <use xlink:href="#DejaVuSans-63" transform="translate(1041.707031 0)"/>
      <use xlink:href="#DejaVuSans-6b" transform="translate(1096.6875 0)"/>
      <use xlink:href="#DejaVuSans-73" transform="translate(1154.597656 0)"/>
      <use xlink:href="#DejaVuSans-2e" transform="translate(1206.697266 0)"/>
      <use xlink:href="#DejaVuSans-30" transform="translate(1238.484375 0)"/>
      <use xlink:href="#DejaVuSans-2e" transform="translate(1302.107422 0)"/>
      <use xlink:href="#DejaVuSans-61" transform="translate(1333.894531 0)"/>
      <use xlink:href="#DejaVuSans-74" transform="translate(1395.173828 0)"/>
      <use xlink:href="#DejaVuSans-74" transform="translate(1434.382812 0)"/>
      <use xlink:href="#DejaVuSans-65" transform="translate(1473.591797 0)"/>
      <use xlink:href="#DejaVuSans-6e" transform="translate(1535.115234 0)"/>
      <use xlink:href="#DejaVuSans-74" transform="translate(1598.494141 0)"/>
      <use xlink:href="#DejaVuSans-69" transform="translate(1637.703125 0)"/>
      <use xlink:href="#DejaVuSans-6f" transform="translate(1665.486328 0)"/>
      <use xlink:href="#DejaVuSans-6e" transform="translate(1726.667969 0)"/>
     </g>
    </g>
    <g id="line2d_44">
     <path d="M 415.823437 42.008906
L 422.823437 42.008906
L 429.823437 42.008906
" style="fill: none; stroke: #ff7f0e; stroke-width: 1.1; stroke-linecap: square"/>
    </g>
    <g id="text_20">
     <!-- parameter_norm_blocks.0.layer_norm -->
     <g transform="translate(435.423437 44.458906) scale(0.07 -0.07)">
      <use xlink:href="#DejaVuSans-70"/>
      <use xlink:href="#DejaVuSans-61" transform="translate(63.476562 0)"/>
      <use xlink:href="#DejaVuSans-72" transform="translate(124.755859 0)"/>
      <use xlink:href="#DejaVuSans-61" transform="translate(165.869141 0)"/>
      <use xlink:href="#DejaVuSans-6d" transform="translate(227.148438 0)"/>
      <use xlink:href="#DejaVuSans-65" transform="translate(324.560547 0)"/>
      <use xlink:href="#DejaVuSans-74" transform="translate(386.083984 0)"/>
      <use xlink:href="#DejaVuSans-65" transform="translate(425.292969 0)"/>
      <use xlink:href="#DejaVuSans-72" transform="translate(486.816406 0)"/>
      <use xlink:href="#DejaVuSans-5f" transform="translate(527.929688 0)"/>
      <use xlink:href="#DejaVuSans-6e" transform="translate(577.929688 0)"/>
      <use xlink:href="#DejaVuSans-6f" transform="translate(641.308594 0)"/>
      <use xlink:href="#DejaVuSans-72" transform="translate(702.490234 0)"/>
      <use xlink:href="#DejaVuSans-6d" transform="translate(741.853516 0)"/>
      <use xlink:href="#DejaVuSans-5f" transform="translate(839.265625 0)"/>
      <use xlink:href="#DejaVuSans-62" transform="translate(889.265625 0)"/>
      <use xlink:href="#DejaVuSans-6c" transform="translate(952.742188 0)"/>
      <use xlink:href="#DejaVuSans-6f" transform="translate(980.525391 0)"/>
      <use xlink:href="#DejaVuSans-63" transform="translate(1041.707031 0)"/>
      <use xlink:href="#DejaVuSans-6b" transform="translate(1096.6875 0)"/>
      <use xlink:href="#DejaVuSans-73" transform="translate(1154.597656 0)"/>
      <use xlink:href="#DejaVuSans-2e" transform="translate(1206.697266 0)"/>
      <use xlink:href="#DejaVuSans-30" transform="translate(1238.484375 0)"/>
      <use xlink:href="#DejaVuSans-2e" transform="translate(1302.107422 0)"/>
      <use xlink:href="#DejaVuSans-6c" transform="translate(1333.894531 0)"/>
      <use xlink:href="#DejaVuSans-61" transform="translate(1361.677734 0)"/>
      <use xlink:href="#DejaVuSans-79" transform="translate(1422.957031 0)"/>
      <use xlink:href="#DejaVuSans-65" transform="translate(1482.136719 0)"/>
      <use xlink:href="#DejaVuSans-72" transform="translate(1543.660156 0)"/>
      <use xlink:href="#DejaVuSans-5f" transform="translate(1584.773438 0)"/>
      <use xlink:href="#DejaVuSans-6e" transform="translate(1634.773438 0)"/>
      <use xlink:href="#DejaVuSans-6f" transform="translate(1698.152344 0)"/>
      <use xlink:href="#DejaVuSans-72" transform="translate(1759.333984 0)"/>
      <use xlink:href="#DejaVuSans-6d" transform="translate(1798.697266 0)"/>
     </g>
    </g>
    <g id="line2d_45">
     <path d="M 415.823437 52.478281
L 422.823437 52.478281
L 429.823437 52.478281
" style="fill: none; stroke: #2ca02c; stroke-width: 1.1; stroke-linecap: square"/>
    </g>
    <g id="text_21">
     <!-- parameter_norm_blocks.0.mlp -->
     <g transform="translate(435.423437 54.928281) scale(0.07 -0.07)">
      <use xlink:href="#DejaVuSans-70"/>
      <use xlink:href="#DejaVuSans-61" transform="translate(63.476562 0)"/>
      <use xlink:href="#DejaVuSans-72" transform="translate(124.755859 0)"/>
      <use xlink:href="#DejaVuSans-61" transform="translate(165.869141 0)"/>
      <use xlink:href="#DejaVuSans-6d" transform="translate(227.148438 0)"/>
      <use xlink:href="#DejaVuSans-65" transform="translate(324.560547 0)"/>
      <use xlink:href="#DejaVuSans-74" transform="translate(386.083984 0)"/>
      <use xlink:href="#DejaVuSans-65" transform="translate(425.292969 0)"/>
      <use xlink:href="#DejaVuSans-72" transform="translate(486.816406 0)"/>
      <use xlink:href="#DejaVuSans-5f" transform="translate(527.929688 0)"/>
      <use xlink:href="#DejaVuSans-6e" transform="translate(577.929688 0)"/>
      <use xlink:href="#DejaVuSans-6f" transform="translate(641.308594 0)"/>
      <use xlink:href="#DejaVuSans-72" transform="translate(702.490234 0)"/>
      <use xlink:href="#DejaVuSans-6d" transform="translate(741.853516 0)"/>
      <use xlink:href="#DejaVuSans-5f" transform="translate(839.265625 0)"/>
      <use xlink:href="#DejaVuSans-62" transform="translate(889.265625 0)"/>
      <use xlink:href="#DejaVuSans-6c" transform="translate(952.742188 0)"/>
      <use xlink:href="#DejaVuSans-6f" transform="translate(980.525391 0)"/>
      <use xlink:href="#DejaVuSans-63" transform="translate(1041.707031 0)"/>
      <use xlink:href="#DejaVuSans-6b" transform="translate(1096.6875 0)"/>
      <use xlink:href="#DejaVuSans-73" transform="translate(1154.597656 0)"/>
      <use xlink:href="#DejaVuSans-2e" transform="translate(1206.697266 0)"/>
      <use xlink:href="#DejaVuSans-30" transform="translate(1238.484375 0)"/>
      <use xlink:href="#DejaVuSans-2e" transform="translate(1302.107422 0)"/>
      <use xlink:href="#DejaVuSans-6d" transform="translate(1333.894531 0)"/>
      <use xlink:href="#DejaVuSans-6c" transform="translate(1431.306641 0)"/>
      <use xlink:href="#DejaVuSans-70" transform="translate(1459.089844 0)"/>
     </g>
    </g>
    <g id="line2d_46">
     <path d="M 415.823437 62.947656
L 422.823437 62.947656
L 429.823437 62.947656
" style="fill: none; stroke: #d62728; stroke-width: 1.1; stroke-linecap: square"/>
    </g>
    <g id="text_22">
     <!-- parameter_norm_blocks.1.attention -->
     <g transform="translate(435.423437 65.397656) scale(0.07 -0.07)">
      <use xlink:href="#DejaVuSans-70"/>
      <use xlink:href="#DejaVuSans-61" transform="translate(63.476562 0)"/>
      <use xlink:href="#DejaVuSans-72" transform="translate(124.755859 0)"/>
      <use xlink:href="#DejaVuSans-61" transform="translate(165.869141 0)"/>
      <use xlink:href="#DejaVuSans-6d" transform="translate(227.148438 0)"/>
      <use xlink:href="#DejaVuSans-65" transform="translate(324.560547 0)"/>
      <use xlink:href="#DejaVuSans-74" transform="translate(386.083984 0)"/>
      <use xlink:href="#DejaVuSans-65" transform="translate(425.292969 0)"/>
      <use xlink:href="#DejaVuSans-72" transform="translate(486.816406 0)"/>
      <use xlink:href="#DejaVuSans-5f" transform="translate(527.929688 0)"/>
      <use xlink:href="#DejaVuSans-6e" transform="translate(577.929688 0)"/>
      <use xlink:href="#DejaVuSans-6f" transform="translate(641.308594 0)"/>
      <use xlink:href="#DejaVuSans-72" transform="translate(702.490234 0)"/>
      <use xlink:href="#DejaVuSans-6d" transform="translate(741.853516 0)"/>
      <use xlink:href="#DejaVuSans-5f" transform="translate(839.265625 0)"/>
      <use xlink:href="#DejaVuSans-62" transform="translate(889.265625 0)"/>
      <use xlink:href="#DejaVuSans-6c" transform="translate(952.742188 0)"/>
      <use xlink:href="#DejaVuSans-6f" transform="translate(980.525391 0)"/>
      <use xlink:href="#DejaVuSans-63" transform="translate(1041.707031 0)"/>
      <use xlink:href="#DejaVuSans-6b" transform="translate(1096.6875 0)"/>
      <use xlink:href="#DejaVuSans-73" transform="translate(1154.597656 0)"/>
      <use xlink:href="#DejaVuSans-2e" transform="translate(1206.697266 0)"/>
      <use xlink:href="#DejaVuSans-31" transform="translate(1238.484375 0)"/>
      <use xlink:href="#DejaVuSans-2e" transform="translate(1302.107422 0)"/>
      <use xlink:href="#DejaVuSans-61" transform="translate(1333.894531 0)"/>
      <use xlink:href="#DejaVuSans-74" transform="translate(1395.173828 0)"/>
      <use xlink:href="#DejaVuSans-74" transform="translate(1434.382812 0)"/>
      <use xlink:href="#DejaVuSans-65" transform="translate(1473.591797 0)"/>
      <use xlink:href="#DejaVuSans-6e" transform="translate(1535.115234 0)"/>
      <use xlink:href="#DejaVuSans-74" transform="translate(1598.494141 0)"/>
      <use xlink:href="#DejaVuSans-69" transform="translate(1637.703125 0)"/>
      <use xlink:href="#DejaVuSans-6f" transform="translate(1665.486328 0)"/>
      <use xlink:href="#DejaVuSans-6e" transform="translate(1726.667969 0)"/>
     </g>
    </g>
    <g id="line2d_47">
     <path d="M 415.823437 73.417031
L 422.823437 73.417031
L 429.823437 73.417031
" style="fill: none; stroke: #9467bd; stroke-width: 1.1; stroke-linecap: square"/>
    </g>
    <g id="text_23">
     <!-- parameter_norm_blocks.1.layer_norm -->
     <g transform="translate(435.423437 75.867031) scale(0.07 -0.07)">
      <use xlink:href="#DejaVuSans-70"/>
      <use xlink:href="#DejaVuSans-61" transform="translate(63.476562 0)"/>
      <use xlink:href="#DejaVuSans-72" transform="translate(124.755859 0)"/>
      <use xlink:href="#DejaVuSans-61" transform="translate(165.869141 0)"/>
      <use xlink:href="#DejaVuSans-6d" transform="translate(227.148438 0)"/>
      <use xlink:href="#DejaVuSans-65" transform="translate(324.560547 0)"/>
      <use xlink:href="#DejaVuSans-74" transform="translate(386.083984 0)"/>
      <use xlink:href="#DejaVuSans-65" transform="translate(425.292969 0)"/>
      <use xlink:href="#DejaVuSans-72" transform="translate(486.816406 0)"/>
      <use xlink:href="#DejaVuSans-5f" transform="translate(527.929688 0)"/>
      <use xlink:href="#DejaVuSans-6e" transform="translate(577.929688 0)"/>
      <use xlink:href="#DejaVuSans-6f" transform="translate(641.308594 0)"/>
      <use xlink:href="#DejaVuSans-72" transform="translate(702.490234 0)"/>
      <use xlink:href="#DejaVuSans-6d" transform="translate(741.853516 0)"/>
      <use xlink:href="#DejaVuSans-5f" transform="translate(839.265625 0)"/>
      <use xlink:href="#DejaVuSans-62" transform="translate(889.265625 0)"/>
      <use xlink:href="#DejaVuSans-6c" transform="translate(952.742188 0)"/>
      <use xlink:href="#DejaVuSans-6f" transform="translate(980.525391 0)"/>
      <use xlink:href="#DejaVuSans-63" transform="translate(1041.707031 0)"/>
      <use xlink:href="#DejaVuSans-6b" transform="translate(1096.6875 0)"/>
      <use xlink:href="#DejaVuSans-73" transform="translate(1154.597656 0)"/>
      <use xlink:href="#DejaVuSans-2e" transform="translate(1206.697266 0)"/>
      <use xlink:href="#DejaVuSans-31" transform="translate(1238.484375 0)"/>
      <use xlink:href="#DejaVuSans-2e" transform="translate(1302.107422 0)"/>
      <use xlink:href="#DejaVuSans-6c" transform="translate(1333.894531 0)"/>
      <use xlink:href="#DejaVuSans-61" transform="translate(1361.677734 0)"/>
      <use xlink:href="#DejaVuSans-79" transform="translate(1422.957031 0)"/>
      <use xlink:href="#DejaVuSans-65" transform="translate(1482.136719 0)"/>
      <use xlink:href="#DejaVuSans-72" transform="translate(1543.660156 0)"/>
      <use xlink:href="#DejaVuSans-5f" transform="translate(1584.773438 0)"/>
      <use xlink:href="#DejaVuSans-6e" transform="translate(1634.773438 0)"/>
      <use xlink:href="#DejaVuSans-6f" transform="translate(1698.152344 0)"/>
      <use xlink:href="#DejaVuSans-72" transform="translate(1759.333984 0)"/>
      <use xlink:href="#DejaVuSans-6d" transform="translate(1798.697266 0)"/>
     </g>
    </g>
    <g id="line2d_48">
     <path d="M 415.823437 83.886406
L 422.823437 83.886406
L 429.823437 83.886406
" style="fill: none; stroke: #8c564b; stroke-width: 1.1; stroke-linecap: square"/>
    </g>
    <g id="text_24">
     <!-- parameter_norm_blocks.1.mlp -->
     <g transform="translate(435.423437 86.336406) scale(0.07 -0.07)">
      <use xlink:href="#DejaVuSans-70"/>
      <use xlink:href="#DejaVuSans-61" transform="translate(63.476562 0)"/>
      <use xlink:href="#DejaVuSans-72" transform="translate(124.755859 0)"/>
      <use xlink:href="#DejaVuSans-61" transform="translate(165.869141 0)"/>
      <use xlink:href="#DejaVuSans-6d" transform="translate(227.148438 0)"/>
      <use xlink:href="#DejaVuSans-65" transform="translate(324.560547 0)"/>
      <use xlink:href="#DejaVuSans-74" transform="translate(386.083984 0)"/>
      <use xlink:href="#DejaVuSans-65" transform="translate(425.292969 0)"/>
      <use xlink:href="#DejaVuSans-72" transform="translate(486.816406 0)"/>
      <use xlink:href="#DejaVuSans-5f" transform="translate(527.929688 0)"/>
      <use xlink:href="#DejaVuSans-6e" transform="translate(577.929688 0)"/>
      <use xlink:href="#DejaVuSans-6f" transform="translate(641.308594 0)"/>
      <use xlink:href="#DejaVuSans-72" transform="translate(702.490234 0)"/>
      <use xlink:href="#DejaVuSans-6d" transform="translate(741.853516 0)"/>
      <use xlink:href="#DejaVuSans-5f" transform="translate(839.265625 0)"/>
      <use xlink:href="#DejaVuSans-62" transform="translate(889.265625 0)"/>
      <use xlink:href="#DejaVuSans-6c" transform="translate(952.742188 0)"/>
      <use xlink:href="#DejaVuSans-6f" transform="translate(980.525391 0)"/>
      <use xlink:href="#DejaVuSans-63" transform="translate(1041.707031 0)"/>
      <use xlink:href="#DejaVuSans-6b" transform="translate(1096.6875 0)"/>
      <use xlink:href="#DejaVuSans-73" transform="translate(1154.597656 0)"/>
      <use xlink:href="#DejaVuSans-2e" transform="translate(1206.697266 0)"/>
      <use xlink:href="#DejaVuSans-31" transform="translate(1238.484375 0)"/>
      <use xlink:href="#DejaVuSans-2e" transform="translate(1302.107422 0)"/>
      <use xlink:href="#DejaVuSans-6d" transform="translate(1333.894531 0)"/>
      <use xlink:href="#DejaVuSans-6c" transform="translate(1431.306641 0)"/>
      <use xlink:href="#DejaVuSans-70" transform="translate(1459.089844 0)"/>
     </g>
    </g>
    <g id="line2d_49">
     <path d="M 582.151094 31.539531
L 589.151094 31.539531
L 596.151094 31.539531
" style="fill: none; stroke: #e377c2; stroke-width: 1.1; stroke-linecap: square"/>
    </g>
    <g id="text_25">
     <!-- parameter_norm_position_embedding -->
     <g transform="translate(601.751094 33.989531) scale(0.07 -0.07)">
      <defs>
       <path id="DejaVuSans-67" d="M 2906 1791
Q 2906 2416 2648 2759
Q 2391 3103 1925 3103
Q 1463 3103 1205 2759
Q 947 2416 947 1791
Q 947 1169 1205 825
Q 1463 481 1925 481
Q 2391 481 2648 825
Q 2906 1169 2906 1791
z
M 3481 434
Q 3481 -459 3084 -895
Q 2688 -1331 1869 -1331
Q 1566 -1331 1297 -1286
Q 1028 -1241 775 -1147
L 775 -588
Q 1028 -725 1275 -790
Q 1522 -856 1778 -856
Q 2344 -856 2625 -561
Q 2906 -266 2906 331
L 2906 616
Q 2728 306 2450 153
Q 2172 0 1784 0
Q 1141 0 747 490
Q 353 981 353 1791
Q 353 2603 747 3093
Q 1141 3584 1784 3584
Q 2172 3584 2450 3431
Q 2728 3278 2906 2969
L 2906 3500
L 3481 3500
L 3481 434
z
" transform="scale(0.015625)"/>
      </defs>
      <use xlink:href="#DejaVuSans-70"/>
      <use xlink:href="#DejaVuSans-61" transform="translate(63.476562 0)"/>
      <use xlink:href="#DejaVuSans-72" transform="translate(124.755859 0)"/>
      <use xlink:href="#DejaVuSans-61" transform="translate(165.869141 0)"/>
      <use xlink:href="#DejaVuSans-6d" transform="translate(227.148438 0)"/>
      <use xlink:href="#DejaVuSans-65" transform="translate(324.560547 0)"/>
      <use xlink:href="#DejaVuSans-74" transform="translate(386.083984 0)"/>
      <use xlink:href="#DejaVuSans-65" transform="translate(425.292969 0)"/>
      <use xlink:href="#DejaVuSans-72" transform="translate(486.816406 0)"/>
      <use xlink:href="#DejaVuSans-5f" transform="translate(527.929688 0)"/>
      <use xlink:href="#DejaVuSans-6e" transform="translate(577.929688 0)"/>
      <use xlink:href="#DejaVuSans-6f" transform="translate(641.308594 0)"/>
      <use xlink:href="#DejaVuSans-72" transform="translate(702.490234 0)"/>
      <use xlink:href="#DejaVuSans-6d" transform="translate(741.853516 0)"/>
      <use xlink:href="#DejaVuSans-5f" transform="translate(839.265625 0)"/>
      <use xlink:href="#DejaVuSans-70" transform="translate(889.265625 0)"/>
      <use xlink:href="#DejaVuSans-6f" transform="translate(952.742188 0)"/>
      <use xlink:href="#DejaVuSans-73" transform="translate(1013.923828 0)"/>
      <use xlink:href="#DejaVuSans-69" transform="translate(1066.023438 0)"/>
      <use xlink:href="#DejaVuSans-74" transform="translate(1093.806641 0)"/>
      <use xlink:href="#DejaVuSans-69" transform="translate(1133.015625 0)"/>
      <use xlink:href="#DejaVuSans-6f" transform="translate(1160.798828 0)"/>
      <use xlink:href="#DejaVuSans-6e" transform="translate(1221.980469 0)"/>
      <use xlink:href="#DejaVuSans-5f" transform="translate(1285.359375 0)"/>
      <use xlink:href="#DejaVuSans-65" transform="translate(1335.359375 0)"/>
      <use xlink:href="#DejaVuSans-6d" transform="translate(1396.882812 0)"/>
      <use xlink:href="#DejaVuSans-62" transform="translate(1494.294922 0)"/>
      <use xlink:href="#DejaVuSans-65" transform="translate(1557.771484 0)"/>
      <use xlink:href="#DejaVuSans-64" transform="translate(1619.294922 0)"/>
      <use xlink:href="#DejaVuSans-64" transform="translate(1682.771484 0)"/>
      <use xlink:href="#DejaVuSans-69" transform="translate(1746.248047 0)"/>
      <use xlink:href="#DejaVuSans-6e" transform="translate(1774.03125 0)"/>
      <use xlink:href="#DejaVuSans-67" transform="translate(1837.410156 0)"/>
     </g>
    </g>
    <g id="line2d_50">
     <path d="M 582.151094 42.008906
L 589.151094 42.008906
L 596.151094 42.008906
" style="fill: none; stroke: #7f7f7f; stroke-width: 1.1; stroke-linecap: square"/>
    </g>
    <g id="text_26">
     <!-- parameter_norm_token_embedding -->
     <g transform="translate(601.751094 44.458906) scale(0.07 -0.07)">
      <use xlink:href="#DejaVuSans-70"/>
      <use xlink:href="#DejaVuSans-61" transform="translate(63.476562 0)"/>
      <use xlink:href="#DejaVuSans-72" transform="translate(124.755859 0)"/>
      <use xlink:href="#DejaVuSans-61" transform="translate(165.869141 0)"/>
      <use xlink:href="#DejaVuSans-6d" transform="translate(227.148438 0)"/>
      <use xlink:href="#DejaVuSans-65" transform="translate(324.560547 0)"/>
      <use xlink:href="#DejaVuSans-74" transform="translate(386.083984 0)"/>
      <use xlink:href="#DejaVuSans-65" transform="translate(425.292969 0)"/>
      <use xlink:href="#DejaVuSans-72" transform="translate(486.816406 0)"/>
      <use xlink:href="#DejaVuSans-5f" transform="translate(527.929688 0)"/>
      <use xlink:href="#DejaVuSans-6e" transform="translate(577.929688 0)"/>
      <use xlink:href="#DejaVuSans-6f" transform="translate(641.308594 0)"/>
      <use xlink:href="#DejaVuSans-72" transform="translate(702.490234 0)"/>
      <use xlink:href="#DejaVuSans-6d" transform="translate(741.853516 0)"/>
      <use xlink:href="#DejaVuSans-5f" transform="translate(839.265625 0)"/>
      <use xlink:href="#DejaVuSans-74" transform="translate(889.265625 0)"/>
      <use xlink:href="#DejaVuSans-6f" transform="translate(928.474609 0)"/>
      <use xlink:href="#DejaVuSans-6b" transform="translate(989.65625 0)"/>
      <use xlink:href="#DejaVuSans-65" transform="translate(1043.941406 0)"/>
      <use xlink:href="#DejaVuSans-6e" transform="translate(1105.464844 0)"/>
      <use xlink:href="#DejaVuSans-5f" transform="translate(1168.84375 0)"/>
      <use xlink:href="#DejaVuSans-65" transform="translate(1218.84375 0)"/>
      <use xlink:href="#DejaVuSans-6d" transform="translate(1280.367188 0)"/>
      <use xlink:href="#DejaVuSans-62" transform="translate(1377.779297 0)"/>
      <use xlink:href="#DejaVuSans-65" transform="translate(1441.255859 0)"/>
      <use xlink:href="#DejaVuSans-64" transform="translate(1502.779297 0)"/>
      <use xlink:href="#DejaVuSans-64" transform="translate(1566.255859 0)"/>
      <use xlink:href="#DejaVuSans-69" transform="translate(1629.732422 0)"/>
      <use xlink:href="#DejaVuSans-6e" transform="translate(1657.515625 0)"/>
      <use xlink:href="#DejaVuSans-67" transform="translate(1720.894531 0)"/>
     </g>
    </g>
    <g id="line2d_51">
     <path d="M 582.151094 52.478281
L 589.151094 52.478281
L 596.151094 52.478281
" style="fill: none; stroke: #bcbd22; stroke-width: 1.1; stroke-linecap: square"/>
    </g>
    <g id="text_27">
     <!-- parameter_norm_unembedding -->
     <g transform="translate(601.751094 54.928281) scale(0.07 -0.07)">
      <use xlink:href="#DejaVuSans-70"/>
      <use xlink:href="#DejaVuSans-61" transform="translate(63.476562 0)"/>
      <use xlink:href="#DejaVuSans-72" transform="translate(124.755859 0)"/>
      <use xlink:href="#DejaVuSans-61" transform="translate(165.869141 0)"/>
      <use xlink:href="#DejaVuSans-6d" transform="translate(227.148438 0)"/>
      <use xlink:href="#DejaVuSans-65" transform="translate(324.560547 0)"/>
      <use xlink:href="#DejaVuSans-74" transform="translate(386.083984 0)"/>
      <use xlink:href="#DejaVuSans-65" transform="translate(425.292969 0)"/>
      <use xlink:href="#DejaVuSans-72" transform="translate(486.816406 0)"/>
      <use xlink:href="#DejaVuSans-5f" transform="translate(527.929688 0)"/>
      <use xlink:href="#DejaVuSans-6e" transform="translate(577.929688 0)"/>
      <use xlink:href="#DejaVuSans-6f" transform="translate(641.308594 0)"/>
      <use xlink:href="#DejaVuSans-72" transform="translate(702.490234 0)"/>
      <use xlink:href="#DejaVuSans-6d" transform="translate(741.853516 0)"/>
      <use xlink:href="#DejaVuSans-5f" transform="translate(839.265625 0)"/>
      <use xlink:href="#DejaVuSans-75" transform="translate(889.265625 0)"/>
      <use xlink:href="#DejaVuSans-6e" transform="translate(952.644531 0)"/>
      <use xlink:href="#DejaVuSans-65" transform="translate(1016.023438 0)"/>
      <use xlink:href="#DejaVuSans-6d" transform="translate(1077.546875 0)"/>
      <use xlink:href="#DejaVuSans-62" transform="translate(1174.958984 0)"/>
      <use xlink:href="#DejaVuSans-65" transform="translate(1238.435547 0)"/>
      <use xlink:href="#DejaVuSans-64" transform="translate(1299.958984 0)"/>
      <use xlink:href="#DejaVuSans-64" transform="translate(1363.435547 0)"/>
      <use xlink:href="#DejaVuSans-69" transform="translate(1426.912109 0)"/>
      <use xlink:href="#DejaVuSans-6e" transform="translate(1454.695312 0)"/>
      <use xlink:href="#DejaVuSans-67" transform="translate(1518.074219 0)"/>
     </g>
    </g>
    <g id="line2d_52">
     <path d="M 582.151094 62.947656
L 589.151094 62.947656
L 596.151094 62.947656
" style="fill: none; stroke-dasharray: 3.7,1.6; stroke-dashoffset: 0; stroke: #7b2cbf; stroke-opacity: 0.85"/>
    </g>
    <g id="text_28">
     <!-- t_fit=100 -->
     <g transform="translate(601.751094 65.397656) scale(0.07 -0.07)">
      <defs>
       <path id="DejaVuSans-66" d="M 2375 4863
L 2375 4384
L 1825 4384
Q 1516 4384 1395 4259
Q 1275 4134 1275 3809
L 1275 3500
L 2222 3500
L 2222 3053
L 1275 3053
L 1275 0
L 697 0
L 697 3053
L 147 3053
L 147 3500
L 697 3500
L 697 3744
Q 697 4328 969 4595
Q 1241 4863 1831 4863
L 2375 4863
z
" transform="scale(0.015625)"/>
       <path id="DejaVuSans-3d" d="M 678 2906
L 4684 2906
L 4684 2381
L 678 2381
L 678 2906
z
M 678 1631
L 4684 1631
L 4684 1100
L 678 1100
L 678 1631
z
" transform="scale(0.015625)"/>
      </defs>
      <use xlink:href="#DejaVuSans-74"/>
      <use xlink:href="#DejaVuSans-5f" transform="translate(39.208984 0)"/>
      <use xlink:href="#DejaVuSans-66" transform="translate(89.208984 0)"/>
      <use xlink:href="#DejaVuSans-69" transform="translate(124.414062 0)"/>
      <use xlink:href="#DejaVuSans-74" transform="translate(152.197266 0)"/>
      <use xlink:href="#DejaVuSans-3d" transform="translate(191.40625 0)"/>
      <use xlink:href="#DejaVuSans-31" transform="translate(275.195312 0)"/>
      <use xlink:href="#DejaVuSans-30" transform="translate(338.818359 0)"/>
      <use xlink:href="#DejaVuSans-30" transform="translate(402.441406 0)"/>
     </g>
    </g>
    <g id="line2d_53">
     <path d="M 582.151094 73.417031
L 589.151094 73.417031
L 596.151094 73.417031
" style="fill: none; stroke-dasharray: 3.7,1.6; stroke-dashoffset: 0; stroke: #f77f00; stroke-opacity: 0.85"/>
    </g>
    <g id="text_29">
     <!-- t_grok50=6050 -->
     <g transform="translate(601.751094 75.867031) scale(0.07 -0.07)">
      <use xlink:href="#DejaVuSans-74"/>
      <use xlink:href="#DejaVuSans-5f" transform="translate(39.208984 0)"/>
      <use xlink:href="#DejaVuSans-67" transform="translate(89.208984 0)"/>
      <use xlink:href="#DejaVuSans-72" transform="translate(152.685547 0)"/>
      <use xlink:href="#DejaVuSans-6f" transform="translate(191.548828 0)"/>
      <use xlink:href="#DejaVuSans-6b" transform="translate(252.730469 0)"/>
      <use xlink:href="#DejaVuSans-35" transform="translate(310.640625 0)"/>
      <use xlink:href="#DejaVuSans-30" transform="translate(374.263672 0)"/>
      <use xlink:href="#DejaVuSans-3d" transform="translate(437.886719 0)"/>
      <use xlink:href="#DejaVuSans-36" transform="translate(521.675781 0)"/>
      <use xlink:href="#DejaVuSans-30" transform="translate(585.298828 0)"/>
      <use xlink:href="#DejaVuSans-35" transform="translate(648.921875 0)"/>
      <use xlink:href="#DejaVuSans-30" transform="translate(712.544922 0)"/>
     </g>
    </g>
    <g id="line2d_54">
     <path d="M 582.151094 83.886406
L 589.151094 83.886406
L 596.151094 83.886406
" style="fill: none; stroke-dasharray: 3.7,1.6; stroke-dashoffset: 0; stroke: #d62828; stroke-opacity: 0.85"/>
    </g>
    <g id="text_30">
     <!-- t_grok99=7000 -->
     <g transform="translate(601.751094 86.336406) scale(0.07 -0.07)">
      <defs>
       <path id="DejaVuSans-39" d="M 703 97
L 703 672
Q 941 559 1184 500
Q 1428 441 1663 441
Q 2288 441 2617 861
Q 2947 1281 2994 2138
Q 2813 1869 2534 1725
Q 2256 1581 1919 1581
Q 1219 1581 811 2004
Q 403 2428 403 3163
Q 403 3881 828 4315
Q 1253 4750 1959 4750
Q 2769 4750 3195 4129
Q 3622 3509 3622 2328
Q 3622 1225 3098 567
Q 2575 -91 1691 -91
Q 1453 -91 1209 -44
Q 966 3 703 97
z
M 1959 2075
Q 2384 2075 2632 2365
Q 2881 2656 2881 3163
Q 2881 3666 2632 3958
Q 2384 4250 1959 4250
Q 1534 4250 1286 3958
Q 1038 3666 1038 3163
Q 1038 2656 1286 2365
Q 1534 2075 1959 2075
z
" transform="scale(0.015625)"/>
      </defs>
      <use xlink:href="#DejaVuSans-74"/>
      <use xlink:href="#DejaVuSans-5f" transform="translate(39.208984 0)"/>
      <use xlink:href="#DejaVuSans-67" transform="translate(89.208984 0)"/>
      <use xlink:href="#DejaVuSans-72" transform="translate(152.685547 0)"/>
      <use xlink:href="#DejaVuSans-6f" transform="translate(191.548828 0)"/>
      <use xlink:href="#DejaVuSans-6b" transform="translate(252.730469 0)"/>
      <use xlink:href="#DejaVuSans-39" transform="translate(310.640625 0)"/>
      <use xlink:href="#DejaVuSans-39" transform="translate(374.263672 0)"/>
      <use xlink:href="#DejaVuSans-3d" transform="translate(437.886719 0)"/>
      <use xlink:href="#DejaVuSans-37" transform="translate(521.675781 0)"/>
      <use xlink:href="#DejaVuSans-30" transform="translate(585.298828 0)"/>
      <use xlink:href="#DejaVuSans-30" transform="translate(648.921875 0)"/>
      <use xlink:href="#DejaVuSans-30" transform="translate(712.544922 0)"/>
     </g>
    </g>
   </g>
  </g>
 </g>
 <defs>
  <clipPath id="pe413a8c12b">
   <rect x="46.965625" y="22.370625" width="694.15" height="364.6"/>
  </clipPath>
 </defs>
</svg>
